<svg width="1085" height="645" viewBox="0 0 1085 645" fill="none" xmlns="http://www.w3.org/2000/svg">
<path d="M128.724 143.316C125.053 165.758 136.231 213.652 142.279 234.794C151.764 238.555 165.015 229.173 165.015 229.173C165.015 229.173 148.224 177.091 152.563 148.605C153.159 144.689 164.675 98.585 219.318 126.23C260.554 152.652 299.63 196.976 314.26 263.673C326.287 318.505 331.816 469.081 329.69 539.398L351.394 538.991C354.634 477.269 356.723 337.422 339.165 271.81C317.218 189.796 277.473 135.955 234.005 109.667C199.231 88.6368 167.899 96.8344 156.579 103.562C148.824 107.462 132.395 120.873 128.724 143.316Z" fill="#2B2B2B" fill-opacity="0.28" stroke="black"/>
<path d="M379.828 434.241C378.495 441.154 376.306 448.975 369.357 450.103L326.921 474.603C315.23 481.353 272.035 474.538 266.437 470.842C260.839 467.145 238.005 478.596 232.273 472.668C203.029 493.016 203.261 489.418 200.029 487.82C196.797 486.222 182.926 449.197 183.756 440.635C184.42 433.785 206.417 432.375 217.333 432.526C217.536 428.47 218.684 424.949 221.196 422.483C254.27 398.769 238.257 382.033 234.069 360.78C230.719 343.777 235.789 338.425 238.743 337.874L190.187 338.773C183.369 339.63 166.858 333.766 155.361 303.453C143.865 273.141 131.557 250.224 131.838 243.711C132.746 222.727 170.419 203.535 180.921 221.724C189.17 236.012 198.438 256.065 205.421 264.159C216.334 276.81 226.987 274.586 243.218 270.626C250.07 268.953 254.053 264.393 265.252 260.791C288.459 253.326 311.376 256.68 331.47 270.482C351.564 284.284 361.885 292.047 373.826 311.845C386.644 333.096 393.922 348.496 390.72 373.106C388.969 386.568 380.759 389.455 379.068 402.925C377.578 414.796 381.707 424.496 379.828 434.241Z" fill="#2B2B2B" fill-opacity="0.28"/>
<path d="M265.252 260.791C262.123 292.37 268.246 318.854 284.92 345.855C296.07 363.911 315.281 381.442 321.812 385.754C328.343 390.066 342.214 427.091 354.812 442.912C358.759 447.869 363.102 451.119 369.357 450.103M265.252 260.791C288.459 253.326 311.376 256.68 331.47 270.482C351.564 284.284 361.885 292.047 373.826 311.845C386.644 333.096 393.922 348.496 390.72 373.106C388.969 386.568 380.759 389.455 379.068 402.925C377.578 414.796 381.707 424.496 379.828 434.241C378.495 441.154 376.306 448.975 369.357 450.103M265.252 260.791C254.053 264.393 250.07 268.953 243.218 270.626C226.987 274.586 216.334 276.81 205.421 264.159C198.438 256.065 189.17 236.012 180.921 221.724C170.419 203.535 132.746 222.727 131.838 243.711C131.557 250.224 143.865 273.141 155.361 303.453C166.858 333.766 183.369 339.63 190.187 338.773L238.743 337.874M369.357 450.103L326.921 474.603M326.921 474.603C321.99 472.062 311.296 464.341 307.975 453.788C303.823 440.596 289.604 408.968 274.725 396.197C262.822 385.98 245.777 353.058 238.743 337.874M326.921 474.603C315.23 481.353 272.035 474.538 266.437 470.842C260.839 467.145 238.005 478.596 232.273 472.668M238.743 337.874C235.789 338.425 230.719 343.777 234.069 360.78C238.257 382.033 254.27 398.769 221.196 422.483C218.684 424.949 217.536 428.47 217.333 432.526M232.273 472.668C227.801 468.043 216.613 446.917 217.333 432.526M232.273 472.668C203.029 493.016 203.261 489.418 200.029 487.82C196.797 486.222 182.926 449.197 183.756 440.635C184.42 433.785 206.417 432.375 217.333 432.526" stroke="black"/>
<path d="M367.892 360.001L368.079 359.617L366.661 360.436C361.463 363.437 354.953 363.138 348.587 360.128C342.223 357.119 336.052 351.418 331.609 343.723C327.166 336.028 325.315 327.833 325.891 320.817C326.467 313.799 329.463 308.012 334.661 305.01L334.411 304.577C334.661 305.01 334.661 305.01 334.662 305.01L334.662 305.01L334.663 305.009L334.664 305.009L334.665 305.008L334.667 305.007L334.669 305.006L334.671 305.004L334.674 305.003L334.677 305.001L334.68 304.999L334.683 304.997L334.687 304.995L334.691 304.993L334.696 304.99L334.7 304.988L334.705 304.985L334.71 304.982L334.716 304.979L334.722 304.975L334.728 304.972L334.734 304.968L334.741 304.964L334.748 304.96L334.755 304.956L334.763 304.952L334.771 304.947L334.779 304.942L334.787 304.938L334.796 304.933L334.805 304.927L334.814 304.922L334.823 304.917L334.833 304.911L334.843 304.905L334.853 304.899L334.864 304.893L334.875 304.887L334.886 304.88L334.897 304.874L334.909 304.867L334.921 304.86L334.933 304.853L334.945 304.846L334.958 304.839L334.971 304.831L334.984 304.824L334.998 304.816L335.012 304.808L335.026 304.8L335.04 304.792L335.054 304.783L335.069 304.775L335.084 304.766L335.099 304.757L335.115 304.748L335.131 304.739L335.147 304.73L335.163 304.721L335.179 304.711L335.196 304.701L335.213 304.692L335.23 304.682L335.248 304.672L335.266 304.661L335.283 304.651L335.302 304.64L335.32 304.63L335.339 304.619L335.358 304.608L335.377 304.597L335.396 304.586L335.416 304.575L335.436 304.563L335.456 304.552L335.476 304.54L335.496 304.528L335.517 304.516L335.538 304.504L335.559 304.492L335.581 304.479L335.602 304.467L335.624 304.454L335.646 304.442L335.669 304.429L335.691 304.416L335.714 304.403L335.737 304.389L335.76 304.376L335.783 304.362L335.807 304.349L335.831 304.335L335.855 304.321L335.879 304.307L335.903 304.293L335.928 304.279L335.953 304.265L335.978 304.25L336.003 304.236L336.029 304.221L336.054 304.206L336.08 304.191L336.106 304.176L336.132 304.161L336.159 304.146L336.185 304.13L336.212 304.115L336.239 304.099L336.266 304.083L336.294 304.068L336.321 304.052L336.349 304.036L336.377 304.019L336.405 304.003L336.434 303.987L336.462 303.97L336.491 303.954L336.52 303.937L336.549 303.92L336.578 303.903L336.608 303.886L336.637 303.869L336.667 303.852L336.697 303.835L336.727 303.817L336.758 303.8L336.788 303.782L336.819 303.764L336.85 303.747L336.881 303.729L336.912 303.711L336.943 303.693L336.975 303.674L337.007 303.656L337.039 303.638L337.071 303.619L337.103 303.601L337.135 303.582L337.168 303.563L337.2 303.544L337.233 303.525L337.266 303.506L337.299 303.487L337.333 303.468L337.366 303.449L337.4 303.429L337.433 303.41L337.467 303.39L337.501 303.371L337.536 303.351L337.57 303.331L337.604 303.311L337.639 303.291L337.674 303.271L337.709 303.251L337.744 303.23L337.779 303.21L337.814 303.19L337.85 303.169L337.886 303.149L337.921 303.128L337.957 303.107L337.993 303.086L338.03 303.066L338.066 303.045L338.102 303.024L338.139 303.002L338.176 302.981L338.212 302.96L338.249 302.939L338.286 302.917L338.324 302.896L338.361 302.874L338.398 302.853L338.436 302.831L338.474 302.809L338.512 302.787L338.549 302.765L338.588 302.743L338.626 302.721L338.664 302.699L338.702 302.677L338.741 302.655L338.78 302.633L338.818 302.61L338.857 302.588L338.896 302.565L338.935 302.543L338.974 302.52L339.014 302.497L339.053 302.475L339.093 302.452L339.132 302.429L339.172 302.406L339.212 302.383L339.251 302.36L339.291 302.337L339.332 302.314L339.372 302.291L339.412 302.267L339.452 302.244L339.493 302.221L339.533 302.197L339.574 302.174L339.615 302.15L339.656 302.127L339.697 302.103L339.738 302.079L339.779 302.056L339.82 302.032L339.861 302.008L339.902 301.984L339.944 301.96L339.985 301.936L340.027 301.912L340.069 301.888L340.11 301.864L340.152 301.84L340.194 301.816L340.236 301.792L340.278 301.767L340.32 301.743L340.362 301.719L340.404 301.694L340.447 301.67L340.489 301.645L340.532 301.621L340.574 301.596L340.617 301.572L340.659 301.547L340.702 301.523L340.745 301.498L340.788 301.473L340.83 301.448L340.873 301.424L340.916 301.399L340.959 301.374L341.002 301.349L341.046 301.324L341.089 301.299L341.132 301.274L341.175 301.249L341.219 301.224L341.262 301.199L341.306 301.174L341.349 301.149L341.393 301.124L341.436 301.099L341.48 301.074L341.523 301.048L341.567 301.023L341.611 300.998L341.655 300.973L341.698 300.947L341.742 300.922L341.786 300.897L341.83 300.871L341.874 300.846L341.918 300.821L341.962 300.795L342.006 300.77L342.05 300.744L342.094 300.719L342.138 300.693L342.183 300.668L342.227 300.642L342.271 300.617L342.315 300.591L342.359 300.566L342.404 300.54L342.448 300.515L342.492 300.489L342.536 300.463L342.581 300.438L342.625 300.412L342.669 300.387L342.714 300.361L342.758 300.335L342.803 300.31L342.847 300.284L342.891 300.259L342.936 300.233L342.98 300.207L343.025 300.182L343.069 300.156L343.113 300.13L343.158 300.105L343.202 300.079L343.247 300.053L343.291 300.028L343.336 300.002L343.38 299.976L343.424 299.951L343.469 299.925L343.513 299.9L343.558 299.874L343.602 299.848L343.646 299.823L343.691 299.797L343.735 299.771L343.779 299.746L343.824 299.72L343.868 299.695L343.912 299.669L343.957 299.644L344.001 299.618L344.045 299.592L344.089 299.567L344.133 299.541L344.178 299.516L344.222 299.49L344.266 299.465L344.31 299.44L344.354 299.414L344.398 299.389L344.442 299.363L344.486 299.338L344.53 299.313L344.574 299.287L344.618 299.262L344.661 299.237L344.705 299.211L344.749 299.186L344.793 299.161L344.836 299.136L344.88 299.11L344.924 299.085L344.967 299.06L345.011 299.035L345.054 299.01L345.098 298.985L345.141 298.96L345.184 298.935L345.228 298.91L345.271 298.885L345.314 298.86L345.357 298.835L345.4 298.81L345.443 298.785L345.486 298.76L345.529 298.736L345.572 298.711L345.615 298.686L345.657 298.662L345.7 298.637L345.743 298.612L345.785 298.588L345.828 298.563L345.87 298.539L345.912 298.514L345.955 298.49L345.997 298.466L346.039 298.441L346.081 298.417L346.123 298.393L346.165 298.369L346.207 298.344L346.249 298.32L346.29 298.296L346.332 298.272L346.373 298.248L346.415 298.224L346.456 298.2L346.498 298.177L346.539 298.153L346.58 298.129L346.621 298.105L346.662 298.082L346.703 298.058L346.744 298.035L346.784 298.011L346.825 297.988L346.865 297.964L346.906 297.941L346.946 297.918L346.986 297.894L347.026 297.871L347.066 297.848L347.106 297.825L347.146 297.802L347.186 297.779L347.226 297.756L347.265 297.733L347.305 297.711L347.344 297.688L347.383 297.665L347.422 297.643L347.461 297.62L347.5 297.598L347.539 297.575L347.578 297.553L347.616 297.531L347.655 297.508L347.693 297.486L347.731 297.464L347.769 297.442L347.807 297.42L347.845 297.398L347.883 297.377L347.921 297.355L347.958 297.333L347.996 297.312L348.033 297.29L348.07 297.269L348.107 297.247L348.144 297.226L348.181 297.205L348.217 297.184L348.254 297.163L348.29 297.142L348.326 297.121L348.363 297.1L348.399 297.079L348.434 297.058L348.47 297.038L348.506 297.017L348.541 296.997L348.576 296.976L348.612 296.956L348.647 296.936L348.681 296.916L348.716 296.896L348.751 296.876L348.785 296.856L348.819 296.836L348.854 296.816L348.888 296.797L348.921 296.777L348.955 296.758L348.989 296.738L349.022 296.719L349.055 296.7L349.088 296.681L349.121 296.662L349.154 296.643L349.186 296.624L349.219 296.605L349.251 296.587L349.283 296.568L349.315 296.55L349.347 296.531L349.379 296.513L349.41 296.495L349.441 296.477L349.472 296.459L349.503 296.441L349.534 296.423L349.565 296.406L349.595 296.388L349.625 296.371L349.656 296.353L349.685 296.336L349.715 296.319L349.745 296.302L349.774 296.285L349.803 296.268L349.832 296.251L349.861 296.235L349.89 296.218L349.918 296.202L349.946 296.185L349.974 296.169L350.002 296.153L350.03 296.137L350.058 296.121L350.085 296.105L350.112 296.09L350.139 296.074L350.166 296.059L350.192 296.043L350.219 296.028L350.245 296.013L350.271 295.998L350.296 295.983L350.322 295.969L350.347 295.954L350.372 295.939L350.397 295.925L350.422 295.911L350.447 295.897L350.471 295.883L350.495 295.869L350.519 295.855L350.543 295.841L350.566 295.828L350.589 295.814L350.612 295.801L350.635 295.788L350.658 295.775L350.68 295.762L350.702 295.749L350.724 295.736L350.746 295.724L350.768 295.711L350.789 295.699L350.81 295.687L350.831 295.675L350.851 295.663L350.872 295.651L350.892 295.639L350.912 295.628L350.932 295.616L350.951 295.605L350.97 295.594L350.989 295.583L351.008 295.572L351.027 295.562L351.045 295.551L351.063 295.541L351.081 295.53L351.098 295.52L351.116 295.51C356.314 292.509 362.824 292.808 369.19 295.818C375.554 298.827 381.726 304.528 386.168 312.223C390.611 319.918 392.463 328.113 391.886 335.129C391.31 342.147 388.314 347.934 383.116 350.936C382.357 351.374 381.156 352.211 379.756 353.194C379.642 353.273 379.527 353.354 379.411 353.436C378.082 354.369 376.579 355.424 375.062 356.429C373.411 357.522 371.758 358.545 370.308 359.279C369.583 359.645 368.919 359.935 368.339 360.124C368.306 360.135 368.273 360.145 368.241 360.155C368.182 360.102 368.116 360.064 368.049 360.039C367.994 360.018 367.941 360.007 367.892 360.001Z" fill="#6F47C2" stroke="black"/>
<path d="M166.815 438.292C178.385 407.132 212.835 392.669 228.615 389.332C254.061 421.406 272.204 484.832 268.995 502.273C220.578 520.412 186.39 503.198 183.891 498.869C174.64 482.846 160.055 452.584 166.815 438.292Z" fill="#2B2B2B" fill-opacity="0.28" stroke="black"/>
<path d="M386.308 385.465C382.962 380.469 379.057 367.905 377.523 362.248C372.646 353.801 379.552 319.314 375.704 302.098C368.048 267.836 376.632 268.364 379.453 252.592L376.801 241.998C379.005 240.149 385.121 235.809 391.957 233.248C400.501 230.047 396.122 235.462 410.197 234.842C416.001 230.802 422.437 226.042 427.999 221.676C433.562 217.31 453.998 210.707 479.591 234.036C505.185 257.365 495.271 301.194 496.106 307.64C496.941 314.086 493.263 323.715 489.75 328.63C486.236 333.545 489.844 363.794 486.197 366.477C482.55 369.16 426.173 396.513 419.294 397.598C412.415 398.683 390.491 391.711 386.308 385.465Z" fill="#2B2B2B" fill-opacity="0.28"/>
<path d="M496.106 307.64C496.941 314.086 493.263 323.715 489.75 328.63C486.236 333.545 489.844 363.794 486.197 366.477C482.55 369.16 426.173 396.513 419.294 397.598C412.415 398.683 390.491 391.711 386.308 385.465C382.962 380.469 379.057 367.905 377.523 362.248C372.646 353.801 379.552 319.314 375.704 302.098C368.048 267.836 376.632 268.364 379.453 252.592L376.801 241.998C379.005 240.149 385.121 235.809 391.957 233.248C400.501 230.047 396.122 235.462 410.197 234.842C416.001 230.802 422.437 226.042 427.999 221.676M496.106 307.64C495.271 301.194 505.185 257.365 479.591 234.036C453.998 210.707 433.562 217.31 427.999 221.676M496.106 307.64C481.522 333.381 463.679 323.475 436.952 296.182C415.57 274.348 422.074 237.414 427.999 221.676" stroke="black"/>
<path d="M502.333 299.426C494.502 303.947 484.743 303.519 475.251 299.075C465.762 294.632 456.587 286.191 450.004 274.79C443.422 263.389 440.699 251.223 441.596 240.783C442.494 230.341 447.002 221.675 454.833 217.154L454.583 216.721C454.833 217.154 454.833 217.154 454.833 217.154L454.834 217.153L454.836 217.152L454.838 217.151L454.841 217.149L454.845 217.147L454.849 217.144L454.854 217.142L454.86 217.138L454.866 217.135L454.873 217.131L454.88 217.127L454.888 217.122L454.897 217.117L454.906 217.112L454.916 217.106L454.927 217.1L454.938 217.093L454.95 217.086L454.962 217.079L454.975 217.072L454.989 217.064L455.003 217.056L455.018 217.047L455.033 217.038L455.049 217.029L455.066 217.019L455.083 217.009L455.101 216.999L455.12 216.988L455.139 216.977L455.158 216.966L455.179 216.954L455.199 216.942L455.221 216.93L455.243 216.917L455.265 216.904L455.289 216.891L455.312 216.877L455.337 216.863L455.361 216.849L455.387 216.834L455.413 216.819L455.439 216.804L455.466 216.788L455.494 216.772L455.522 216.756L455.551 216.739L455.58 216.722L455.61 216.705L455.641 216.688L455.672 216.67L455.703 216.651L455.735 216.633L455.768 216.614L455.801 216.595L455.834 216.576L455.869 216.556L455.903 216.536L455.938 216.516L455.974 216.495L456.01 216.474L456.047 216.453L456.085 216.431L456.122 216.409L456.161 216.387L456.199 216.365L456.239 216.342L456.279 216.319L456.319 216.296L456.36 216.272L456.401 216.248L456.443 216.224L456.485 216.2L456.528 216.175L456.571 216.15L456.615 216.125L456.66 216.099L456.704 216.073L456.75 216.047L456.795 216.021L456.841 215.994L456.888 215.967L456.935 215.94L456.983 215.913L457.031 215.885L457.08 215.857L457.129 215.828L457.178 215.8L457.228 215.771L457.278 215.742L457.329 215.713L457.38 215.683L457.432 215.653L457.484 215.623L457.537 215.593L457.59 215.562L457.643 215.531L457.697 215.5L457.752 215.469L457.806 215.437L457.862 215.405L457.917 215.373L457.973 215.341L458.03 215.308L458.087 215.275L458.144 215.242L458.202 215.209L458.26 215.175L458.319 215.141L458.378 215.107L458.437 215.073L458.497 215.039L458.557 215.004L458.618 214.969L458.679 214.934L458.74 214.898L458.802 214.862L458.864 214.827L458.926 214.79L458.989 214.754L459.053 214.718L459.116 214.681L459.181 214.644L459.245 214.607L459.31 214.569L459.375 214.531L459.441 214.494L459.507 214.455L459.573 214.417L459.64 214.379L459.707 214.34L459.774 214.301L459.842 214.262L459.91 214.223L459.978 214.183L460.047 214.143L460.116 214.103L460.186 214.063L460.256 214.023L460.326 213.982L460.397 213.942L460.467 213.901L460.539 213.86L460.61 213.818L460.682 213.777L460.754 213.735L460.827 213.693L460.9 213.651L460.973 213.609L461.046 213.567L461.12 213.524L461.194 213.481L461.269 213.438L461.343 213.395L461.418 213.352L461.494 213.308L461.569 213.265L461.645 213.221L461.721 213.177L461.798 213.133L461.875 213.088L461.952 213.044L462.029 212.999L462.107 212.954L462.185 212.909L462.263 212.864L462.342 212.819L462.421 212.773L462.5 212.727L462.579 212.682L462.659 212.636L462.739 212.59L462.819 212.543L462.899 212.497L462.98 212.45L463.061 212.404L463.142 212.357L463.223 212.31L463.305 212.262L463.387 212.215L463.469 212.168L463.552 212.12L463.634 212.072L463.717 212.024L463.801 211.976L463.884 211.928L463.968 211.88L464.051 211.832L464.136 211.783L464.22 211.734L464.304 211.685L464.389 211.637L464.474 211.587L464.559 211.538L464.645 211.489L464.731 211.439L464.816 211.39L464.902 211.34L464.989 211.29L465.075 211.24L465.162 211.19L465.249 211.14L465.336 211.09L465.423 211.04L465.511 210.989L465.598 210.939L465.686 210.888L465.774 210.837L465.862 210.786L465.951 210.735L466.039 210.684L466.128 210.633L466.217 210.581L466.306 210.53L466.395 210.478L466.485 210.427L466.574 210.375L466.664 210.323L466.754 210.271L466.844 210.219L466.934 210.167L467.025 210.115L467.115 210.063L467.206 210.01L467.297 209.958L467.388 209.905L467.479 209.853L467.57 209.8L467.661 209.747L467.753 209.694L467.845 209.642L467.936 209.589L468.028 209.535L468.12 209.482L468.213 209.429L468.305 209.376L468.397 209.322L468.49 209.269L468.583 209.216L468.675 209.162L468.768 209.108L468.861 209.055L468.954 209.001L469.047 208.947L469.141 208.893L469.234 208.839L469.328 208.785L469.421 208.731L469.515 208.677L469.609 208.623L469.703 208.569L469.796 208.515L469.891 208.46L469.985 208.406L470.079 208.352L470.173 208.297L470.267 208.243L470.362 208.188L470.456 208.134L470.551 208.079L470.645 208.024L470.74 207.97L470.835 207.915L470.93 207.86L471.025 207.806L471.119 207.751L471.214 207.696L471.309 207.641L471.404 207.586L471.5 207.531L471.595 207.476L471.69 207.421L471.785 207.367L471.88 207.312L471.976 207.256L472.071 207.201L472.166 207.146L472.262 207.091L472.357 207.036L472.453 206.981L472.548 206.926L472.643 206.871L472.739 206.816L472.834 206.761L472.93 206.706L473.025 206.65L473.121 206.595L473.216 206.54L473.312 206.485L473.407 206.43L473.503 206.375L473.598 206.32L473.694 206.264L473.789 206.209L473.885 206.154L473.98 206.099L474.076 206.044L474.171 205.989L474.267 205.934L474.362 205.879L474.457 205.824L474.553 205.769L474.648 205.714L474.743 205.659L474.838 205.604L474.934 205.549L475.029 205.494L475.124 205.439L475.219 205.384L475.314 205.329L475.409 205.274L475.504 205.219L475.599 205.165L475.694 205.11L475.788 205.055L475.883 205.001L475.978 204.946L476.072 204.891L476.167 204.837L476.261 204.782L476.355 204.728L476.45 204.673L476.544 204.619L476.638 204.565L476.732 204.51L476.826 204.456L476.92 204.402L477.014 204.348L477.107 204.294L477.201 204.24L477.295 204.186L477.388 204.132L477.481 204.078L477.575 204.024L477.668 203.97L477.761 203.917L477.854 203.863L477.946 203.809L478.039 203.756L478.132 203.702L478.224 203.649L478.316 203.596L478.409 203.542L478.501 203.489L478.593 203.436L478.684 203.383L478.776 203.33L478.868 203.277L478.959 203.225L479.05 203.172L479.142 203.119L479.233 203.067L479.323 203.014L479.414 202.962L479.505 202.91L479.595 202.857L479.685 202.805L479.775 202.753L479.865 202.701L479.955 202.649L480.045 202.598L480.134 202.546L480.224 202.495L480.313 202.443L480.402 202.392L480.49 202.34L480.579 202.289L480.667 202.238L480.756 202.187L480.844 202.136L480.932 202.086L481.019 202.035L481.107 201.985L481.194 201.934L481.281 201.884L481.368 201.834L481.455 201.784L481.541 201.734L481.628 201.684L481.714 201.634L481.8 201.585L481.885 201.535L481.971 201.486L482.056 201.437L482.141 201.387L482.226 201.338L482.311 201.29L482.395 201.241L482.479 201.192L482.563 201.144L482.647 201.096L482.73 201.047L482.813 200.999L482.896 200.951L482.979 200.904L483.062 200.856L483.144 200.809L483.226 200.761L483.308 200.714L483.389 200.667L483.47 200.62L483.551 200.573L483.632 200.527L483.713 200.48L483.793 200.434L483.873 200.388L483.952 200.342L484.032 200.296L484.111 200.25L484.19 200.205L484.268 200.159L484.347 200.114L484.425 200.069L484.503 200.024L484.58 199.979L484.657 199.935L484.734 199.89L484.811 199.846L484.887 199.802L484.963 199.758L485.039 199.715L485.114 199.671L485.189 199.628L485.264 199.584L485.338 199.541L485.413 199.499L485.486 199.456L485.56 199.414L485.633 199.371L485.706 199.329L485.779 199.287L485.851 199.246L485.923 199.204L485.995 199.163L486.066 199.122L486.137 199.081L486.207 199.04L486.278 198.999L486.348 198.959L486.417 198.919L486.486 198.879L486.555 198.839L486.624 198.799L486.692 198.76L486.76 198.721L486.827 198.682L486.894 198.643L486.961 198.605L487.028 198.566L487.094 198.528L487.159 198.49L487.225 198.453L487.289 198.415L487.354 198.378L487.418 198.341L487.482 198.304L487.545 198.267L487.608 198.231L487.671 198.195L487.733 198.159L487.795 198.123L487.857 198.088L487.918 198.052L487.978 198.017L488.039 197.982L488.099 197.948L488.158 197.914L488.217 197.879L488.276 197.846L488.334 197.812L488.392 197.779L488.449 197.745L488.506 197.713L488.563 197.68L488.619 197.647L488.675 197.615L488.73 197.583L488.785 197.552L488.839 197.52L488.893 197.489L488.947 197.458L489 197.427L489.053 197.397L489.105 197.367L489.157 197.337L489.208 197.307L489.259 197.278L489.31 197.249L489.36 197.22L489.409 197.191L489.458 197.163L489.507 197.135L489.555 197.107L489.603 197.08L489.65 197.052L489.697 197.025L489.743 196.999L489.789 196.972L489.834 196.946L489.879 196.92L489.923 196.894L489.967 196.869L490.011 196.844L490.054 196.819L490.096 196.795L490.138 196.77L490.179 196.747L490.22 196.723L490.261 196.7L490.301 196.676L490.34 196.654C498.171 192.133 507.93 192.561 517.422 197.005C526.912 201.448 536.086 209.889 542.669 221.29C549.252 232.691 551.974 244.857 551.077 255.297C550.18 265.739 545.671 274.405 537.84 278.926L537.801 278.949L537.761 278.972L537.72 278.995L537.679 279.019L537.638 279.043L537.596 279.067L537.554 279.092L537.511 279.116L537.467 279.141L537.423 279.167L537.379 279.192L537.334 279.218L537.289 279.244L537.243 279.271L537.197 279.298L537.15 279.325L537.103 279.352L537.055 279.379L537.007 279.407L536.958 279.435L536.909 279.464L536.86 279.492L536.81 279.521L536.759 279.55L536.708 279.58L536.657 279.609L536.605 279.639L536.553 279.669L536.5 279.7L536.447 279.731L536.393 279.761L536.339 279.793L536.285 279.824L536.23 279.856L536.175 279.888L536.119 279.92L536.063 279.952L536.006 279.985L535.949 280.018L535.892 280.051L535.834 280.084L535.776 280.118L535.717 280.152L535.658 280.186L535.599 280.22L535.539 280.255L535.478 280.29L535.418 280.325L535.357 280.36L535.295 280.395L535.233 280.431L535.171 280.467L535.108 280.503L535.045 280.54L534.982 280.576L534.918 280.613L534.854 280.65L534.789 280.687L534.725 280.725L534.659 280.763L534.594 280.801L534.528 280.839L534.461 280.877L534.394 280.916L534.327 280.954L534.26 280.993L534.192 281.032L534.124 281.072L534.055 281.111L533.986 281.151L533.917 281.191L533.848 281.231L533.778 281.272L533.707 281.312L533.637 281.353L533.566 281.394L533.495 281.435L533.423 281.476L533.351 281.518L533.279 281.56L533.206 281.602L533.133 281.644L533.06 281.686L532.986 281.728L532.913 281.771L532.838 281.814L532.764 281.857L532.689 281.9L532.614 281.943L532.539 281.987L532.463 282.031L532.387 282.075L532.311 282.119L532.234 282.163L532.157 282.207L532.08 282.252L532.003 282.296L531.925 282.341L531.847 282.386L531.768 282.432L531.69 282.477L531.611 282.523L531.532 282.568L531.452 282.614L531.373 282.66L531.293 282.706L531.213 282.753L531.132 282.799L531.051 282.846L530.97 282.892L530.889 282.939L530.808 282.986L530.726 283.034L530.644 283.081L530.562 283.128L530.479 283.176L530.396 283.224L530.313 283.272L530.23 283.32L530.147 283.368L530.063 283.416L529.979 283.465L529.895 283.513L529.811 283.562L529.726 283.611L529.641 283.66L529.556 283.709L529.471 283.758L529.385 283.808L529.3 283.857L529.214 283.907L529.128 283.956L529.041 284.006L528.955 284.056L528.868 284.106L528.781 284.156L528.694 284.207L528.607 284.257L528.519 284.308L528.432 284.358L528.344 284.409L528.256 284.46L528.167 284.511L528.079 284.562L527.99 284.613L527.902 284.664L527.813 284.715L527.724 284.767L527.634 284.818L527.545 284.87L527.455 284.922L527.365 284.974L527.275 285.026L527.185 285.078L527.095 285.13L527.005 285.182L526.914 285.234L526.823 285.287L526.733 285.339L526.642 285.392L526.55 285.444L526.459 285.497L526.368 285.55L526.276 285.603L526.184 285.656L526.093 285.709L526.001 285.762L525.909 285.815L525.816 285.868L525.724 285.921L525.632 285.975L525.539 286.028L525.446 286.082L525.354 286.135L525.261 286.189L525.168 286.243L525.075 286.296L524.981 286.35L524.888 286.404L524.795 286.458L524.701 286.512L524.607 286.566L524.514 286.62L524.42 286.674L524.326 286.729L524.232 286.783L524.138 286.837L524.044 286.891L523.95 286.946L523.855 287L523.761 287.055L523.667 287.109L523.572 287.164L523.478 287.218L523.383 287.273L523.288 287.328L523.194 287.382L523.099 287.437L523.004 287.492L522.909 287.547L522.814 287.602L522.719 287.656L522.624 287.711L522.529 287.766L522.434 287.821L522.338 287.876L522.243 287.931L522.148 287.986L522.053 288.041L521.957 288.096L521.862 288.151L521.767 288.206L521.671 288.261L521.576 288.316L521.48 288.371L521.385 288.427L521.289 288.482L521.194 288.537L521.098 288.592L521.003 288.647L520.907 288.702L520.812 288.757L520.716 288.813L520.621 288.868L520.525 288.923L520.43 288.978L520.334 289.033L520.239 289.088L520.143 289.143L520.048 289.198L519.953 289.254L519.857 289.309L519.762 289.364L519.666 289.419L519.571 289.474L519.476 289.529L519.38 289.584L519.285 289.639L519.19 289.694L519.095 289.749L519 289.804L518.904 289.859L518.809 289.914L518.714 289.968L518.619 290.023L518.525 290.078L518.43 290.133L518.335 290.188L518.24 290.242L518.145 290.297L518.051 290.352L517.956 290.406L517.862 290.461L517.767 290.515L517.673 290.57L517.579 290.624L517.485 290.678L517.391 290.733L517.296 290.787L517.203 290.841L517.109 290.895L517.015 290.95L516.921 291.004L516.828 291.058L516.734 291.112L516.641 291.166L516.547 291.22L516.454 291.273L516.361 291.327L516.268 291.381L516.175 291.434L516.083 291.488L515.99 291.541L515.897 291.595L515.805 291.648L515.713 291.702L515.62 291.755L515.528 291.808L515.436 291.861L515.345 291.914L515.253 291.967L515.161 292.02L515.07 292.072L514.979 292.125L514.888 292.178L514.797 292.23L514.706 292.283L514.615 292.335L514.525 292.387L514.434 292.44L514.344 292.492L514.254 292.544L514.164 292.596L514.074 292.647L513.985 292.699L513.895 292.751L513.806 292.802L513.717 292.854L513.628 292.905L513.539 292.956L513.451 293.007L513.362 293.058L513.274 293.109L513.186 293.16L513.098 293.211L513.011 293.262L512.923 293.312L512.836 293.362L512.749 293.413L512.662 293.463L512.575 293.513L512.489 293.563L512.402 293.613L512.316 293.662L512.231 293.712L512.145 293.761L512.059 293.811L511.974 293.86L511.889 293.909L511.804 293.958L511.72 294.007L511.636 294.055L511.551 294.104L511.468 294.152L511.384 294.201L511.301 294.249L511.217 294.297L511.134 294.345L511.052 294.392L510.969 294.44L510.887 294.488L510.805 294.535L510.723 294.582L510.642 294.629L510.561 294.676L510.48 294.723L510.399 294.769L510.319 294.816L510.239 294.862L510.159 294.908L510.079 294.954L510 295L509.921 295.046L509.842 295.091L509.763 295.136L509.685 295.182L509.607 295.227L509.529 295.271L509.452 295.316L509.375 295.361L509.298 295.405L509.221 295.449L509.145 295.493L509.069 295.537L508.994 295.581L508.918 295.624L508.843 295.668L508.769 295.711L508.694 295.754L508.62 295.796L508.546 295.839L508.473 295.881L508.4 295.924L508.327 295.966L508.254 296.008L508.182 296.049L508.11 296.091L508.039 296.132L507.967 296.173L507.897 296.214L507.826 296.255L507.756 296.295L507.686 296.336L507.616 296.376L507.547 296.416L507.478 296.455L507.41 296.495L507.342 296.534L507.274 296.573L507.207 296.612L507.14 296.651L507.073 296.69L507.007 296.728L506.941 296.766L506.875 296.804L506.81 296.841L506.745 296.879L506.681 296.916L506.616 296.953L506.553 296.99L506.489 297.027L506.426 297.063L506.364 297.099L506.302 297.135L506.24 297.171L506.179 297.206L506.118 297.241L506.057 297.276L505.997 297.311L505.937 297.345L505.878 297.38L505.819 297.414L505.76 297.448L505.702 297.481L505.644 297.515L505.587 297.548L505.53 297.581L505.473 297.613L505.417 297.645L505.362 297.678L505.306 297.71L505.252 297.741L505.197 297.773L505.143 297.804L505.09 297.835L505.037 297.865L504.984 297.896L504.932 297.926L504.88 297.956L504.829 297.985L504.778 298.014L504.728 298.044L504.678 298.072L504.629 298.101L504.58 298.129L504.531 298.157L504.483 298.185L504.435 298.212L504.388 298.24L504.341 298.267L504.295 298.293L504.25 298.32L504.204 298.346L504.16 298.372L504.115 298.397L504.071 298.422L504.028 298.448L503.985 298.472L503.943 298.497L503.901 298.521L503.86 298.545L503.819 298.568L503.779 298.592L503.739 298.615L503.699 298.637L503.661 298.66L503.622 298.682L503.585 298.704L503.547 298.725L503.51 298.746L503.474 298.767L503.438 298.788L503.403 298.808L503.369 298.828L503.334 298.848L503.301 298.867L503.268 298.887L503.235 298.905L503.203 298.924L503.172 298.942L503.141 298.96L503.11 298.977L503.08 298.995L503.051 299.012L503.022 299.028L502.994 299.045L502.966 299.061L502.939 299.076L502.913 299.091L502.887 299.106L502.861 299.121L502.837 299.135L502.812 299.15L502.789 299.163L502.765 299.177L502.743 299.19L502.721 299.202L502.699 299.215L502.679 299.227L502.658 299.238L502.639 299.25L502.62 299.261L502.601 299.271L502.583 299.282L502.566 299.292L502.549 299.301L502.533 299.311L502.518 299.319L502.503 299.328L502.489 299.336L502.475 299.344L502.462 299.352L502.45 299.359L502.438 299.366L502.427 299.372L502.416 299.378L502.406 299.384L502.397 299.389L502.388 299.394L502.38 299.399L502.373 299.403L502.366 299.407L502.36 299.411L502.354 299.414L502.349 299.417L502.345 299.419L502.341 299.421L502.338 299.423L502.336 299.424L502.334 299.425L502.333 299.426C502.333 299.426 502.333 299.426 502.583 299.859L502.333 299.426Z" fill="#6F47C2" stroke="black"/>
<path d="M495.112 211.539C485.79 199.176 475.013 155.305 474.711 134.59C474.661 131.162 475.819 126.485 494.307 118.407C517.417 108.311 552.658 133.41 574.785 147.146C596.912 160.881 631.171 213.599 617.37 235.092C603.57 256.585 608.809 276.021 609.326 302.494C609.448 308.706 605.599 316.226 605.599 316.226C605.599 316.226 603.52 321.413 599.39 325.333C587.75 336.381 571.098 326.769 563.512 314.879C550.044 293.77 541.018 268.353 529.716 251.614C518.414 234.876 506.765 226.994 495.112 211.539Z" fill="#2B2B2B" fill-opacity="0.28"/>
<path d="M494.307 118.407C517.417 108.311 552.658 133.41 574.785 147.146C596.912 160.881 631.171 213.599 617.37 235.092C603.57 256.585 608.809 276.021 609.326 302.494C609.448 308.706 605.599 316.226 605.599 316.226M494.307 118.407C475.819 126.485 474.661 131.162 474.711 134.59C475.013 155.305 485.79 199.176 495.112 211.539C506.765 226.994 518.414 234.876 529.716 251.614C541.018 268.353 550.044 293.77 563.512 314.879C571.098 326.769 587.75 336.381 599.39 325.333C603.52 321.413 605.599 316.226 605.599 316.226M494.307 118.407C496.99 139.762 504.51 186.204 513.131 201.136C521.752 216.068 532.714 226.101 544.868 242.866C564.114 269.412 567.069 299.615 585.219 317.811C595.09 327.706 605.599 316.226 605.599 316.226" stroke="black"/>
<path d="M500.954 258.885C500.183 258.581 499.312 258.959 499.008 259.729L494.05 272.286C493.746 273.057 494.124 273.928 494.894 274.232C495.665 274.536 496.536 274.158 496.84 273.388L501.247 262.226L512.409 266.633C513.179 266.937 514.051 266.559 514.355 265.789C514.659 265.018 514.281 264.147 513.51 263.843L500.954 258.885ZM605.403 502.28L604.027 502.877L604.419 503.78H605.403V502.28ZM658.403 503.78C659.231 503.78 659.903 503.109 659.903 502.28C659.903 501.452 659.231 500.78 658.403 500.78V503.78ZM499.027 260.877L604.027 502.877L606.779 501.683L501.779 259.683L499.027 260.877ZM605.403 503.78H658.403V500.78H605.403V503.78Z" fill="black"/>
<path d="M360.115 327.46C359.386 327.067 358.476 327.339 358.083 328.068L351.676 339.951C351.282 340.68 351.555 341.59 352.284 341.983C353.013 342.377 353.923 342.104 354.316 341.375L360.011 330.812L370.574 336.508C371.303 336.901 372.213 336.628 372.606 335.899C372.999 335.17 372.727 334.26 371.998 333.867L360.115 327.46ZM431.857 570.78L430.42 571.21L430.74 572.28H431.857V570.78ZM658.403 572.28C659.231 572.28 659.903 571.609 659.903 570.78C659.903 569.952 659.231 569.28 658.403 569.28V572.28ZM357.966 329.21L430.42 571.21L433.294 570.35L360.84 328.35L357.966 329.21ZM431.857 572.28H658.403V569.28H431.857V572.28Z" fill="black"/>
<path d="M681.231 511.78V493.248H688.18C689.604 493.248 690.798 493.514 691.764 494.045C692.735 494.575 693.468 495.305 693.962 496.234C694.463 497.157 694.713 498.207 694.713 499.383C694.713 500.572 694.463 501.627 693.962 502.55C693.462 503.473 692.723 504.2 691.745 504.731C690.768 505.256 689.565 505.518 688.135 505.518H683.529V502.759H687.683C688.515 502.759 689.197 502.614 689.728 502.324C690.258 502.035 690.651 501.637 690.904 501.13C691.163 500.623 691.293 500.041 691.293 499.383C691.293 498.726 691.163 498.147 690.904 497.646C690.651 497.145 690.255 496.756 689.718 496.479C689.188 496.195 688.503 496.053 687.664 496.053H684.588V511.78H681.231ZM697.485 511.78V497.881H700.661V500.198H700.806C701.059 499.395 701.493 498.777 702.109 498.343C702.73 497.902 703.439 497.682 704.235 497.682C704.416 497.682 704.618 497.691 704.841 497.709C705.071 497.721 705.261 497.743 705.411 497.773V500.786C705.273 500.738 705.052 500.695 704.751 500.659C704.455 500.617 704.169 500.596 703.891 500.596C703.294 500.596 702.757 500.726 702.281 500.985C701.81 501.238 701.439 501.591 701.168 502.044C700.896 502.496 700.76 503.018 700.76 503.609V511.78H697.485ZM707.588 511.78V497.881H710.863V511.78H707.588ZM709.235 495.909C708.716 495.909 708.269 495.737 707.895 495.393C707.521 495.043 707.334 494.624 707.334 494.135C707.334 493.64 707.521 493.221 707.895 492.877C708.269 492.527 708.716 492.352 709.235 492.352C709.759 492.352 710.206 492.527 710.574 492.877C710.948 493.221 711.135 493.64 711.135 494.135C711.135 494.624 710.948 495.043 710.574 495.393C710.206 495.737 709.759 495.909 709.235 495.909ZM714.232 511.78V497.881H717.363V500.243H717.526C717.815 499.447 718.295 498.825 718.964 498.379C719.634 497.927 720.433 497.7 721.362 497.7C722.303 497.7 723.097 497.93 723.742 498.388C724.394 498.84 724.852 499.459 725.117 500.243H725.262C725.57 499.471 726.089 498.856 726.819 498.397C727.555 497.933 728.426 497.7 729.434 497.7C730.713 497.7 731.756 498.104 732.565 498.913C733.373 499.721 733.777 500.901 733.777 502.451V511.78H730.492V502.958C730.492 502.095 730.263 501.465 729.805 501.066C729.346 500.662 728.785 500.46 728.122 500.46C727.331 500.46 726.713 500.708 726.267 501.202C725.826 501.691 725.606 502.327 725.606 503.112V511.78H722.394V502.822C722.394 502.104 722.177 501.531 721.742 501.103C721.314 500.674 720.753 500.46 720.059 500.46C719.589 500.46 719.16 500.581 718.774 500.822C718.388 501.057 718.081 501.392 717.851 501.827C717.622 502.255 717.507 502.756 717.507 503.329V511.78H714.232ZM741.1 512.061C740.219 512.061 739.426 511.904 738.72 511.59C738.02 511.271 737.465 510.8 737.055 510.179C736.651 509.557 736.449 508.791 736.449 507.88C736.449 507.096 736.594 506.448 736.883 505.935C737.173 505.422 737.568 505.012 738.069 504.704C738.569 504.396 739.133 504.164 739.761 504.007C740.394 503.844 741.049 503.727 741.724 503.654C742.539 503.57 743.199 503.495 743.706 503.428C744.213 503.356 744.581 503.247 744.81 503.102C745.045 502.952 745.163 502.719 745.163 502.406V502.351C745.163 501.67 744.961 501.142 744.557 500.768C744.152 500.394 743.57 500.207 742.81 500.207C742.008 500.207 741.371 500.382 740.901 500.732C740.436 501.082 740.123 501.495 739.96 501.971L736.901 501.537C737.143 500.692 737.541 499.987 738.096 499.42C738.651 498.846 739.329 498.418 740.132 498.135C740.934 497.845 741.821 497.7 742.792 497.7C743.462 497.7 744.128 497.779 744.792 497.936C745.455 498.092 746.062 498.352 746.611 498.714C747.16 499.07 747.6 499.555 747.932 500.171C748.27 500.786 748.439 501.555 748.439 502.478V511.78H745.29V509.871H745.181C744.982 510.257 744.701 510.619 744.339 510.957C743.984 511.289 743.534 511.557 742.991 511.762C742.454 511.961 741.824 512.061 741.1 512.061ZM741.951 509.654C742.608 509.654 743.178 509.524 743.661 509.265C744.143 508.999 744.514 508.649 744.774 508.215C745.039 507.781 745.172 507.307 745.172 506.794V505.157C745.069 505.241 744.894 505.319 744.647 505.392C744.406 505.464 744.134 505.528 743.833 505.582C743.531 505.636 743.232 505.684 742.937 505.727C742.641 505.769 742.385 505.805 742.168 505.835C741.679 505.902 741.242 506.01 740.856 506.161C740.47 506.312 740.165 506.523 739.942 506.794C739.719 507.06 739.607 507.404 739.607 507.826C739.607 508.429 739.827 508.885 740.267 509.192C740.708 509.5 741.269 509.654 741.951 509.654ZM751.732 511.78V497.881H754.908V500.198H755.053C755.307 499.395 755.741 498.777 756.356 498.343C756.978 497.902 757.686 497.682 758.483 497.682C758.664 497.682 758.866 497.691 759.089 497.709C759.318 497.721 759.508 497.743 759.659 497.773V500.786C759.52 500.738 759.3 500.695 758.999 500.659C758.703 500.617 758.416 500.596 758.139 500.596C757.542 500.596 757.005 500.726 756.528 500.985C756.058 501.238 755.687 501.591 755.415 502.044C755.144 502.496 755.008 503.018 755.008 503.609V511.78H751.732ZM764.294 516.992C763.848 516.992 763.435 516.956 763.055 516.884C762.681 516.817 762.382 516.739 762.159 516.649L762.919 514.097C763.396 514.236 763.821 514.302 764.195 514.296C764.569 514.29 764.898 514.172 765.181 513.943C765.471 513.72 765.715 513.346 765.914 512.821L766.195 512.07L761.154 497.881H764.629L767.832 508.378H767.977L771.19 497.881H774.673L769.108 513.463C768.849 514.199 768.505 514.83 768.077 515.355C767.648 515.885 767.124 516.29 766.502 516.567C765.887 516.851 765.151 516.992 764.294 516.992ZM789.685 511.78H783.405V493.248H789.812C791.652 493.248 793.232 493.619 794.554 494.361C795.881 495.097 796.9 496.156 797.612 497.537C798.324 498.919 798.68 500.572 798.68 502.496C798.68 504.427 798.321 506.086 797.603 507.473C796.891 508.861 795.863 509.925 794.517 510.667C793.178 511.409 791.568 511.78 789.685 511.78ZM786.763 508.876H789.522C790.813 508.876 791.89 508.64 792.753 508.17C793.616 507.693 794.264 506.984 794.698 506.043C795.133 505.096 795.35 503.914 795.35 502.496C795.35 501.079 795.133 499.902 794.698 498.967C794.264 498.026 793.622 497.323 792.771 496.859C791.926 496.388 790.877 496.153 789.622 496.153H786.763V508.876ZM801.725 511.78V497.881H804.901V500.198H805.046C805.299 499.395 805.733 498.777 806.349 498.343C806.97 497.902 807.679 497.682 808.475 497.682C808.656 497.682 808.858 497.691 809.081 497.709C809.311 497.721 809.501 497.743 809.652 497.773V500.786C809.513 500.738 809.293 500.695 808.991 500.659C808.695 500.617 808.409 500.596 808.131 500.596C807.534 500.596 806.997 500.726 806.521 500.985C806.05 501.238 805.679 501.591 805.408 502.044C805.136 502.496 805 503.018 805 503.609V511.78H801.725ZM811.828 511.78V497.881H815.103V511.78H811.828ZM813.475 495.909C812.956 495.909 812.51 495.737 812.135 495.393C811.761 495.043 811.574 494.624 811.574 494.135C811.574 493.64 811.761 493.221 812.135 492.877C812.51 492.527 812.956 492.352 813.475 492.352C814 492.352 814.446 492.527 814.814 492.877C815.188 493.221 815.375 493.64 815.375 494.135C815.375 494.624 815.188 495.043 814.814 495.393C814.446 495.737 814 495.909 813.475 495.909ZM830.887 497.881L825.937 511.78H822.318L817.368 497.881H820.861L824.055 508.206H824.2L827.403 497.881H830.887ZM838.834 512.052C837.441 512.052 836.237 511.762 835.224 511.183C834.216 510.598 833.441 509.771 832.898 508.704C832.355 507.63 832.084 506.366 832.084 504.912C832.084 503.483 832.355 502.228 832.898 501.148C833.447 500.062 834.213 499.217 835.196 498.614C836.18 498.005 837.335 497.7 838.662 497.7C839.519 497.7 840.327 497.839 841.087 498.117C841.853 498.388 842.529 498.81 843.114 499.383C843.705 499.956 844.17 500.686 844.508 501.573C844.845 502.454 845.014 503.504 845.014 504.722V505.727H833.622V503.519H841.874C841.868 502.891 841.733 502.333 841.467 501.845C841.202 501.35 840.831 500.961 840.354 500.677C839.884 500.394 839.335 500.252 838.707 500.252C838.038 500.252 837.45 500.415 836.943 500.741C836.436 501.06 836.041 501.483 835.757 502.008C835.48 502.526 835.338 503.096 835.332 503.718V505.645C835.332 506.454 835.48 507.147 835.776 507.726C836.071 508.299 836.484 508.74 837.015 509.048C837.546 509.349 838.167 509.5 838.879 509.5C839.356 509.5 839.787 509.434 840.173 509.301C840.559 509.162 840.894 508.96 841.178 508.695C841.461 508.429 841.675 508.1 841.82 507.708L844.879 508.052C844.686 508.861 844.318 509.566 843.775 510.17C843.238 510.767 842.55 511.231 841.712 511.563C840.873 511.889 839.914 512.052 838.834 512.052ZM847.786 511.78V497.881H850.962V500.198H851.106C851.36 499.395 851.794 498.777 852.41 498.343C853.031 497.902 853.74 497.682 854.536 497.682C854.717 497.682 854.919 497.691 855.142 497.709C855.372 497.721 855.562 497.743 855.712 497.773V500.786C855.574 500.738 855.353 500.695 855.052 500.659C854.756 500.617 854.47 500.596 854.192 500.596C853.595 500.596 853.058 500.726 852.581 500.985C852.111 501.238 851.74 501.591 851.468 502.044C851.197 502.496 851.061 503.018 851.061 503.609V511.78H847.786Z" fill="black"/>
<path d="M691.302 566.343C691.218 565.553 690.862 564.937 690.234 564.497C689.613 564.056 688.805 563.836 687.809 563.836C687.109 563.836 686.509 563.942 686.008 564.153C685.508 564.364 685.125 564.651 684.859 565.013C684.594 565.375 684.458 565.788 684.452 566.252C684.452 566.638 684.54 566.973 684.714 567.257C684.895 567.54 685.14 567.782 685.447 567.981C685.755 568.174 686.096 568.337 686.47 568.469C686.844 568.602 687.221 568.714 687.601 568.804L689.338 569.238C690.038 569.401 690.711 569.621 691.356 569.899C692.008 570.176 692.59 570.526 693.103 570.949C693.622 571.371 694.032 571.881 694.333 572.478C694.635 573.075 694.786 573.775 694.786 574.577C694.786 575.663 694.508 576.619 693.953 577.446C693.398 578.266 692.596 578.909 691.546 579.373C690.503 579.832 689.239 580.061 687.755 580.061C686.313 580.061 685.061 579.838 684 579.391C682.944 578.945 682.117 578.293 681.52 577.437C680.929 576.58 680.609 575.536 680.561 574.306H683.864C683.912 574.951 684.111 575.488 684.461 575.916C684.811 576.345 685.266 576.664 685.827 576.876C686.395 577.087 687.028 577.192 687.728 577.192C688.458 577.192 689.097 577.084 689.646 576.867C690.201 576.643 690.635 576.336 690.949 575.944C691.263 575.545 691.423 575.081 691.429 574.55C691.423 574.067 691.281 573.669 691.003 573.356C690.726 573.036 690.337 572.77 689.836 572.559C689.341 572.342 688.762 572.149 688.099 571.98L685.99 571.437C684.464 571.045 683.258 570.451 682.371 569.655C681.49 568.852 681.05 567.788 681.05 566.46C681.05 565.369 681.345 564.412 681.937 563.592C682.534 562.772 683.345 562.135 684.371 561.683C685.396 561.224 686.557 560.995 687.854 560.995C689.17 560.995 690.322 561.224 691.311 561.683C692.306 562.135 693.088 562.765 693.655 563.574C694.222 564.376 694.514 565.299 694.532 566.343H691.302ZM703.787 580.052C702.394 580.052 701.19 579.762 700.177 579.183C699.169 578.598 698.394 577.771 697.851 576.704C697.308 575.63 697.037 574.366 697.037 572.912C697.037 571.483 697.308 570.228 697.851 569.148C698.4 568.062 699.166 567.217 700.15 566.614C701.133 566.005 702.288 565.7 703.615 565.7C704.472 565.7 705.28 565.839 706.04 566.117C706.806 566.388 707.482 566.81 708.067 567.383C708.658 567.956 709.123 568.686 709.461 569.573C709.799 570.454 709.967 571.504 709.967 572.722V573.727H698.575V571.519H706.828C706.822 570.891 706.686 570.333 706.42 569.845C706.155 569.35 705.784 568.961 705.307 568.677C704.837 568.394 704.288 568.252 703.66 568.252C702.991 568.252 702.403 568.415 701.896 568.741C701.389 569.06 700.994 569.483 700.711 570.008C700.433 570.526 700.291 571.096 700.285 571.718V573.645C700.285 574.454 700.433 575.147 700.729 575.726C701.024 576.299 701.437 576.74 701.968 577.048C702.499 577.349 703.121 577.5 703.832 577.5C704.309 577.5 704.74 577.434 705.126 577.301C705.512 577.162 705.847 576.96 706.131 576.695C706.414 576.429 706.628 576.1 706.773 575.708L709.832 576.052C709.639 576.861 709.271 577.566 708.728 578.17C708.191 578.767 707.503 579.231 706.665 579.563C705.826 579.889 704.867 580.052 703.787 580.052ZM718.801 580.052C717.414 580.052 716.222 579.747 715.227 579.138C714.238 578.529 713.475 577.687 712.938 576.613C712.407 575.533 712.141 574.291 712.141 572.885C712.141 571.473 712.413 570.228 712.956 569.148C713.499 568.062 714.265 567.217 715.254 566.614C716.25 566.005 717.426 565.7 718.783 565.7C719.911 565.7 720.91 565.908 721.778 566.325C722.653 566.735 723.35 567.317 723.869 568.071C724.388 568.819 724.683 569.694 724.756 570.695H721.625C721.498 570.026 721.196 569.468 720.72 569.021C720.249 568.569 719.619 568.343 718.829 568.343C718.159 568.343 717.571 568.524 717.064 568.885C716.557 569.241 716.162 569.754 715.879 570.424C715.601 571.093 715.462 571.896 715.462 572.831C715.462 573.778 715.601 574.592 715.879 575.274C716.156 575.95 716.545 576.471 717.046 576.839C717.553 577.201 718.147 577.382 718.829 577.382C719.311 577.382 719.742 577.292 720.123 577.111C720.509 576.924 720.831 576.655 721.091 576.306C721.35 575.956 721.528 575.53 721.625 575.03H724.756C724.677 576.013 724.388 576.885 723.887 577.645C723.386 578.399 722.704 578.99 721.842 579.418C720.979 579.841 719.966 580.052 718.801 580.052ZM733.508 580.052C732.151 580.052 730.974 579.753 729.979 579.156C728.984 578.559 728.211 577.723 727.662 576.649C727.12 575.576 726.848 574.321 726.848 572.885C726.848 571.449 727.12 570.192 727.662 569.112C728.211 568.032 728.984 567.193 729.979 566.596C730.974 565.999 732.151 565.7 733.508 565.7C734.865 565.7 736.042 565.999 737.037 566.596C738.032 567.193 738.802 568.032 739.344 569.112C739.893 570.192 740.168 571.449 740.168 572.885C740.168 574.321 739.893 575.576 739.344 576.649C738.802 577.723 738.032 578.559 737.037 579.156C736.042 579.753 734.865 580.052 733.508 580.052ZM733.526 577.428C734.262 577.428 734.877 577.225 735.372 576.821C735.867 576.411 736.235 575.862 736.476 575.174C736.723 574.487 736.847 573.721 736.847 572.876C736.847 572.025 736.723 571.256 736.476 570.569C736.235 569.875 735.867 569.323 735.372 568.913C734.877 568.502 734.262 568.297 733.526 568.297C732.772 568.297 732.145 568.502 731.644 568.913C731.149 569.323 730.778 569.875 730.531 570.569C730.29 571.256 730.169 572.025 730.169 572.876C730.169 573.721 730.29 574.487 730.531 575.174C730.778 575.862 731.149 576.411 731.644 576.821C732.145 577.225 732.772 577.428 733.526 577.428ZM746.224 571.636V579.78H742.948V565.881H746.079V568.243H746.242C746.562 567.465 747.071 566.846 747.771 566.388C748.477 565.93 749.349 565.7 750.386 565.7C751.345 565.7 752.181 565.905 752.893 566.316C753.611 566.726 754.166 567.32 754.558 568.098C754.956 568.876 755.152 569.821 755.146 570.931V579.78H751.87V571.437C751.87 570.508 751.629 569.781 751.146 569.256C750.67 568.732 750.009 568.469 749.165 568.469C748.592 568.469 748.082 568.596 747.635 568.849C747.195 569.097 746.848 569.456 746.595 569.926C746.348 570.397 746.224 570.967 746.224 571.636ZM763.634 580.025C762.542 580.025 761.565 579.744 760.702 579.183C759.839 578.622 759.158 577.808 758.657 576.74C758.156 575.672 757.906 574.375 757.906 572.849C757.906 571.305 758.159 570.002 758.666 568.94C759.179 567.872 759.869 567.067 760.738 566.524C761.607 565.975 762.575 565.7 763.643 565.7C764.457 565.7 765.127 565.839 765.652 566.117C766.177 566.388 766.593 566.717 766.9 567.103C767.208 567.483 767.446 567.842 767.615 568.18H767.751V561.248H771.036V579.78H767.814V577.59H767.615C767.446 577.928 767.202 578.287 766.882 578.667C766.563 579.041 766.14 579.361 765.615 579.626C765.091 579.892 764.43 580.025 763.634 580.025ZM764.548 577.337C765.241 577.337 765.833 577.15 766.321 576.776C766.81 576.396 767.181 575.868 767.434 575.193C767.688 574.517 767.814 573.73 767.814 572.831C767.814 571.932 767.688 571.151 767.434 570.487C767.187 569.824 766.819 569.308 766.33 568.94C765.848 568.572 765.254 568.388 764.548 568.388C763.818 568.388 763.209 568.578 762.72 568.958C762.231 569.338 761.863 569.863 761.616 570.532C761.369 571.202 761.245 571.968 761.245 572.831C761.245 573.699 761.369 574.475 761.616 575.156C761.869 575.832 762.24 576.366 762.729 576.758C763.224 577.144 763.83 577.337 764.548 577.337ZM778.526 580.061C777.645 580.061 776.852 579.904 776.146 579.59C775.446 579.271 774.891 578.8 774.481 578.179C774.077 577.557 773.875 576.791 773.875 575.88C773.875 575.096 774.02 574.448 774.309 573.935C774.599 573.422 774.994 573.012 775.495 572.704C775.995 572.396 776.559 572.164 777.187 572.007C777.82 571.844 778.475 571.727 779.15 571.654C779.965 571.57 780.625 571.495 781.132 571.428C781.639 571.356 782.007 571.247 782.236 571.102C782.471 570.952 782.589 570.719 782.589 570.406V570.351C782.589 569.67 782.387 569.142 781.983 568.768C781.578 568.394 780.996 568.207 780.236 568.207C779.434 568.207 778.797 568.382 778.327 568.732C777.862 569.082 777.549 569.495 777.386 569.971L774.327 569.537C774.569 568.692 774.967 567.987 775.522 567.42C776.077 566.846 776.755 566.418 777.558 566.135C778.36 565.845 779.247 565.7 780.218 565.7C780.888 565.7 781.554 565.779 782.218 565.936C782.881 566.092 783.488 566.352 784.037 566.714C784.586 567.07 785.026 567.555 785.358 568.171C785.696 568.786 785.864 569.555 785.864 570.478V579.78H782.715V577.871H782.607C782.408 578.257 782.127 578.619 781.765 578.957C781.409 579.289 780.96 579.557 780.417 579.762C779.88 579.961 779.25 580.061 778.526 580.061ZM779.376 577.654C780.034 577.654 780.604 577.524 781.087 577.265C781.569 576.999 781.94 576.649 782.2 576.215C782.465 575.781 782.598 575.307 782.598 574.794V573.157C782.495 573.241 782.32 573.319 782.073 573.392C781.832 573.464 781.56 573.528 781.259 573.582C780.957 573.636 780.658 573.684 780.363 573.727C780.067 573.769 779.811 573.805 779.594 573.835C779.105 573.902 778.668 574.01 778.282 574.161C777.895 574.312 777.591 574.523 777.368 574.794C777.144 575.06 777.033 575.404 777.033 575.826C777.033 576.429 777.253 576.885 777.693 577.192C778.134 577.5 778.695 577.654 779.376 577.654ZM789.158 579.78V565.881H792.334V568.198H792.479C792.733 567.395 793.167 566.777 793.782 566.343C794.404 565.902 795.112 565.682 795.909 565.682C796.09 565.682 796.292 565.691 796.515 565.709C796.744 565.721 796.934 565.743 797.085 565.773V568.786C796.946 568.738 796.726 568.695 796.424 568.659C796.129 568.617 795.842 568.596 795.565 568.596C794.968 568.596 794.431 568.726 793.954 568.985C793.484 569.238 793.113 569.591 792.841 570.044C792.57 570.496 792.434 571.018 792.434 571.609V579.78H789.158ZM801.72 584.992C801.274 584.992 800.861 584.956 800.481 584.884C800.107 584.817 799.808 584.739 799.585 584.649L800.345 582.097C800.821 582.236 801.247 582.302 801.621 582.296C801.995 582.29 802.324 582.172 802.607 581.943C802.897 581.72 803.141 581.346 803.34 580.821L803.621 580.07L798.58 565.881H802.055L805.258 576.378H805.403L808.615 565.881H812.099L806.534 581.463C806.275 582.199 805.931 582.83 805.503 583.355C805.074 583.885 804.55 584.29 803.928 584.567C803.313 584.851 802.577 584.992 801.72 584.992ZM827.111 579.78H820.831V561.248H827.238C829.078 561.248 830.658 561.619 831.98 562.361C833.307 563.097 834.326 564.156 835.038 565.537C835.75 566.919 836.106 568.572 836.106 570.496C836.106 572.427 835.747 574.086 835.029 575.473C834.317 576.861 833.289 577.925 831.943 578.667C830.604 579.409 828.993 579.78 827.111 579.78ZM824.189 576.876H826.948C828.239 576.876 829.316 576.64 830.179 576.17C831.041 575.693 831.69 574.984 832.124 574.043C832.559 573.096 832.776 571.914 832.776 570.496C832.776 569.079 832.559 567.902 832.124 566.967C831.69 566.026 831.048 565.323 830.197 564.859C829.352 564.388 828.303 564.153 827.048 564.153H824.189V576.876ZM839.151 579.78V565.881H842.327V568.198H842.472C842.725 567.395 843.159 566.777 843.775 566.343C844.396 565.902 845.105 565.682 845.901 565.682C846.082 565.682 846.284 565.691 846.507 565.709C846.737 565.721 846.927 565.743 847.078 565.773V568.786C846.939 568.738 846.719 568.695 846.417 568.659C846.121 568.617 845.835 568.596 845.557 568.596C844.96 568.596 844.423 568.726 843.947 568.985C843.476 569.238 843.105 569.591 842.834 570.044C842.562 570.496 842.426 571.018 842.426 571.609V579.78H839.151ZM849.254 579.78V565.881H852.529V579.78H849.254ZM850.901 563.909C850.382 563.909 849.935 563.737 849.561 563.393C849.187 563.043 849 562.624 849 562.135C849 561.64 849.187 561.221 849.561 560.877C849.935 560.527 850.382 560.352 850.901 560.352C851.425 560.352 851.872 560.527 852.24 560.877C852.614 561.221 852.801 561.64 852.801 562.135C852.801 562.624 852.614 563.043 852.24 563.393C851.872 563.737 851.425 563.909 850.901 563.909ZM868.313 565.881L863.363 579.78H859.744L854.794 565.881H858.287L861.481 576.206H861.626L864.829 565.881H868.313ZM876.26 580.052C874.866 580.052 873.663 579.762 872.649 579.183C871.642 578.598 870.867 577.771 870.324 576.704C869.781 575.63 869.51 574.366 869.51 572.912C869.51 571.483 869.781 570.228 870.324 569.148C870.873 568.062 871.639 567.217 872.622 566.614C873.606 566.005 874.761 565.7 876.088 565.7C876.945 565.7 877.753 565.839 878.513 566.117C879.279 566.388 879.955 566.81 880.54 567.383C881.131 567.956 881.596 568.686 881.934 569.573C882.271 570.454 882.44 571.504 882.44 572.722V573.727H871.048V571.519H879.3C879.294 570.891 879.159 570.333 878.893 569.845C878.628 569.35 878.257 568.961 877.78 568.677C877.31 568.394 876.761 568.252 876.133 568.252C875.464 568.252 874.875 568.415 874.369 568.741C873.862 569.06 873.467 569.483 873.183 570.008C872.906 570.526 872.764 571.096 872.758 571.718V573.645C872.758 574.454 872.906 575.147 873.201 575.726C873.497 576.299 873.91 576.74 874.441 577.048C874.972 577.349 875.593 577.5 876.305 577.5C876.782 577.5 877.213 577.434 877.599 577.301C877.985 577.162 878.32 576.96 878.604 576.695C878.887 576.429 879.101 576.1 879.246 575.708L882.305 576.052C882.112 576.861 881.744 577.566 881.201 578.17C880.664 578.767 879.976 579.231 879.137 579.563C878.299 579.889 877.34 580.052 876.26 580.052ZM885.212 579.78V565.881H888.388V568.198H888.532C888.786 567.395 889.22 566.777 889.835 566.343C890.457 565.902 891.166 565.682 891.962 565.682C892.143 565.682 892.345 565.691 892.568 565.709C892.797 565.721 892.987 565.743 893.138 565.773V568.786C893 568.738 892.779 568.695 892.478 568.659C892.182 568.617 891.896 568.596 891.618 568.596C891.021 568.596 890.484 568.726 890.007 568.985C889.537 569.238 889.166 569.591 888.894 570.044C888.623 570.496 888.487 571.018 888.487 571.609V579.78H885.212Z" fill="black"/>
<path d="M652.588 77.2483V95.7803H649.231V77.2483H652.588ZM659.354 87.6363V95.7803H656.078V81.8813H659.209V84.243H659.372C659.692 83.4648 660.202 82.8465 660.901 82.388C661.607 81.9295 662.479 81.7003 663.517 81.7003C664.476 81.7003 665.311 81.9054 666.023 82.3156C666.741 82.7258 667.296 83.32 667.688 84.0982C668.086 84.8764 668.282 85.8205 668.276 86.9305V95.7803H665.001V87.4373C665.001 86.5082 664.759 85.7813 664.277 85.2565C663.8 84.7317 663.139 84.4692 662.295 84.4692C661.722 84.4692 661.212 84.5959 660.766 84.8493C660.325 85.0966 659.978 85.4556 659.725 85.9261C659.478 86.3966 659.354 86.9667 659.354 87.6363ZM680.031 86.7134V89.4099H671.688V86.7134H680.031ZM683.621 95.7803V77.2483H695.674V80.0625H686.978V85.0936H695.049V87.9078H686.978V92.9661H695.746V95.7803H683.621ZM702.954 96.0608C702.073 96.0608 701.28 95.9039 700.574 95.5902C699.874 95.2705 699.319 94.8 698.909 94.1786C698.505 93.5573 698.302 92.7911 698.302 91.8802C698.302 91.096 698.447 90.4475 698.737 89.9347C699.026 89.422 699.421 89.0118 699.922 88.7041C700.423 88.3964 700.987 88.1642 701.614 88.0073C702.248 87.8445 702.902 87.7268 703.578 87.6544C704.392 87.57 705.053 87.4946 705.56 87.4282C706.066 87.3558 706.434 87.2472 706.664 87.1025C706.899 86.9516 707.016 86.7194 707.016 86.4057V86.3514C707.016 85.6697 706.814 85.1419 706.41 84.7679C706.006 84.3938 705.424 84.2068 704.664 84.2068C703.861 84.2068 703.225 84.3818 702.754 84.7317C702.29 85.0815 701.976 85.4948 701.813 85.9713L698.755 85.537C698.996 84.6924 699.394 83.9866 699.949 83.4196C700.504 82.8465 701.183 82.4182 701.985 82.1346C702.788 81.8451 703.674 81.7003 704.646 81.7003C705.315 81.7003 705.982 81.7787 706.645 81.9356C707.309 82.0924 707.915 82.3518 708.464 82.7138C709.013 83.0697 709.454 83.5553 709.785 84.1706C710.123 84.786 710.292 85.5551 710.292 86.4781V95.7803H707.143V93.871H707.035C706.835 94.2571 706.555 94.619 706.193 94.9568C705.837 95.2886 705.388 95.5571 704.845 95.7622C704.308 95.9612 703.677 96.0608 702.954 96.0608ZM703.804 93.6538C704.462 93.6538 705.032 93.5241 705.514 93.2647C705.997 92.9993 706.368 92.6494 706.627 92.215C706.893 91.7807 707.026 91.3071 707.026 90.7944V89.1565C706.923 89.241 706.748 89.3194 706.501 89.3918C706.259 89.4642 705.988 89.5275 705.686 89.5818C705.385 89.6361 705.086 89.6844 704.79 89.7266C704.495 89.7688 704.238 89.805 704.021 89.8352C703.533 89.9016 703.095 90.0101 702.709 90.161C702.323 90.3118 702.019 90.5229 701.795 90.7944C701.572 91.0598 701.46 91.4037 701.46 91.8259C701.46 92.4292 701.681 92.8847 702.121 93.1923C702.561 93.5 703.122 93.6538 703.804 93.6538ZM713.586 95.7803V81.8813H716.762V84.1978H716.907C717.16 83.3955 717.595 82.7771 718.21 82.3428C718.831 81.9024 719.54 81.6822 720.336 81.6822C720.517 81.6822 720.719 81.6913 720.943 81.7094C721.172 81.7214 721.362 81.7425 721.513 81.7727V84.786C721.374 84.7377 721.154 84.6955 720.852 84.6593C720.557 84.617 720.27 84.5959 719.992 84.5959C719.395 84.5959 718.858 84.7256 718.382 84.985C717.911 85.2384 717.54 85.5913 717.269 86.0437C716.997 86.4962 716.862 87.018 716.862 87.6092V95.7803H713.586ZM734.674 85.5551L731.688 85.8809C731.604 85.5792 731.456 85.2957 731.245 85.0303C731.04 84.7648 730.762 84.5507 730.412 84.3878C730.062 84.2249 729.634 84.1435 729.127 84.1435C728.446 84.1435 727.872 84.2913 727.408 84.5869C726.95 84.8825 726.723 85.2655 726.729 85.7361C726.723 86.1403 726.871 86.469 727.173 86.7224C727.48 86.9758 727.987 87.1839 728.693 87.3468L731.064 87.8535C732.379 88.137 733.356 88.5865 733.996 89.2018C734.641 89.8171 734.967 90.6224 734.973 91.6178C734.967 92.4925 734.71 93.2647 734.204 93.9343C733.703 94.5979 733.006 95.1167 732.113 95.4907C731.221 95.8647 730.195 96.0517 729.037 96.0517C727.336 96.0517 725.966 95.6958 724.929 94.984C723.891 94.2661 723.273 93.2677 723.074 91.9888L726.268 91.6812C726.413 92.3085 726.72 92.7821 727.191 93.1018C727.661 93.4215 728.274 93.5814 729.028 93.5814C729.806 93.5814 730.43 93.4215 730.901 93.1018C731.377 92.7821 731.616 92.387 731.616 91.9164C731.616 91.5183 731.462 91.1895 731.154 90.9301C730.853 90.6707 730.382 90.4716 729.743 90.3329L727.372 89.8352C726.039 89.5577 725.052 89.0902 724.413 88.4326C723.773 87.769 723.457 86.9305 723.463 85.9171C723.457 85.0604 723.689 84.3184 724.159 83.691C724.636 83.0576 725.297 82.569 726.141 82.2251C726.992 81.8752 727.972 81.7003 729.082 81.7003C730.711 81.7003 731.993 82.0472 732.928 82.7409C733.869 83.4347 734.451 84.3727 734.674 85.5551ZM748.039 95.7803L742.809 77.2483H746.42L749.759 90.8668H749.931L753.496 77.2483H756.78L760.355 90.8758H760.518L763.857 77.2483H767.467L762.237 95.7803H758.925L755.215 82.7771H755.07L751.351 95.7803H748.039ZM769.65 95.7803V81.8813H772.926V95.7803H769.65ZM771.297 79.9086C770.778 79.9086 770.332 79.7367 769.958 79.3929C769.584 79.043 769.397 78.6237 769.397 78.1351C769.397 77.6404 769.584 77.2211 769.958 76.8773C770.332 76.5274 770.778 76.3525 771.297 76.3525C771.822 76.3525 772.268 76.5274 772.636 76.8773C773.01 77.2211 773.197 77.6404 773.197 78.1351C773.197 78.6237 773.01 79.043 772.636 79.3929C772.268 79.7367 771.822 79.9086 771.297 79.9086ZM783.235 81.8813V84.415H775.245V81.8813H783.235ZM777.217 78.5513H780.493V91.5997C780.493 92.0401 780.559 92.3779 780.692 92.6132C780.831 92.8424 781.012 92.9993 781.235 93.0837C781.458 93.1682 781.705 93.2104 781.977 93.2104C782.182 93.2104 782.369 93.1953 782.538 93.1652C782.713 93.135 782.846 93.1079 782.936 93.0837L783.488 95.6445C783.313 95.7049 783.063 95.7712 782.737 95.8436C782.417 95.916 782.025 95.9582 781.561 95.9703C780.74 95.9944 780.001 95.8708 779.344 95.5993C778.686 95.3218 778.164 94.8935 777.778 94.3144C777.398 93.7352 777.211 93.0113 777.217 92.1426V78.5513ZM789.549 87.6363V95.7803H786.273V77.2483H789.476V84.243H789.639C789.965 83.4588 790.468 82.8405 791.15 82.388C791.838 81.9295 792.713 81.7003 793.774 81.7003C794.74 81.7003 795.581 81.9024 796.299 82.3066C797.017 82.7108 797.572 83.3019 797.964 84.0801C798.362 84.8583 798.561 85.8085 798.561 86.9305V95.7803H795.285V87.4373C795.285 86.5022 795.044 85.7753 794.562 85.2565C794.085 84.7317 793.415 84.4692 792.553 84.4692C791.974 84.4692 791.455 84.5959 790.996 84.8493C790.544 85.0966 790.188 85.4556 789.929 85.9261C789.675 86.3966 789.549 86.9667 789.549 87.6363ZM815.722 77.2483V95.7803H812.365V80.5149H812.257L807.922 83.2838V80.2073L812.528 77.2483H815.722ZM833.209 95.7803H826.929V77.2483H833.336C835.176 77.2483 836.756 77.6193 838.077 78.3613C839.405 79.0973 840.424 80.156 841.136 81.5374C841.848 82.9189 842.204 84.5718 842.204 86.4962C842.204 88.4266 841.845 90.0855 841.127 91.473C840.415 92.8605 839.386 93.9253 838.041 94.6673C836.702 95.4093 835.091 95.7803 833.209 95.7803ZM830.286 92.8756H833.046C834.337 92.8756 835.414 92.6403 836.277 92.1698C837.139 91.6932 837.788 90.9844 838.222 90.0433C838.656 89.0962 838.874 87.9138 838.874 86.4962C838.874 85.0785 838.656 83.9022 838.222 82.9671C837.788 82.0261 837.145 81.3233 836.295 80.8588C835.45 80.3882 834.401 80.153 833.146 80.153H830.286V92.8756ZM847.285 100.992C846.838 100.992 846.425 100.956 846.045 100.884C845.671 100.817 845.372 100.739 845.149 100.649L845.909 98.0968C846.386 98.2355 846.811 98.3019 847.185 98.2958C847.559 98.2898 847.888 98.1722 848.171 97.9429C848.461 97.7197 848.705 97.3457 848.904 96.8209L849.185 96.0698L844.145 81.8813H847.619L850.823 92.3779H850.967L854.18 81.8813H857.664L852.098 97.4634C851.839 98.1993 851.495 98.8297 851.067 99.3546C850.639 99.8854 850.114 100.29 849.492 100.567C848.877 100.851 848.141 100.992 847.285 100.992ZM863.206 87.6363V95.7803H859.93V81.8813H863.061V84.243H863.224C863.544 83.4648 864.054 82.8465 864.753 82.388C865.459 81.9295 866.331 81.7003 867.368 81.7003C868.328 81.7003 869.163 81.9054 869.875 82.3156C870.593 82.7258 871.148 83.32 871.54 84.0982C871.938 84.8764 872.134 85.8205 872.128 86.9305V95.7803H868.852V87.4373C868.852 86.5082 868.611 85.7813 868.128 85.2565C867.652 84.7317 866.991 84.4692 866.147 84.4692C865.574 84.4692 865.064 84.5959 864.618 84.8493C864.177 85.0966 863.83 85.4556 863.577 85.9261C863.33 86.3966 863.206 86.9667 863.206 87.6363ZM879.458 96.0608C878.577 96.0608 877.784 95.9039 877.078 95.5902C876.378 95.2705 875.823 94.8 875.413 94.1786C875.009 93.5573 874.807 92.7911 874.807 91.8802C874.807 91.096 874.951 90.4475 875.241 89.9347C875.53 89.422 875.926 89.0118 876.426 88.7041C876.927 88.3964 877.491 88.1642 878.118 88.0073C878.752 87.8445 879.406 87.7268 880.082 87.6544C880.896 87.57 881.557 87.4946 882.064 87.4282C882.57 87.3558 882.938 87.2472 883.168 87.1025C883.403 86.9516 883.521 86.7194 883.521 86.4057V86.3514C883.521 85.6697 883.318 85.1419 882.914 84.7679C882.51 84.3938 881.928 84.2068 881.168 84.2068C880.366 84.2068 879.729 84.3818 879.259 84.7317C878.794 85.0815 878.48 85.4948 878.317 85.9713L875.259 85.537C875.5 84.6924 875.898 83.9866 876.453 83.4196C877.008 82.8465 877.687 82.4182 878.489 82.1346C879.292 81.8451 880.179 81.7003 881.15 81.7003C881.819 81.7003 882.486 81.7787 883.15 81.9356C883.813 82.0924 884.419 82.3518 884.968 82.7138C885.517 83.0697 885.958 83.5553 886.289 84.1706C886.627 84.786 886.796 85.5551 886.796 86.4781V95.7803H883.647V93.871H883.539C883.34 94.2571 883.059 94.619 882.697 94.9568C882.341 95.2886 881.892 95.5571 881.349 95.7622C880.812 95.9612 880.182 96.0608 879.458 96.0608ZM880.308 93.6538C880.966 93.6538 881.536 93.5241 882.018 93.2647C882.501 92.9993 882.872 92.6494 883.131 92.215C883.397 91.7807 883.53 91.3071 883.53 90.7944V89.1565C883.427 89.241 883.252 89.3194 883.005 89.3918C882.763 89.4642 882.492 89.5275 882.19 89.5818C881.889 89.6361 881.59 89.6844 881.295 89.7266C880.999 89.7688 880.743 89.805 880.525 89.8352C880.037 89.9016 879.599 90.0101 879.213 90.161C878.827 90.3118 878.523 90.5229 878.299 90.7944C878.076 91.0598 877.965 91.4037 877.965 91.8259C877.965 92.4292 878.185 92.8847 878.625 93.1923C879.066 93.5 879.627 93.6538 880.308 93.6538ZM890.09 95.7803V81.8813H893.221V84.243H893.384C893.673 83.4467 894.153 82.8254 894.823 82.379C895.492 81.9265 896.291 81.7003 897.22 81.7003C898.162 81.7003 898.955 81.9295 899.6 82.388C900.252 82.8405 900.71 83.4588 900.976 84.243H901.121C901.428 83.4709 901.947 82.8555 902.677 82.3971C903.413 81.9326 904.285 81.7003 905.292 81.7003C906.571 81.7003 907.615 82.1045 908.423 82.9128C909.231 83.7212 909.635 84.9006 909.635 86.4509V95.7803H906.351V86.9577C906.351 86.095 906.121 85.4646 905.663 85.0665C905.205 84.6623 904.644 84.4602 903.98 84.4602C903.19 84.4602 902.571 84.7075 902.125 85.2022C901.685 85.6908 901.464 86.3273 901.464 87.1115V95.7803H898.252V86.8219C898.252 86.1041 898.035 85.531 897.601 85.1027C897.172 84.6744 896.611 84.4602 895.917 84.4602C895.447 84.4602 895.019 84.5808 894.632 84.8221C894.246 85.0574 893.939 85.3922 893.71 85.8266C893.48 86.2549 893.366 86.7556 893.366 87.3287V95.7803H890.09ZM912.959 95.7803V81.8813H916.234V95.7803H912.959ZM914.606 79.9086C914.087 79.9086 913.64 79.7367 913.266 79.3929C912.892 79.043 912.705 78.6237 912.705 78.1351C912.705 77.6404 912.892 77.2211 913.266 76.8773C913.64 76.5274 914.087 76.3525 914.606 76.3525C915.13 76.3525 915.577 76.5274 915.945 76.8773C916.319 77.2211 916.506 77.6404 916.506 78.1351C916.506 78.6237 916.319 79.043 915.945 79.3929C915.577 79.7367 915.13 79.9086 914.606 79.9086ZM925.665 96.0517C924.278 96.0517 923.087 95.7471 922.091 95.1378C921.102 94.5285 920.339 93.687 919.802 92.6132C919.271 91.5334 919.006 90.2907 919.006 88.8851C919.006 87.4735 919.277 86.2277 919.82 85.1479C920.363 84.062 921.129 83.2175 922.118 82.6142C923.114 82.0049 924.29 81.7003 925.647 81.7003C926.775 81.7003 927.774 81.9084 928.643 82.3247C929.517 82.7349 930.214 83.317 930.733 84.0711C931.252 84.8191 931.547 85.6939 931.62 86.6953H928.489C928.362 86.0256 928.06 85.4676 927.584 85.0212C927.113 84.5688 926.483 84.3426 925.693 84.3426C925.023 84.3426 924.435 84.5235 923.928 84.8855C923.421 85.2414 923.026 85.7542 922.743 86.4238C922.465 87.0934 922.326 87.8957 922.326 88.8308C922.326 89.7779 922.465 90.5923 922.743 91.274C923.02 91.9496 923.409 92.4714 923.91 92.8394C924.417 93.2014 925.011 93.3823 925.693 93.3823C926.175 93.3823 926.607 93.2918 926.987 93.1109C927.373 92.9239 927.695 92.6554 927.955 92.3055C928.214 91.9556 928.392 91.5303 928.489 91.0296H931.62C931.541 92.0129 931.252 92.8847 930.751 93.6448C930.25 94.3988 929.568 94.99 928.706 95.4183C927.843 95.8406 926.83 96.0517 925.665 96.0517ZM947.055 95.7803H940.775V77.2483H947.181C949.021 77.2483 950.602 77.6193 951.923 78.3613C953.25 79.0973 954.27 80.156 954.981 81.5374C955.693 82.9189 956.049 84.5718 956.049 86.4962C956.049 88.4266 955.69 90.0855 954.972 91.473C954.26 92.8605 953.232 93.9253 951.887 94.6673C950.547 95.4093 948.937 95.7803 947.055 95.7803ZM944.132 92.8756H946.892C948.183 92.8756 949.259 92.6403 950.122 92.1698C950.985 91.6932 951.633 90.9844 952.068 90.0433C952.502 89.0962 952.719 87.9138 952.719 86.4962C952.719 85.0785 952.502 83.9022 952.068 82.9671C951.633 82.0261 950.991 81.3233 950.14 80.8588C949.296 80.3882 948.246 80.153 946.991 80.153H944.132V92.8756ZM959.094 95.7803V81.8813H962.27V84.1978H962.415C962.668 83.3955 963.103 82.7771 963.718 82.3428C964.339 81.9024 965.048 81.6822 965.844 81.6822C966.025 81.6822 966.228 81.6913 966.451 81.7094C966.68 81.7214 966.87 81.7425 967.021 81.7727V84.786C966.882 84.7377 966.662 84.6955 966.36 84.6593C966.065 84.617 965.778 84.5959 965.501 84.5959C964.903 84.5959 964.366 84.7256 963.89 84.985C963.419 85.2384 963.048 85.5913 962.777 86.0437C962.505 86.4962 962.37 87.018 962.37 87.6092V95.7803H959.094ZM969.197 95.7803V81.8813H972.473V95.7803H969.197ZM970.844 79.9086C970.325 79.9086 969.879 79.7367 969.505 79.3929C969.131 79.043 968.944 78.6237 968.944 78.1351C968.944 77.6404 969.131 77.2211 969.505 76.8773C969.879 76.5274 970.325 76.3525 970.844 76.3525C971.369 76.3525 971.815 76.5274 972.183 76.8773C972.557 77.2211 972.744 77.6404 972.744 78.1351C972.744 78.6237 972.557 79.043 972.183 79.3929C971.815 79.7367 971.369 79.9086 970.844 79.9086ZM988.256 81.8813L983.306 95.7803H979.687L974.737 81.8813H978.23L981.424 92.206H981.569L984.772 81.8813H988.256ZM996.203 96.0517C994.81 96.0517 993.606 95.7622 992.593 95.1831C991.585 94.5979 990.81 93.7714 990.267 92.7037C989.724 91.6299 989.453 90.3661 989.453 88.9122C989.453 87.4825 989.724 86.2277 990.267 85.1479C990.816 84.062 991.582 83.2175 992.566 82.6142C993.549 82.0049 994.704 81.7003 996.031 81.7003C996.888 81.7003 997.696 81.8391 998.456 82.1166C999.223 82.388 999.898 82.8103 1000.48 83.3834C1001.07 83.9565 1001.54 84.6864 1001.88 85.5732C1002.21 86.454 1002.38 87.5036 1002.38 88.7222V89.7266H990.991V87.5187H999.244C999.238 86.8913 999.102 86.3333 998.836 85.8447C998.571 85.35 998.2 84.9609 997.723 84.6774C997.253 84.3938 996.704 84.2521 996.077 84.2521C995.407 84.2521 994.819 84.415 994.312 84.7407C993.805 85.0604 993.41 85.4827 993.127 86.0075C992.849 86.5263 992.707 87.0964 992.701 87.7178V89.6452C992.701 90.4535 992.849 91.1473 993.145 91.7264C993.44 92.2995 993.854 92.7399 994.384 93.0475C994.915 93.3492 995.537 93.5 996.248 93.5C996.725 93.5 997.156 93.4336 997.542 93.3009C997.929 93.1621 998.263 92.9601 998.547 92.6946C998.83 92.4292 999.045 92.1004 999.189 91.7083L1002.25 92.0522C1002.05 92.8605 1001.69 93.5663 1001.14 94.1696C1000.61 94.7668 999.919 95.2313 999.081 95.5631C998.242 95.8889 997.283 96.0517 996.203 96.0517ZM1005.15 95.7803V81.8813H1008.33V84.1978H1008.48C1008.73 83.3955 1009.16 82.7771 1009.78 82.3428C1010.4 81.9024 1011.11 81.6822 1011.91 81.6822C1012.09 81.6822 1012.29 81.6913 1012.51 81.7094C1012.74 81.7214 1012.93 81.7425 1013.08 81.7727V84.786C1012.94 84.7377 1012.72 84.6955 1012.42 84.6593C1012.13 84.617 1011.84 84.5959 1011.56 84.5959C1010.96 84.5959 1010.43 84.7256 1009.95 84.985C1009.48 85.2384 1009.11 85.5913 1008.84 86.0437C1008.57 86.4962 1008.43 87.018 1008.43 87.6092V95.7803H1005.15Z" fill="black"/>
</svg>
