<svg width="1085" height="645" viewBox="0 0 1085 645" fill="none" xmlns="http://www.w3.org/2000/svg">
<path d="M128.724 159.316C125.053 181.758 136.231 229.652 142.279 250.794C151.764 254.555 165.015 245.173 165.015 245.173C165.015 245.173 148.224 193.091 152.563 164.605C153.159 160.689 164.675 114.585 219.318 142.23C260.554 168.652 299.63 212.976 314.26 279.673C326.287 334.505 331.816 485.081 329.69 555.398L351.394 554.991C354.634 493.269 356.723 353.422 339.165 287.81C317.218 205.796 277.473 151.955 234.005 125.667C199.231 104.637 167.899 112.834 156.579 119.562C148.824 123.462 132.395 136.873 128.724 159.316Z" fill="#2B2B2B" fill-opacity="0.28" stroke="black"/>
<path d="M379.828 450.241C378.495 457.154 376.306 464.975 369.357 466.103L326.921 490.603C315.23 497.353 272.035 490.538 266.437 486.842C260.839 483.145 238.005 494.596 232.273 488.668C203.029 509.016 203.261 505.418 200.029 503.82C196.797 502.222 182.926 465.197 183.756 456.635C184.42 449.785 206.417 448.375 217.333 448.526C217.536 444.47 218.684 440.949 221.196 438.483C254.27 414.769 238.257 398.033 234.069 376.78C230.719 359.777 235.789 354.425 238.743 353.874L190.187 354.773C183.369 355.63 166.858 349.766 155.361 319.453C143.865 289.141 131.557 266.224 131.838 259.711C132.746 238.727 170.419 219.535 180.921 237.724C189.17 252.012 198.438 272.065 205.421 280.159C216.334 292.81 226.987 290.586 243.218 286.626C250.07 284.953 254.053 280.393 265.252 276.791C288.459 269.326 311.376 272.68 331.47 286.482C351.564 300.284 361.885 308.047 373.826 327.845C386.644 349.096 393.922 364.496 390.72 389.106C388.969 402.568 380.759 405.455 379.068 418.925C377.578 430.796 381.707 440.496 379.828 450.241Z" fill="#2B2B2B" fill-opacity="0.28"/>
<path d="M265.252 276.791C262.123 308.37 268.246 334.854 284.92 361.855C296.07 379.911 315.281 397.442 321.812 401.754C328.343 406.066 342.214 443.091 354.812 458.912C358.759 463.869 363.102 467.119 369.357 466.103M265.252 276.791C288.459 269.326 311.376 272.68 331.47 286.482C351.564 300.284 361.885 308.047 373.826 327.845C386.644 349.096 393.922 364.496 390.72 389.106C388.969 402.568 380.759 405.455 379.068 418.925C377.578 430.796 381.707 440.496 379.828 450.241C378.495 457.154 376.306 464.975 369.357 466.103M265.252 276.791C254.053 280.393 250.07 284.953 243.218 286.626C226.987 290.586 216.334 292.81 205.421 280.159C198.438 272.065 189.17 252.012 180.921 237.724C170.419 219.535 132.746 238.727 131.838 259.711C131.557 266.224 143.865 289.141 155.361 319.453C166.858 349.766 183.369 355.63 190.187 354.773L238.743 353.874M369.357 466.103L326.921 490.603M326.921 490.603C321.99 488.062 311.296 480.341 307.975 469.788C303.823 456.596 289.604 424.968 274.725 412.197C262.822 401.98 245.777 369.058 238.743 353.874M326.921 490.603C315.23 497.353 272.035 490.538 266.437 486.842C260.839 483.145 238.005 494.596 232.273 488.668M238.743 353.874C235.789 354.425 230.719 359.777 234.069 376.78C238.257 398.033 254.27 414.769 221.196 438.483C218.684 440.949 217.536 444.47 217.333 448.526M232.273 488.668C227.801 484.043 216.613 462.917 217.333 448.526M232.273 488.668C203.029 509.016 203.261 505.418 200.029 503.82C196.797 502.222 182.926 465.197 183.756 456.635C184.42 449.785 206.417 448.375 217.333 448.526" stroke="black"/>
<path d="M166.815 454.292C178.385 423.132 212.835 408.669 228.615 405.332C254.061 437.406 272.204 500.832 268.995 518.273C220.578 536.412 186.39 519.198 183.891 514.869C174.64 498.846 160.055 468.584 166.815 454.292Z" fill="#2B2B2B" fill-opacity="0.28" stroke="black"/>
<path d="M365.165 385.736C357.334 390.257 347.574 389.828 338.083 385.385C328.593 380.942 319.418 372.501 312.836 361.099C306.253 349.698 303.531 337.532 304.428 327.092C305.325 316.651 309.834 307.984 317.665 303.463L317.415 303.03C317.665 303.463 317.665 303.463 317.665 303.463L317.666 303.463L317.668 303.462L317.67 303.46L317.673 303.459L317.676 303.456L317.681 303.454L317.686 303.451L317.691 303.448L317.697 303.444L317.704 303.441L317.712 303.436L317.72 303.432L317.728 303.427L317.738 303.421L317.748 303.415L317.758 303.409L317.769 303.403L317.781 303.396L317.794 303.389L317.807 303.381L317.82 303.373L317.835 303.365L317.849 303.357L317.865 303.348L317.881 303.338L317.898 303.329L317.915 303.319L317.933 303.308L317.951 303.298L317.97 303.287L317.99 303.275L318.01 303.264L318.031 303.252L318.052 303.239L318.074 303.227L318.097 303.214L318.12 303.2L318.144 303.187L318.168 303.173L318.193 303.158L318.218 303.144L318.244 303.129L318.271 303.113L318.298 303.098L318.326 303.082L318.354 303.065L318.383 303.049L318.412 303.032L318.442 303.015L318.472 302.997L318.503 302.979L318.535 302.961L318.567 302.943L318.599 302.924L318.632 302.905L318.666 302.885L318.7 302.865L318.735 302.845L318.77 302.825L318.806 302.804L318.842 302.784L318.879 302.762L318.916 302.741L318.954 302.719L318.992 302.697L319.031 302.674L319.07 302.652L319.11 302.629L319.151 302.605L319.191 302.582L319.233 302.558L319.275 302.534L319.317 302.509L319.36 302.485L319.403 302.46L319.447 302.434L319.491 302.409L319.536 302.383L319.581 302.357L319.627 302.33L319.673 302.304L319.72 302.277L319.767 302.25L319.814 302.222L319.863 302.194L319.911 302.166L319.96 302.138L320.01 302.109L320.059 302.081L320.11 302.052L320.161 302.022L320.212 301.993L320.264 301.963L320.316 301.933L320.368 301.902L320.421 301.872L320.475 301.841L320.529 301.81L320.583 301.778L320.638 301.747L320.693 301.715L320.749 301.683L320.805 301.65L320.861 301.618L320.918 301.585L320.976 301.552L321.033 301.518L321.092 301.485L321.15 301.451L321.209 301.417L321.269 301.383L321.328 301.348L321.389 301.313L321.449 301.278L321.51 301.243L321.571 301.208L321.633 301.172L321.695 301.136L321.758 301.1L321.821 301.064L321.884 301.027L321.948 300.99L322.012 300.953L322.077 300.916L322.141 300.879L322.207 300.841L322.272 300.803L322.338 300.765L322.404 300.727L322.471 300.688L322.538 300.65L322.606 300.611L322.673 300.572L322.742 300.532L322.81 300.493L322.879 300.453L322.948 300.413L323.017 300.373L323.087 300.333L323.158 300.292L323.228 300.251L323.299 300.21L323.37 300.169L323.442 300.128L323.514 300.086L323.586 300.045L323.658 300.003L323.731 299.961L323.804 299.919L323.878 299.876L323.952 299.834L324.026 299.791L324.1 299.748L324.175 299.705L324.25 299.661L324.325 299.618L324.401 299.574L324.477 299.53L324.553 299.486L324.63 299.442L324.706 299.398L324.783 299.353L324.861 299.309L324.939 299.264L325.017 299.219L325.095 299.174L325.173 299.128L325.252 299.083L325.331 299.037L325.411 298.991L325.49 298.945L325.57 298.899L325.65 298.853L325.731 298.806L325.811 298.76L325.892 298.713L325.974 298.666L326.055 298.619L326.137 298.572L326.219 298.525L326.301 298.477L326.383 298.43L326.466 298.382L326.549 298.334L326.632 298.286L326.716 298.238L326.799 298.19L326.883 298.141L326.967 298.093L327.051 298.044L327.136 297.995L327.221 297.946L327.306 297.897L327.391 297.848L327.476 297.798L327.562 297.749L327.648 297.699L327.734 297.65L327.82 297.6L327.907 297.55L327.993 297.5L328.08 297.45L328.167 297.4L328.255 297.349L328.342 297.299L328.43 297.248L328.518 297.197L328.606 297.147L328.694 297.096L328.782 297.045L328.871 296.993L328.959 296.942L329.048 296.891L329.137 296.839L329.227 296.788L329.316 296.736L329.406 296.685L329.496 296.633L329.585 296.581L329.676 296.529L329.766 296.477L329.856 296.425L329.947 296.372L330.037 296.32L330.128 296.267L330.219 296.215L330.31 296.162L330.402 296.11L330.493 296.057L330.584 296.004L330.676 295.951L330.768 295.898L330.86 295.845L330.952 295.792L331.044 295.739L331.136 295.685L331.229 295.632L331.321 295.579L331.414 295.525L331.507 295.472L331.6 295.418L331.693 295.364L331.786 295.31L331.879 295.257L331.972 295.203L332.066 295.149L332.159 295.095L332.253 295.041L332.346 294.987L332.44 294.933L332.534 294.878L332.628 294.824L332.722 294.77L332.816 294.716L332.91 294.661L333.005 294.607L333.099 294.552L333.193 294.498L333.288 294.443L333.382 294.389L333.477 294.334L333.572 294.279L333.666 294.225L333.761 294.17L333.856 294.115L333.951 294.06L334.046 294.006L334.141 293.951L334.236 293.896L334.331 293.841L334.426 293.786L334.521 293.731L334.617 293.676L334.712 293.621L334.807 293.566L334.903 293.511L334.998 293.456L335.093 293.401L335.189 293.346L335.284 293.291L335.379 293.236L335.475 293.181L335.57 293.125L335.666 293.07L335.761 293.015L335.857 292.96L335.952 292.905L336.048 292.85L336.143 292.795L336.239 292.739L336.334 292.684L336.43 292.629L336.525 292.574L336.621 292.519L336.716 292.464L336.812 292.409L336.907 292.354L337.003 292.298L337.098 292.243L337.194 292.188L337.289 292.133L337.384 292.078L337.479 292.023L337.575 291.968L337.67 291.913L337.765 291.858L337.86 291.803L337.955 291.748L338.05 291.694L338.146 291.639L338.24 291.584L338.335 291.529L338.43 291.474L338.525 291.42L338.62 291.365L338.715 291.31L338.809 291.256L338.904 291.201L338.998 291.146L339.093 291.092L339.187 291.037L339.281 290.983L339.375 290.929L339.47 290.874L339.564 290.82L339.658 290.766L339.751 290.711L339.845 290.657L339.939 290.603L340.033 290.549L340.126 290.495L340.22 290.441L340.313 290.387L340.406 290.334L340.499 290.28L340.592 290.226L340.685 290.172L340.778 290.119L340.871 290.065L340.963 290.012L341.056 289.959L341.148 289.905L341.24 289.852L341.332 289.799L341.424 289.746L341.516 289.693L341.608 289.64L341.699 289.587L341.791 289.534L341.882 289.481L341.973 289.429L342.064 289.376L342.155 289.324L342.246 289.271L342.336 289.219L342.427 289.167L342.517 289.115L342.607 289.063L342.697 289.011L342.787 288.959L342.876 288.907L342.966 288.856L343.055 288.804L343.144 288.753L343.233 288.701L343.322 288.65L343.411 288.599L343.499 288.548L343.587 288.497L343.675 288.446L343.763 288.395L343.851 288.345L343.938 288.294L344.026 288.244L344.113 288.193L344.2 288.143L344.286 288.093L344.373 288.043L344.459 287.993L344.545 287.944L344.631 287.894L344.717 287.845L344.802 287.795L344.888 287.746L344.973 287.697L345.058 287.648L345.142 287.599L345.227 287.55L345.311 287.502L345.395 287.453L345.478 287.405L345.562 287.357L345.645 287.309L345.728 287.261L345.811 287.213L345.893 287.166L345.975 287.118L346.057 287.071L346.139 287.024L346.221 286.976L346.302 286.93L346.383 286.883L346.464 286.836L346.544 286.79L346.624 286.743L346.704 286.697L346.784 286.651L346.863 286.605L346.943 286.56L347.021 286.514L347.1 286.469L347.178 286.424L347.256 286.379L347.334 286.334L347.412 286.289L347.489 286.244L347.566 286.2L347.642 286.156L347.719 286.112L347.795 286.068L347.87 286.024L347.946 285.981L348.021 285.937L348.096 285.894L348.17 285.851L348.244 285.808L348.318 285.766L348.392 285.723L348.465 285.681L348.538 285.639L348.61 285.597L348.683 285.555L348.754 285.514L348.826 285.472L348.897 285.431L348.968 285.39L349.039 285.349L349.109 285.309L349.179 285.268L349.249 285.228L349.318 285.188L349.387 285.149L349.455 285.109L349.524 285.07L349.591 285.03L349.659 284.991L349.726 284.953L349.793 284.914L349.859 284.876L349.925 284.838L349.991 284.8L350.056 284.762L350.121 284.725L350.186 284.687L350.25 284.65L350.314 284.613L350.377 284.577L350.44 284.54L350.503 284.504L350.565 284.468L350.627 284.433L350.688 284.397L350.749 284.362L350.81 284.327L350.87 284.292L350.93 284.257L350.99 284.223L351.049 284.189L351.107 284.155L351.166 284.122L351.223 284.088L351.281 284.055L351.338 284.022L351.394 283.989L351.451 283.957L351.506 283.925L351.562 283.893L351.616 283.861L351.671 283.83L351.725 283.799L351.778 283.768L351.832 283.737L351.884 283.707L351.937 283.676L351.988 283.646L352.04 283.617L352.091 283.587L352.141 283.558L352.191 283.529L352.241 283.501L352.29 283.472L352.338 283.444L352.387 283.417L352.434 283.389L352.481 283.362L352.528 283.335L352.575 283.308L352.62 283.282L352.666 283.255L352.711 283.23L352.755 283.204L352.799 283.179L352.842 283.154L352.885 283.129L352.928 283.104L352.97 283.08L353.011 283.056L353.052 283.032L353.092 283.009L353.132 282.986L353.172 282.963C361.002 278.442 370.762 278.871 380.254 283.314C389.743 287.757 398.918 296.198 405.501 307.599C412.083 319.001 414.806 331.167 413.909 341.607C413.011 352.048 408.502 360.715 400.672 365.236L400.632 365.258L400.592 365.282L400.552 365.305L400.511 365.329L400.47 365.352L400.428 365.377L400.385 365.401L400.342 365.426L400.299 365.451L400.255 365.476L400.211 365.502L400.166 365.528L400.12 365.554L400.075 365.58L400.028 365.607L399.981 365.634L399.934 365.661L399.887 365.689L399.838 365.717L399.79 365.745L399.741 365.773L399.691 365.802L399.641 365.831L399.591 365.86L399.54 365.889L399.488 365.919L399.437 365.949L399.384 365.979L399.332 366.009L399.278 366.04L399.225 366.071L399.171 366.102L399.116 366.134L399.062 366.165L399.006 366.197L398.951 366.229L398.894 366.262L398.838 366.295L398.781 366.327L398.723 366.361L398.666 366.394L398.607 366.428L398.549 366.461L398.49 366.496L398.43 366.53L398.37 366.564L398.31 366.599L398.249 366.634L398.188 366.67L398.127 366.705L398.065 366.741L398.003 366.777L397.94 366.813L397.877 366.849L397.814 366.886L397.75 366.923L397.686 366.96L397.621 366.997L397.556 367.035L397.491 367.072L397.425 367.11L397.359 367.148L397.293 367.187L397.226 367.225L397.159 367.264L397.091 367.303L397.024 367.342L396.955 367.381L396.887 367.421L396.818 367.461L396.749 367.501L396.679 367.541L396.609 367.581L396.539 367.622L396.468 367.663L396.397 367.704L396.326 367.745L396.254 367.786L396.183 367.828L396.11 367.869L396.038 367.911L395.965 367.953L395.892 367.996L395.818 368.038L395.744 368.081L395.67 368.123L395.596 368.166L395.521 368.21L395.446 368.253L395.37 368.297L395.295 368.34L395.219 368.384L395.142 368.428L395.066 368.472L394.989 368.517L394.912 368.561L394.834 368.606L394.756 368.651L394.678 368.696L394.6 368.741L394.521 368.787L394.443 368.832L394.363 368.878L394.284 368.924L394.204 368.97L394.124 369.016L394.044 369.062L393.964 369.109L393.883 369.155L393.802 369.202L393.721 369.249L393.639 369.296L393.557 369.343L393.475 369.39L393.393 369.438L393.311 369.486L393.228 369.533L393.145 369.581L393.062 369.629L392.978 369.678L392.895 369.726L392.811 369.774L392.727 369.823L392.642 369.872L392.558 369.92L392.473 369.969L392.388 370.018L392.302 370.068L392.217 370.117L392.131 370.167L392.045 370.216L391.959 370.266L391.873 370.316L391.786 370.366L391.7 370.416L391.613 370.466L391.526 370.516L391.438 370.567L391.351 370.617L391.263 370.668L391.175 370.718L391.087 370.769L390.999 370.82L390.911 370.871L390.822 370.922L390.733 370.974L390.644 371.025L390.555 371.077L390.466 371.128L390.376 371.18L390.287 371.231L390.197 371.283L390.107 371.335L390.017 371.387L389.927 371.439L389.836 371.492L389.746 371.544L389.655 371.596L389.564 371.649L389.473 371.701L389.382 371.754L389.291 371.807L389.199 371.859L389.108 371.912L389.016 371.965L388.924 372.018L388.832 372.071L388.74 372.124L388.648 372.178L388.556 372.231L388.463 372.284L388.371 372.338L388.278 372.391L388.185 372.445L388.092 372.499L387.999 372.552L387.906 372.606L387.813 372.66L387.72 372.714L387.626 372.768L387.533 372.822L387.439 372.876L387.345 372.93L387.251 372.984L387.158 373.038L387.064 373.092L386.97 373.147L386.875 373.201L386.781 373.255L386.687 373.31L386.593 373.364L386.498 373.419L386.404 373.473L386.309 373.528L386.215 373.583L386.12 373.637L386.025 373.692L385.93 373.747L385.835 373.801L385.74 373.856L385.646 373.911L385.55 373.966L385.455 374.021L385.36 374.076L385.265 374.131L385.17 374.186L385.075 374.241L384.979 374.296L384.884 374.351L384.789 374.406L384.694 374.461L384.598 374.516L384.503 374.571L384.407 374.626L384.312 374.681L384.216 374.736L384.121 374.791L384.025 374.846L383.93 374.902L383.834 374.957L383.739 375.012L383.643 375.067L383.548 375.122L383.452 375.177L383.357 375.232L383.261 375.288L383.166 375.343L383.07 375.398L382.975 375.453L382.879 375.508L382.784 375.563L382.689 375.618L382.593 375.673L382.498 375.728L382.403 375.783L382.307 375.838L382.212 375.893L382.117 375.948L382.021 376.003L381.926 376.058L381.831 376.113L381.736 376.168L381.641 376.223L381.546 376.278L381.451 376.333L381.356 376.388L381.261 376.442L381.166 376.497L381.072 376.552L380.977 376.606L380.882 376.661L380.788 376.716L380.693 376.77L380.599 376.825L380.505 376.879L380.41 376.934L380.316 376.988L380.222 377.042L380.128 377.097L380.034 377.151L379.94 377.205L379.846 377.259L379.753 377.313L379.659 377.367L379.566 377.421L379.472 377.475L379.379 377.529L379.286 377.583L379.193 377.637L379.1 377.69L379.007 377.744L378.914 377.797L378.821 377.851L378.729 377.904L378.636 377.958L378.544 378.011L378.452 378.064L378.36 378.117L378.268 378.171L378.176 378.224L378.084 378.276L377.993 378.329L377.902 378.382L377.81 378.435L377.719 378.487L377.628 378.54L377.537 378.592L377.447 378.645L377.356 378.697L377.266 378.749L377.176 378.801L377.085 378.853L376.996 378.905L376.906 378.957L376.816 379.009L376.727 379.06L376.637 379.112L376.548 379.163L376.459 379.215L376.371 379.266L376.282 379.317L376.194 379.368L376.106 379.419L376.018 379.47L375.93 379.521L375.842 379.571L375.755 379.622L375.667 379.672L375.58 379.722L375.493 379.772L375.407 379.822L375.32 379.872L375.234 379.922L375.148 379.972L375.062 380.021L374.976 380.071L374.891 380.12L374.806 380.169L374.721 380.218L374.636 380.267L374.551 380.316L374.467 380.365L374.383 380.413L374.299 380.462L374.216 380.51L374.132 380.558L374.049 380.606L373.966 380.654L373.883 380.702L373.801 380.75L373.719 380.797L373.637 380.844L373.555 380.892L373.474 380.939L373.392 380.985L373.311 381.032L373.231 381.079L373.15 381.125L373.07 381.172L372.99 381.218L372.911 381.264L372.831 381.309L372.752 381.355L372.673 381.401L372.595 381.446L372.517 381.491L372.439 381.536L372.361 381.581L372.283 381.626L372.206 381.67L372.13 381.715L372.053 381.759L371.977 381.803L371.901 381.847L371.825 381.89L371.75 381.934L371.675 381.977L371.6 382.02L371.526 382.063L371.452 382.106L371.378 382.149L371.304 382.191L371.231 382.233L371.158 382.275L371.086 382.317L371.014 382.359L370.942 382.4L370.87 382.442L370.799 382.483L370.728 382.524L370.658 382.564L370.587 382.605L370.517 382.645L370.448 382.685L370.379 382.725L370.31 382.765L370.242 382.805L370.173 382.844L370.106 382.883L370.038 382.922L369.971 382.961L369.904 382.999L369.838 383.037L369.772 383.076L369.707 383.113L369.641 383.151L369.577 383.188L369.512 383.226L369.448 383.263L369.384 383.3L369.321 383.336L369.258 383.372L369.195 383.409L369.133 383.444L369.071 383.48L369.01 383.516L368.949 383.551L368.889 383.586L368.828 383.621L368.769 383.655L368.709 383.689L368.65 383.723L368.592 383.757L368.533 383.791L368.476 383.824L368.418 383.857L368.361 383.89L368.305 383.923L368.249 383.955L368.193 383.987L368.138 384.019L368.083 384.051L368.029 384.082L367.975 384.113L367.921 384.144L367.868 384.175L367.816 384.205L367.764 384.235L367.712 384.265L367.661 384.295L367.61 384.324L367.559 384.353L367.51 384.382L367.46 384.41L367.411 384.439L367.363 384.467L367.314 384.495L367.267 384.522L367.22 384.549L367.173 384.576L367.127 384.603L367.081 384.629L367.036 384.655L366.991 384.681L366.947 384.707L366.903 384.732L366.86 384.757L366.817 384.782L366.775 384.806L366.733 384.83L366.691 384.854L366.651 384.878L366.61 384.901L366.57 384.924L366.531 384.947L366.492 384.969L366.454 384.991L366.416 385.013L366.379 385.035L366.342 385.056L366.306 385.077L366.27 385.098L366.235 385.118L366.2 385.138L366.166 385.158L366.132 385.177L366.099 385.196L366.067 385.215L366.035 385.233L366.003 385.252L365.972 385.269L365.942 385.287L365.912 385.304L365.883 385.321L365.854 385.338L365.826 385.354L365.798 385.37L365.771 385.386L365.744 385.401L365.718 385.416L365.693 385.431L365.668 385.445L365.644 385.459L365.62 385.473L365.597 385.486L365.574 385.499L365.552 385.512L365.531 385.524L365.51 385.536L365.49 385.548L365.47 385.559L365.451 385.57L365.433 385.581L365.415 385.591L365.398 385.601L365.381 385.611L365.365 385.62L365.349 385.629L365.335 385.638L365.32 385.646L365.307 385.654L365.294 385.661L365.281 385.668L365.269 385.675L365.258 385.682L365.248 385.688L365.238 385.694L365.228 385.699L365.22 385.704L365.212 385.709L365.204 385.713L365.197 385.717L365.191 385.72L365.186 385.724L365.181 385.726L365.176 385.729L365.173 385.731L365.17 385.733L365.168 385.734L365.166 385.735L365.165 385.736C365.165 385.736 365.165 385.736 365.415 386.169L365.165 385.736Z" fill="#C24774" stroke="black"/>
<path d="M386.308 401.465C382.962 396.469 379.057 383.905 377.523 378.248C372.646 369.801 379.552 335.314 375.704 318.098C368.048 283.836 376.632 284.364 379.453 268.592L376.801 257.998C379.005 256.149 385.121 251.809 391.957 249.248C400.501 246.047 396.122 251.462 410.197 250.842C416.001 246.802 422.437 242.042 427.999 237.676C433.562 233.31 453.998 226.707 479.591 250.036C505.185 273.365 495.271 317.194 496.106 323.64C496.941 330.086 493.263 339.715 489.75 344.63C486.236 349.545 489.844 379.794 486.197 382.477C482.55 385.16 426.173 412.513 419.294 413.598C412.415 414.683 390.491 407.711 386.308 401.465Z" fill="#2B2B2B" fill-opacity="0.28"/>
<path d="M496.106 323.64C496.941 330.086 493.263 339.715 489.75 344.63C486.236 349.545 489.844 379.794 486.197 382.477C482.55 385.16 426.173 412.513 419.294 413.598C412.415 414.683 390.491 407.711 386.308 401.465C382.962 396.469 379.057 383.905 377.523 378.248C372.646 369.801 379.552 335.314 375.704 318.098C368.048 283.836 376.632 284.364 379.453 268.592L376.801 257.998C379.005 256.149 385.121 251.809 391.957 249.248C400.501 246.047 396.122 251.462 410.197 250.842C416.001 246.802 422.437 242.042 427.999 237.676M496.106 323.64C495.271 317.194 505.185 273.365 479.591 250.036C453.998 226.707 433.562 233.31 427.999 237.676M496.106 323.64C481.522 349.381 463.679 339.475 436.952 312.182C415.57 290.348 422.074 253.414 427.999 237.676" stroke="black"/>
<path d="M485.456 244.006C476.134 231.643 465.357 187.771 465.055 167.057C465.005 163.629 466.163 158.951 484.651 150.874C507.761 140.778 543.002 165.877 565.129 179.612C587.256 193.348 621.514 246.065 607.714 267.559C593.914 289.052 599.153 308.488 599.67 334.961C599.792 341.172 595.943 348.693 595.943 348.693C595.943 348.693 593.864 353.88 589.734 357.8C578.094 368.848 561.441 359.236 553.855 347.346C540.387 326.236 531.362 300.82 520.06 284.081C508.758 267.343 497.109 259.461 485.456 244.006Z" fill="#2B2B2B" fill-opacity="0.28"/>
<path d="M484.651 150.874C507.761 140.778 543.002 165.877 565.129 179.612C587.256 193.348 621.514 246.065 607.714 267.559C593.914 289.052 599.153 308.488 599.67 334.961C599.792 341.172 595.943 348.693 595.943 348.693M484.651 150.874C466.163 158.951 465.005 163.629 465.055 167.057C465.357 187.771 476.134 231.643 485.456 244.006C497.109 259.461 508.758 267.343 520.06 284.081C531.362 300.82 540.387 326.236 553.855 347.346C561.441 359.236 578.094 368.848 589.734 357.8C593.864 353.88 595.943 348.693 595.943 348.693M484.651 150.874C487.334 172.229 494.854 218.671 503.475 233.603C512.096 248.535 523.058 258.568 535.212 275.333C554.458 301.879 557.413 332.082 575.563 350.278C585.433 360.173 595.943 348.693 595.943 348.693" stroke="black"/>
<path d="M351.843 354.346C351.051 354.103 350.212 354.548 349.969 355.34L346.008 368.246C345.765 369.038 346.21 369.877 347.002 370.12C347.793 370.363 348.633 369.918 348.876 369.126L352.397 357.654L363.868 361.175C364.66 361.419 365.5 360.974 365.743 360.182C365.986 359.39 365.541 358.551 364.749 358.307L351.843 354.346ZM456.403 553.78L455.078 554.483L455.5 555.28H456.403V553.78ZM509.403 555.28C510.231 555.28 510.903 554.609 510.903 553.78C510.903 552.952 510.231 552.28 509.403 552.28V555.28ZM350.078 356.483L455.078 554.483L457.728 553.078L352.728 355.078L350.078 356.483ZM456.403 555.28H509.403V552.28H456.403V555.28Z" fill="black"/>
<path d="M625.588 93.2483V111.78H622.231V93.2483H625.588ZM632.354 103.636V111.78H629.078V97.8813H632.209V100.243H632.372C632.692 99.4648 633.202 98.8465 633.901 98.388C634.607 97.9295 635.479 97.7003 636.517 97.7003C637.476 97.7003 638.311 97.9054 639.023 98.3156C639.741 98.7258 640.296 99.32 640.688 100.098C641.086 100.876 641.282 101.821 641.276 102.931V111.78H638.001V103.437C638.001 102.508 637.759 101.781 637.277 101.256C636.8 100.732 636.139 100.469 635.295 100.469C634.722 100.469 634.212 100.596 633.766 100.849C633.325 101.097 632.978 101.456 632.725 101.926C632.478 102.397 632.354 102.967 632.354 103.636ZM653.031 102.713V105.41H644.688V102.713H653.031ZM656.621 111.78V93.2483H668.674V96.0625H659.978V101.094H668.049V103.908H659.978V108.966H668.746V111.78H656.621ZM675.954 112.061C675.073 112.061 674.28 111.904 673.574 111.59C672.874 111.271 672.319 110.8 671.909 110.179C671.505 109.557 671.302 108.791 671.302 107.88C671.302 107.096 671.447 106.448 671.737 105.935C672.026 105.422 672.421 105.012 672.922 104.704C673.423 104.396 673.987 104.164 674.614 104.007C675.248 103.844 675.902 103.727 676.578 103.654C677.392 103.57 678.053 103.495 678.56 103.428C679.066 103.356 679.434 103.247 679.664 103.102C679.899 102.952 680.016 102.719 680.016 102.406V102.351C680.016 101.67 679.814 101.142 679.41 100.768C679.006 100.394 678.424 100.207 677.664 100.207C676.861 100.207 676.225 100.382 675.754 100.732C675.29 101.082 674.976 101.495 674.813 101.971L671.755 101.537C671.996 100.692 672.394 99.9866 672.949 99.4196C673.504 98.8465 674.183 98.4182 674.985 98.1346C675.788 97.8451 676.674 97.7003 677.646 97.7003C678.315 97.7003 678.982 97.7787 679.645 97.9356C680.309 98.0924 680.915 98.3518 681.464 98.7138C682.013 99.0697 682.454 99.5553 682.785 100.171C683.123 100.786 683.292 101.555 683.292 102.478V111.78H680.143V109.871H680.035C679.835 110.257 679.555 110.619 679.193 110.957C678.837 111.289 678.388 111.557 677.845 111.762C677.308 111.961 676.677 112.061 675.954 112.061ZM676.804 109.654C677.462 109.654 678.032 109.524 678.514 109.265C678.997 108.999 679.368 108.649 679.627 108.215C679.893 107.781 680.026 107.307 680.026 106.794V105.157C679.923 105.241 679.748 105.319 679.501 105.392C679.259 105.464 678.988 105.528 678.686 105.582C678.385 105.636 678.086 105.684 677.79 105.727C677.495 105.769 677.238 105.805 677.021 105.835C676.533 105.902 676.095 106.01 675.709 106.161C675.323 106.312 675.019 106.523 674.795 106.794C674.572 107.06 674.46 107.404 674.46 107.826C674.46 108.429 674.681 108.885 675.121 109.192C675.561 109.5 676.122 109.654 676.804 109.654ZM686.586 111.78V97.8813H689.762V100.198H689.907C690.16 99.3955 690.595 98.7771 691.21 98.3428C691.831 97.9024 692.54 97.6822 693.336 97.6822C693.517 97.6822 693.719 97.6913 693.943 97.7094C694.172 97.7214 694.362 97.7425 694.513 97.7727V100.786C694.374 100.738 694.154 100.695 693.852 100.659C693.557 100.617 693.27 100.596 692.992 100.596C692.395 100.596 691.858 100.726 691.382 100.985C690.911 101.238 690.54 101.591 690.269 102.044C689.997 102.496 689.862 103.018 689.862 103.609V111.78H686.586ZM707.674 101.555L704.688 101.881C704.604 101.579 704.456 101.296 704.245 101.03C704.04 100.765 703.762 100.551 703.412 100.388C703.062 100.225 702.634 100.143 702.127 100.143C701.446 100.143 700.872 100.291 700.408 100.587C699.95 100.882 699.723 101.266 699.729 101.736C699.723 102.14 699.871 102.469 700.173 102.722C700.48 102.976 700.987 103.184 701.693 103.347L704.064 103.854C705.379 104.137 706.356 104.586 706.996 105.202C707.641 105.817 707.967 106.622 707.973 107.618C707.967 108.493 707.71 109.265 707.204 109.934C706.703 110.598 706.006 111.117 705.113 111.491C704.221 111.865 703.195 112.052 702.037 112.052C700.336 112.052 698.966 111.696 697.929 110.984C696.891 110.266 696.273 109.268 696.074 107.989L699.268 107.681C699.413 108.309 699.72 108.782 700.191 109.102C700.661 109.422 701.274 109.581 702.028 109.581C702.806 109.581 703.43 109.422 703.901 109.102C704.377 108.782 704.616 108.387 704.616 107.916C704.616 107.518 704.462 107.19 704.154 106.93C703.853 106.671 703.382 106.472 702.743 106.333L700.372 105.835C699.039 105.558 698.052 105.09 697.413 104.433C696.773 103.769 696.457 102.931 696.463 101.917C696.457 101.06 696.689 100.318 697.159 99.691C697.636 99.0576 698.297 98.569 699.141 98.2251C699.992 97.8752 700.972 97.7003 702.082 97.7003C703.711 97.7003 704.993 98.0472 705.928 98.7409C706.869 99.4347 707.451 100.373 707.674 101.555ZM721.039 111.78L715.809 93.2483H719.42L722.759 106.867H722.931L726.496 93.2483H729.78L733.355 106.876H733.518L736.857 93.2483H740.467L735.237 111.78H731.925L728.215 98.7771H728.07L724.351 111.78H721.039ZM742.65 111.78V97.8813H745.926V111.78H742.65ZM744.297 95.9086C743.778 95.9086 743.332 95.7367 742.958 95.3929C742.584 95.043 742.397 94.6237 742.397 94.1351C742.397 93.6404 742.584 93.2211 742.958 92.8773C743.332 92.5274 743.778 92.3525 744.297 92.3525C744.822 92.3525 745.268 92.5274 745.636 92.8773C746.01 93.2211 746.197 93.6404 746.197 94.1351C746.197 94.6237 746.01 95.043 745.636 95.3929C745.268 95.7367 744.822 95.9086 744.297 95.9086ZM756.235 97.8813V100.415H748.245V97.8813H756.235ZM750.217 94.5513H753.493V107.6C753.493 108.04 753.559 108.378 753.692 108.613C753.831 108.842 754.012 108.999 754.235 109.084C754.458 109.168 754.705 109.21 754.977 109.21C755.182 109.21 755.369 109.195 755.538 109.165C755.713 109.135 755.846 109.108 755.936 109.084L756.488 111.645C756.313 111.705 756.063 111.771 755.737 111.844C755.417 111.916 755.025 111.958 754.561 111.97C753.74 111.994 753.001 111.871 752.344 111.599C751.686 111.322 751.164 110.893 750.778 110.314C750.398 109.735 750.211 109.011 750.217 108.143V94.5513ZM762.549 103.636V111.78H759.273V93.2483H762.476V100.243H762.639C762.965 99.4588 763.468 98.8405 764.15 98.388C764.838 97.9295 765.713 97.7003 766.774 97.7003C767.74 97.7003 768.581 97.9024 769.299 98.3066C770.017 98.7108 770.572 99.3019 770.964 100.08C771.362 100.858 771.561 101.808 771.561 102.931V111.78H768.285V103.437C768.285 102.502 768.044 101.775 767.562 101.256C767.085 100.732 766.415 100.469 765.553 100.469C764.974 100.469 764.455 100.596 763.996 100.849C763.544 101.097 763.188 101.456 762.929 101.926C762.675 102.397 762.549 102.967 762.549 103.636ZM788.722 93.2483V111.78H785.365V96.5149H785.257L780.922 99.2838V96.2073L785.528 93.2483H788.722ZM806.209 111.78H799.929V93.2483H806.336C808.176 93.2483 809.756 93.6193 811.077 94.3613C812.405 95.0973 813.424 96.156 814.136 97.5374C814.848 98.9189 815.204 100.572 815.204 102.496C815.204 104.427 814.845 106.086 814.127 107.473C813.415 108.861 812.386 109.925 811.041 110.667C809.702 111.409 808.091 111.78 806.209 111.78ZM803.286 108.876H806.046C807.337 108.876 808.414 108.64 809.277 108.17C810.139 107.693 810.788 106.984 811.222 106.043C811.656 105.096 811.874 103.914 811.874 102.496C811.874 101.079 811.656 99.9022 811.222 98.9671C810.788 98.0261 810.145 97.3233 809.295 96.8588C808.45 96.3882 807.401 96.153 806.146 96.153H803.286V108.876ZM824.673 111.78H818.393V93.2483H824.8C826.64 93.2483 828.22 93.6193 829.541 94.3613C830.869 95.0973 831.888 96.156 832.6 97.5374C833.312 98.9189 833.668 100.572 833.668 102.496C833.668 104.427 833.309 106.086 832.591 107.473C831.879 108.861 830.851 109.925 829.505 110.667C828.166 111.409 826.555 111.78 824.673 111.78ZM821.75 108.876H824.51C825.801 108.876 826.878 108.64 827.741 108.17C828.603 107.693 829.252 106.984 829.686 106.043C830.121 105.096 830.338 103.914 830.338 102.496C830.338 101.079 830.121 99.9022 829.686 98.9671C829.252 98.0261 828.609 97.3233 827.759 96.8588C826.914 96.3882 825.865 96.153 824.61 96.153H821.75V108.876ZM848.499 108.812V96.2887H851.34V108.812H848.499ZM843.658 103.971V101.13H856.181V103.971H843.658ZM874.001 93.2483V111.78H870.643V96.5149H870.535L866.201 99.2838V96.2073L870.806 93.2483H874.001ZM885.208 111.78V93.2483H892.302C893.641 93.2483 894.754 93.4594 895.641 93.8817C896.534 94.2979 897.2 94.868 897.641 95.5919C898.087 96.3158 898.31 97.1363 898.31 98.0532C898.31 98.8073 898.165 99.4528 897.876 99.9897C897.586 100.521 897.197 100.952 896.709 101.284C896.22 101.615 895.674 101.854 895.071 101.998V102.179C895.728 102.216 896.359 102.418 896.962 102.786C897.571 103.148 898.069 103.66 898.455 104.324C898.841 104.988 899.034 105.79 899.034 106.731C899.034 107.69 898.802 108.553 898.337 109.319C897.873 110.079 897.173 110.679 896.238 111.12C895.303 111.56 894.127 111.78 892.709 111.78H885.208ZM888.565 108.975H892.175C893.394 108.975 894.271 108.743 894.808 108.278C895.351 107.808 895.623 107.205 895.623 106.469C895.623 105.92 895.487 105.425 895.216 104.985C894.944 104.538 894.558 104.188 894.057 103.935C893.557 103.676 892.959 103.546 892.266 103.546H888.565V108.975ZM888.565 101.13H891.886C892.465 101.13 892.987 101.024 893.451 100.813C893.916 100.596 894.281 100.291 894.546 99.8992C894.817 99.501 894.953 99.0305 894.953 98.4876C894.953 97.7697 894.7 97.1785 894.193 96.714C893.692 96.2495 892.947 96.0172 891.958 96.0172H888.565V101.13ZM904.335 111.78H900.751L907.275 93.2483H911.42L917.953 111.78H914.37L909.42 97.0488H909.275L904.335 111.78ZM904.452 104.514H914.225V107.211H904.452V104.514ZM932.994 111.78H926.715V93.2483H933.121C934.961 93.2483 936.542 93.6193 937.863 94.3613C939.19 95.0973 940.209 96.156 940.921 97.5374C941.633 98.9189 941.989 100.572 941.989 102.496C941.989 104.427 941.63 106.086 940.912 107.473C940.2 108.861 939.172 109.925 937.826 110.667C936.487 111.409 934.877 111.78 932.994 111.78ZM930.072 108.876H932.832C934.122 108.876 935.199 108.64 936.062 108.17C936.925 107.693 937.573 106.984 938.007 106.043C938.442 105.096 938.659 103.914 938.659 102.496C938.659 101.079 938.442 99.9022 938.007 98.9671C937.573 98.0261 936.931 97.3233 936.08 96.8588C935.235 96.3882 934.186 96.153 932.931 96.153H930.072V108.876ZM945.034 111.78V97.8813H948.21V100.198H948.355C948.608 99.3955 949.042 98.7771 949.658 98.3428C950.279 97.9024 950.988 97.6822 951.784 97.6822C951.965 97.6822 952.167 97.6913 952.391 97.7094C952.62 97.7214 952.81 97.7425 952.961 97.7727V100.786C952.822 100.738 952.602 100.695 952.3 100.659C952.004 100.617 951.718 100.596 951.44 100.596C950.843 100.596 950.306 100.726 949.83 100.985C949.359 101.238 948.988 101.591 948.717 102.044C948.445 102.496 948.31 103.018 948.31 103.609V111.78H945.034ZM955.137 111.78V97.8813H958.413V111.78H955.137ZM956.784 95.9086C956.265 95.9086 955.819 95.7367 955.445 95.3929C955.071 95.043 954.884 94.6237 954.884 94.1351C954.884 93.6404 955.071 93.2211 955.445 92.8773C955.819 92.5274 956.265 92.3525 956.784 92.3525C957.309 92.3525 957.755 92.5274 958.123 92.8773C958.497 93.2211 958.684 93.6404 958.684 94.1351C958.684 94.6237 958.497 95.043 958.123 95.3929C957.755 95.7367 957.309 95.9086 956.784 95.9086ZM974.196 97.8813L969.246 111.78H965.627L960.677 97.8813H964.17L967.364 108.206H967.509L970.712 97.8813H974.196ZM982.143 112.052C980.75 112.052 979.546 111.762 978.533 111.183C977.525 110.598 976.75 109.771 976.207 108.704C975.664 107.63 975.393 106.366 975.393 104.912C975.393 103.483 975.664 102.228 976.207 101.148C976.756 100.062 977.522 99.2175 978.505 98.6142C979.489 98.0049 980.644 97.7003 981.971 97.7003C982.828 97.7003 983.636 97.8391 984.396 98.1166C985.162 98.388 985.838 98.8103 986.423 99.3834C987.014 99.9565 987.479 100.686 987.817 101.573C988.155 102.454 988.323 103.504 988.323 104.722V105.727H976.931V103.519H985.183C985.177 102.891 985.042 102.333 984.776 101.845C984.511 101.35 984.14 100.961 983.663 100.677C983.193 100.394 982.644 100.252 982.016 100.252C981.347 100.252 980.759 100.415 980.252 100.741C979.745 101.06 979.35 101.483 979.066 102.008C978.789 102.526 978.647 103.096 978.641 103.718V105.645C978.641 106.454 978.789 107.147 979.085 107.726C979.38 108.299 979.793 108.74 980.324 109.048C980.855 109.349 981.476 109.5 982.188 109.5C982.665 109.5 983.096 109.434 983.482 109.301C983.868 109.162 984.203 108.96 984.487 108.695C984.77 108.429 984.984 108.1 985.129 107.708L988.188 108.052C987.995 108.861 987.627 109.566 987.084 110.17C986.547 110.767 985.859 111.231 985.021 111.563C984.182 111.889 983.223 112.052 982.143 112.052ZM991.095 111.78V97.8813H994.271V100.198H994.416C994.669 99.3955 995.103 98.7771 995.719 98.3428C996.34 97.9024 997.049 97.6822 997.845 97.6822C998.026 97.6822 998.228 97.6913 998.451 97.7094C998.681 97.7214 998.871 97.7425 999.021 97.7727V100.786C998.883 100.738 998.662 100.695 998.361 100.659C998.065 100.617 997.779 100.596 997.501 100.596C996.904 100.596 996.367 100.726 995.89 100.985C995.42 101.238 995.049 101.591 994.777 102.044C994.506 102.496 994.37 103.018 994.37 103.609V111.78H991.095ZM1012.18 101.555L1009.2 101.881C1009.11 101.579 1008.96 101.296 1008.75 101.03C1008.55 100.765 1008.27 100.551 1007.92 100.388C1007.57 100.225 1007.14 100.143 1006.64 100.143C1005.95 100.143 1005.38 100.291 1004.92 100.587C1004.46 100.882 1004.23 101.266 1004.24 101.736C1004.23 102.14 1004.38 102.469 1004.68 102.722C1004.99 102.976 1005.5 103.184 1006.2 103.347L1008.57 103.854C1009.89 104.137 1010.86 104.586 1011.5 105.202C1012.15 105.817 1012.48 106.622 1012.48 107.618C1012.48 108.493 1012.22 109.265 1011.71 109.934C1011.21 110.598 1010.51 111.117 1009.62 111.491C1008.73 111.865 1007.7 112.052 1006.55 112.052C1004.84 112.052 1003.47 111.696 1002.44 110.984C1001.4 110.266 1000.78 109.268 1000.58 107.989L1003.78 107.681C1003.92 108.309 1004.23 108.782 1004.7 109.102C1005.17 109.422 1005.78 109.581 1006.54 109.581C1007.31 109.581 1007.94 109.422 1008.41 109.102C1008.89 108.782 1009.12 108.387 1009.12 107.916C1009.12 107.518 1008.97 107.19 1008.66 106.93C1008.36 106.671 1007.89 106.472 1007.25 106.333L1004.88 105.835C1003.55 105.558 1002.56 105.09 1001.92 104.433C1001.28 103.769 1000.97 102.931 1000.97 101.917C1000.97 101.06 1001.2 100.318 1001.67 99.691C1002.14 99.0576 1002.81 98.569 1003.65 98.2251C1004.5 97.8752 1005.48 97.7003 1006.59 97.7003C1008.22 97.7003 1009.5 98.0472 1010.44 98.7409C1011.38 99.4347 1011.96 100.373 1012.18 101.555Z" fill="black"/>
<path d="M533.231 544.248H537.339L542.841 557.677H543.058L548.559 544.248H552.668V562.78H549.446V550.049H549.274L544.153 562.726H541.746L536.624 550.021H536.452V562.78H533.231V544.248ZM560.178 563.061C559.297 563.061 558.504 562.904 557.798 562.59C557.098 562.271 556.543 561.8 556.133 561.179C555.729 560.557 555.527 559.791 555.527 558.88C555.527 558.096 555.672 557.448 555.961 556.935C556.251 556.422 556.646 556.012 557.147 555.704C557.647 555.396 558.211 555.164 558.839 555.007C559.472 554.844 560.127 554.727 560.802 554.654C561.617 554.57 562.277 554.495 562.784 554.428C563.291 554.356 563.659 554.247 563.888 554.102C564.123 553.952 564.241 553.719 564.241 553.406V553.351C564.241 552.67 564.039 552.142 563.635 551.768C563.231 551.394 562.648 551.207 561.888 551.207C561.086 551.207 560.45 551.382 559.979 551.732C559.515 552.082 559.201 552.495 559.038 552.971L555.979 552.537C556.221 551.692 556.619 550.987 557.174 550.42C557.729 549.846 558.408 549.418 559.21 549.135C560.012 548.845 560.899 548.7 561.87 548.7C562.54 548.7 563.206 548.779 563.87 548.936C564.534 549.092 565.14 549.352 565.689 549.714C566.238 550.07 566.678 550.555 567.01 551.171C567.348 551.786 567.517 552.555 567.517 553.478V562.78H564.368V560.871H564.259C564.06 561.257 563.78 561.619 563.418 561.957C563.062 562.289 562.612 562.557 562.069 562.762C561.532 562.961 560.902 563.061 560.178 563.061ZM561.029 560.654C561.686 560.654 562.256 560.524 562.739 560.265C563.222 559.999 563.593 559.649 563.852 559.215C564.117 558.781 564.25 558.307 564.25 557.794V556.157C564.148 556.241 563.973 556.319 563.725 556.392C563.484 556.464 563.212 556.528 562.911 556.582C562.609 556.636 562.311 556.684 562.015 556.727C561.719 556.769 561.463 556.805 561.246 556.835C560.757 556.902 560.32 557.01 559.934 557.161C559.548 557.312 559.243 557.523 559.02 557.794C558.797 558.06 558.685 558.404 558.685 558.826C558.685 559.429 558.905 559.885 559.346 560.192C559.786 560.5 560.347 560.654 561.029 560.654ZM570.81 562.78V548.881H574.086V562.78H570.81ZM572.457 546.909C571.939 546.909 571.492 546.737 571.118 546.393C570.744 546.043 570.557 545.624 570.557 545.135C570.557 544.64 570.744 544.221 571.118 543.877C571.492 543.527 571.939 543.352 572.457 543.352C572.982 543.352 573.429 543.527 573.797 543.877C574.171 544.221 574.358 544.64 574.358 545.135C574.358 545.624 574.171 546.043 573.797 546.393C573.429 546.737 572.982 546.909 572.457 546.909ZM580.73 554.636V562.78H577.455V548.881H580.585V551.243H580.748C581.068 550.465 581.578 549.846 582.278 549.388C582.983 548.93 583.855 548.7 584.893 548.7C585.852 548.7 586.687 548.905 587.399 549.316C588.117 549.726 588.672 550.32 589.064 551.098C589.462 551.876 589.658 552.821 589.652 553.931V562.78H586.377V554.437C586.377 553.508 586.135 552.781 585.653 552.256C585.176 551.732 584.516 551.469 583.671 551.469C583.098 551.469 582.588 551.596 582.142 551.849C581.701 552.097 581.355 552.456 581.101 552.926C580.854 553.397 580.73 553.967 580.73 554.636ZM605.728 562.78H599.448V544.248H605.854C607.694 544.248 609.275 544.619 610.596 545.361C611.923 546.097 612.943 547.156 613.654 548.537C614.366 549.919 614.722 551.572 614.722 553.496C614.722 555.427 614.363 557.086 613.645 558.473C612.933 559.861 611.905 560.925 610.56 561.667C609.22 562.409 607.61 562.78 605.728 562.78ZM602.805 559.876H605.565C606.856 559.876 607.932 559.64 608.795 559.17C609.658 558.693 610.306 557.984 610.741 557.043C611.175 556.096 611.392 554.914 611.392 553.496C611.392 552.079 611.175 550.902 610.741 549.967C610.306 549.026 609.664 548.323 608.813 547.859C607.969 547.388 606.919 547.153 605.664 547.153H602.805V559.876ZM617.767 562.78V548.881H620.943V551.198H621.088C621.341 550.395 621.776 549.777 622.391 549.343C623.012 548.902 623.721 548.682 624.517 548.682C624.698 548.682 624.901 548.691 625.124 548.709C625.353 548.721 625.543 548.743 625.694 548.773V551.786C625.555 551.738 625.335 551.695 625.033 551.659C624.738 551.617 624.451 551.596 624.174 551.596C623.576 551.596 623.039 551.726 622.563 551.985C622.092 552.238 621.721 552.591 621.45 553.044C621.178 553.496 621.043 554.018 621.043 554.609V562.78H617.767ZM627.87 562.78V548.881H631.146V562.78H627.87ZM629.517 546.909C628.998 546.909 628.552 546.737 628.178 546.393C627.804 546.043 627.617 545.624 627.617 545.135C627.617 544.64 627.804 544.221 628.178 543.877C628.552 543.527 628.998 543.352 629.517 543.352C630.042 543.352 630.488 543.527 630.856 543.877C631.23 544.221 631.417 544.64 631.417 545.135C631.417 545.624 631.23 546.043 630.856 546.393C630.488 546.737 630.042 546.909 629.517 546.909ZM646.929 548.881L641.979 562.78H638.36L633.41 548.881H636.903L640.097 559.206H640.242L643.445 548.881H646.929ZM654.876 563.052C653.483 563.052 652.279 562.762 651.266 562.183C650.258 561.598 649.483 560.771 648.94 559.704C648.397 558.63 648.126 557.366 648.126 555.912C648.126 554.483 648.397 553.228 648.94 552.148C649.489 551.062 650.255 550.217 651.239 549.614C652.222 549.005 653.377 548.7 654.704 548.7C655.561 548.7 656.369 548.839 657.129 549.117C657.896 549.388 658.571 549.81 659.156 550.383C659.748 550.956 660.212 551.686 660.55 552.573C660.888 553.454 661.057 554.504 661.057 555.722V556.727H649.664V554.519H657.917C657.911 553.891 657.775 553.333 657.509 552.845C657.244 552.35 656.873 551.961 656.396 551.677C655.926 551.394 655.377 551.252 654.75 551.252C654.08 551.252 653.492 551.415 652.985 551.741C652.478 552.06 652.083 552.483 651.8 553.008C651.522 553.526 651.38 554.096 651.374 554.718V556.645C651.374 557.454 651.522 558.147 651.818 558.726C652.113 559.299 652.527 559.74 653.057 560.048C653.588 560.349 654.21 560.5 654.922 560.5C655.398 560.5 655.829 560.434 656.215 560.301C656.602 560.162 656.936 559.96 657.22 559.695C657.503 559.429 657.718 559.1 657.862 558.708L660.921 559.052C660.728 559.861 660.36 560.566 659.817 561.17C659.28 561.767 658.592 562.231 657.754 562.563C656.915 562.889 655.956 563.052 654.876 563.052ZM663.828 562.78V548.881H667.004V551.198H667.149C667.402 550.395 667.836 549.777 668.452 549.343C669.073 548.902 669.782 548.682 670.578 548.682C670.759 548.682 670.961 548.691 671.185 548.709C671.414 548.721 671.604 548.743 671.755 548.773V551.786C671.616 551.738 671.396 551.695 671.094 551.659C670.798 551.617 670.512 551.596 670.234 551.596C669.637 551.596 669.1 551.726 668.624 551.985C668.153 552.238 667.782 552.591 667.511 553.044C667.239 553.496 667.103 554.018 667.103 554.609V562.78H663.828Z" fill="black"/>
</svg>
