<svg width="1159" height="609" viewBox="0 0 1159 609" fill="none" xmlns="http://www.w3.org/2000/svg">
<path d="M40 555.651H1088" stroke="black" stroke-opacity="0.1"/>
<rect opacity="0.3" x="44" y="556" width="190" height="53" fill="#D6424B"/>
<rect opacity="0.3" x="234" y="556" width="220" height="53" fill="#FDBE70"/>
<rect opacity="0.3" x="454" y="556" width="182" height="53" fill="#F0F8A9"/>
<rect opacity="0.3" x="636" y="556" width="271" height="53" fill="#77C6A7"/>
<rect opacity="0.3" x="907" y="556" width="77" height="53" fill="#438FB4"/>
<rect opacity="0.3" x="984" y="556" width="105" height="53" fill="#486FB0"/>
<path d="M1114.88 605V597.727H1119.24V598.509H1115.76V600.966H1118.91V601.747H1115.76V605H1114.88ZM1120.58 605V599.545H1121.39V600.369H1121.44C1121.54 600.099 1121.72 599.88 1121.98 599.712C1122.24 599.544 1122.54 599.46 1122.86 599.46C1122.93 599.46 1123 599.461 1123.1 599.464C1123.19 599.466 1123.26 599.47 1123.3 599.474V600.327C1123.28 600.32 1123.21 600.309 1123.11 600.295C1123.01 600.278 1122.9 600.27 1122.79 600.27C1122.53 600.27 1122.29 600.326 1122.08 600.437C1121.88 600.546 1121.71 600.697 1121.59 600.891C1121.47 601.083 1121.42 601.302 1121.42 601.548V605H1120.58ZM1126.42 605.114C1125.89 605.114 1125.44 604.998 1125.06 604.766C1124.68 604.531 1124.39 604.205 1124.18 603.786C1123.98 603.364 1123.88 602.874 1123.88 602.315C1123.88 601.757 1123.98 601.264 1124.18 600.838C1124.39 600.41 1124.67 600.076 1125.04 599.837C1125.41 599.595 1125.84 599.474 1126.33 599.474C1126.62 599.474 1126.9 599.522 1127.18 599.616C1127.45 599.711 1127.7 599.865 1127.93 600.078C1128.16 600.289 1128.34 600.568 1128.48 600.916C1128.61 601.264 1128.68 601.693 1128.68 602.202V602.557H1124.47V601.832H1127.83C1127.83 601.525 1127.76 601.25 1127.64 601.009C1127.52 600.767 1127.35 600.576 1127.12 600.437C1126.9 600.297 1126.64 600.227 1126.33 600.227C1126 600.227 1125.71 600.31 1125.47 600.476C1125.23 600.639 1125.04 600.852 1124.91 601.115C1124.78 601.378 1124.71 601.66 1124.71 601.96V602.443C1124.71 602.855 1124.79 603.204 1124.93 603.491C1125.07 603.775 1125.27 603.991 1125.53 604.141C1125.78 604.287 1126.08 604.361 1126.42 604.361C1126.64 604.361 1126.84 604.33 1127.02 604.268C1127.2 604.205 1127.35 604.11 1127.48 603.984C1127.61 603.857 1127.71 603.698 1127.78 603.509L1128.59 603.736C1128.51 604.01 1128.36 604.252 1128.16 604.46C1127.96 604.666 1127.71 604.827 1127.42 604.943C1127.12 605.057 1126.79 605.114 1126.42 605.114ZM1133.67 607.045V604.162H1133.6C1133.54 604.261 1133.45 604.387 1133.34 604.538C1133.23 604.687 1133.06 604.821 1132.85 604.94C1132.64 605.056 1132.36 605.114 1132.01 605.114C1131.56 605.114 1131.16 604.999 1130.81 604.769C1130.46 604.537 1130.19 604.21 1129.99 603.789C1129.8 603.365 1129.7 602.865 1129.7 602.287C1129.7 601.714 1129.8 601.217 1129.99 600.795C1130.19 600.374 1130.46 600.049 1130.81 599.819C1131.16 599.589 1131.57 599.474 1132.03 599.474C1132.38 599.474 1132.66 599.534 1132.87 599.652C1133.08 599.768 1133.24 599.901 1133.34 600.05C1133.46 600.196 1133.54 600.317 1133.6 600.412H1133.7V599.545H1134.51V607.045H1133.67ZM1132.13 604.361C1132.46 604.361 1132.75 604.273 1132.98 604.098C1133.21 603.92 1133.39 603.675 1133.51 603.363C1133.63 603.048 1133.69 602.685 1133.69 602.273C1133.69 601.866 1133.63 601.509 1133.51 601.204C1133.39 600.896 1133.22 600.657 1132.99 600.487C1132.75 600.314 1132.47 600.227 1132.13 600.227C1131.77 600.227 1131.47 600.318 1131.24 600.501C1131 600.681 1130.83 600.926 1130.71 601.236C1130.59 601.544 1130.53 601.889 1130.53 602.273C1130.53 602.661 1130.59 603.014 1130.71 603.331C1130.83 603.646 1131.01 603.897 1131.25 604.084C1131.48 604.268 1131.78 604.361 1132.13 604.361ZM1139.16 601.932C1139.16 601.037 1139.27 600.214 1139.51 599.464C1139.74 598.711 1140.07 598.018 1140.51 597.386H1141.25C1141.07 597.621 1140.91 597.91 1140.77 598.253C1140.62 598.594 1140.49 598.969 1140.38 599.379C1140.27 599.786 1140.18 600.207 1140.12 600.643C1140.05 601.078 1140.02 601.508 1140.02 601.932C1140.02 602.495 1140.08 603.067 1140.19 603.647C1140.3 604.227 1140.44 604.766 1140.63 605.263C1140.81 605.76 1141.02 606.165 1141.25 606.477H1140.51C1140.07 605.845 1139.74 605.154 1139.51 604.403C1139.27 603.651 1139.16 602.827 1139.16 601.932ZM1142.6 605V597.727H1143.48V600.966H1147.35V597.727H1148.23V605H1147.35V601.747H1143.48V605H1142.6ZM1149.73 605V604.361L1152.82 600.384V600.327H1149.83V599.545H1153.9V600.213L1150.89 604.162V604.219H1154V605H1149.73ZM1157.08 601.932C1157.08 602.827 1156.97 603.651 1156.73 604.403C1156.5 605.154 1156.17 605.845 1155.73 606.477H1155C1155.17 606.243 1155.33 605.954 1155.47 605.611C1155.62 605.27 1155.75 604.896 1155.86 604.489C1155.97 604.079 1156.06 603.656 1156.12 603.221C1156.19 602.783 1156.22 602.353 1156.22 601.932C1156.22 601.368 1156.16 600.797 1156.05 600.217C1155.95 599.637 1155.8 599.098 1155.61 598.601C1155.43 598.104 1155.22 597.699 1155 597.386H1155.73C1156.17 598.018 1156.5 598.711 1156.73 599.464C1156.97 600.214 1157.08 601.037 1157.08 601.932Z" fill="black"/>
<path d="M44.3271 570V576" stroke="black"/>
<path d="M38.9276 586.1V585.461L41.3282 582.833C41.6099 582.525 41.8419 582.258 42.0242 582.03C42.2065 581.801 42.3415 581.585 42.4291 581.384C42.519 581.181 42.564 580.968 42.564 580.745C42.564 580.489 42.5025 580.268 42.3794 580.081C42.2586 579.894 42.0929 579.749 41.8822 579.648C41.6715 579.546 41.4347 579.495 41.172 579.495C40.8926 579.495 40.6488 579.553 40.4404 579.669C40.2345 579.783 40.0747 579.942 39.961 580.148C39.8498 580.354 39.7941 580.596 39.7941 580.873H38.9561C38.9561 580.447 39.0543 580.073 39.2508 579.751C39.4473 579.429 39.7148 579.178 40.0534 578.998C40.3943 578.818 40.7766 578.728 41.2004 578.728C41.6265 578.728 42.0041 578.818 42.3332 578.998C42.6623 579.178 42.9203 579.42 43.1073 579.726C43.2944 580.031 43.3879 580.371 43.3879 580.745C43.3879 581.013 43.3393 581.274 43.2423 581.53C43.1476 581.783 42.9819 582.066 42.7451 582.379C42.5107 582.689 42.1852 583.067 41.7686 583.515L40.135 585.262V585.319H43.5157V586.1H38.9276ZM47.3545 586.2C46.8195 586.2 46.3637 586.054 45.9873 585.763C45.6109 585.469 45.3232 585.044 45.1244 584.488C44.9255 583.929 44.8261 583.254 44.8261 582.464C44.8261 581.678 44.9255 581.007 45.1244 580.45C45.3256 579.892 45.6144 579.465 45.9909 579.172C46.3696 578.876 46.8242 578.728 47.3545 578.728C47.8848 578.728 48.3382 578.876 48.7146 579.172C49.0934 579.465 49.3822 579.892 49.5811 580.45C49.7823 581.007 49.8829 581.678 49.8829 582.464C49.8829 583.254 49.7835 583.929 49.5846 584.488C49.3857 585.044 49.0981 585.469 48.7217 585.763C48.3453 586.054 47.8895 586.2 47.3545 586.2ZM47.3545 585.418C47.8848 585.418 48.2967 585.163 48.5903 584.651C48.8838 584.14 49.0306 583.411 49.0306 582.464C49.0306 581.834 48.9632 581.298 48.8282 580.855C48.6956 580.412 48.5039 580.075 48.2529 579.843C48.0044 579.611 47.7049 579.495 47.3545 579.495C46.8289 579.495 46.4182 579.754 46.1222 580.273C45.8263 580.789 45.6784 581.519 45.6784 582.464C45.6784 583.093 45.7446 583.629 45.8772 584.069C46.0098 584.509 46.2004 584.844 46.449 585.074C46.6999 585.303 47.0017 585.418 47.3545 585.418Z" fill="black"/>
<path d="M105.617 570V576" stroke="black"/>
<path d="M102.519 586.2C102.05 586.2 101.632 586.119 101.265 585.958C100.9 585.797 100.61 585.573 100.395 585.287C100.182 584.998 100.066 584.663 100.047 584.282H100.942C100.961 584.516 101.041 584.719 101.183 584.889C101.325 585.057 101.511 585.187 101.741 585.28C101.971 585.372 102.225 585.418 102.504 585.418C102.817 585.418 103.094 585.364 103.335 585.255C103.577 585.146 103.766 584.995 103.904 584.8C104.041 584.606 104.109 584.381 104.109 584.126C104.109 583.858 104.043 583.623 103.911 583.419C103.778 583.213 103.584 583.052 103.328 582.936C103.073 582.82 102.76 582.762 102.391 582.762H101.808V581.981H102.391C102.68 581.981 102.933 581.929 103.151 581.825C103.371 581.72 103.542 581.574 103.666 581.384C103.791 581.195 103.854 580.972 103.854 580.717C103.854 580.47 103.799 580.256 103.69 580.074C103.582 579.892 103.428 579.749 103.229 579.648C103.032 579.546 102.8 579.495 102.533 579.495C102.282 579.495 102.045 579.541 101.823 579.633C101.602 579.723 101.422 579.855 101.283 580.028C101.143 580.198 101.067 580.404 101.056 580.646H100.203C100.217 580.264 100.332 579.931 100.548 579.644C100.763 579.355 101.045 579.13 101.393 578.969C101.743 578.808 102.128 578.728 102.547 578.728C102.997 578.728 103.383 578.819 103.705 579.001C104.027 579.181 104.274 579.419 104.447 579.715C104.62 580.011 104.706 580.331 104.706 580.674C104.706 581.084 104.598 581.433 104.383 581.722C104.17 582.01 103.88 582.21 103.513 582.322V582.379C103.972 582.454 104.331 582.65 104.589 582.964C104.847 583.277 104.976 583.664 104.976 584.126C104.976 584.521 104.868 584.876 104.653 585.191C104.44 585.504 104.149 585.75 103.779 585.93C103.41 586.11 102.99 586.2 102.519 586.2ZM108.801 586.2C108.265 586.2 107.81 586.054 107.433 585.763C107.057 585.469 106.769 585.044 106.57 584.488C106.372 583.929 106.272 583.254 106.272 582.464C106.272 581.678 106.372 581.007 106.57 580.45C106.772 579.892 107.06 579.465 107.437 579.172C107.816 578.876 108.27 578.728 108.801 578.728C109.331 578.728 109.784 578.876 110.161 579.172C110.539 579.465 110.828 579.892 111.027 580.45C111.228 581.007 111.329 581.678 111.329 582.464C111.329 583.254 111.23 583.929 111.031 584.488C110.832 585.044 110.544 585.469 110.168 585.763C109.791 586.054 109.336 586.2 108.801 586.2ZM108.801 585.418C109.331 585.418 109.743 585.163 110.036 584.651C110.33 584.14 110.477 583.411 110.477 582.464C110.477 581.834 110.409 581.298 110.274 580.855C110.142 580.412 109.95 580.075 109.699 579.843C109.45 579.611 109.151 579.495 108.801 579.495C108.275 579.495 107.864 579.754 107.568 580.273C107.272 580.789 107.124 581.519 107.124 582.464C107.124 583.093 107.191 583.629 107.323 584.069C107.456 584.509 107.646 584.844 107.895 585.074C108.146 585.303 108.448 585.418 108.801 585.418Z" fill="black"/>
<path d="M149.103 570V576" stroke="black"/>
<path d="M143.352 584.609V583.884L146.548 578.827H147.074V579.95H146.719L144.304 583.771V583.827H148.608V584.609H143.352ZM146.776 586.1V584.388V584.051V578.827H147.614V586.1H146.776ZM152.311 586.2C151.776 586.2 151.32 586.054 150.944 585.763C150.567 585.469 150.28 585.044 150.081 584.488C149.882 583.929 149.783 583.254 149.783 582.464C149.783 581.678 149.882 581.007 150.081 580.45C150.282 579.892 150.571 579.465 150.947 579.172C151.326 578.876 151.781 578.728 152.311 578.728C152.841 578.728 153.295 578.876 153.671 579.172C154.05 579.465 154.339 579.892 154.538 580.45C154.739 581.007 154.839 581.678 154.839 582.464C154.839 583.254 154.74 583.929 154.541 584.488C154.342 585.044 154.055 585.469 153.678 585.763C153.302 586.054 152.846 586.2 152.311 586.2ZM152.311 585.418C152.841 585.418 153.253 585.163 153.547 584.651C153.84 584.14 153.987 583.411 153.987 582.464C153.987 581.834 153.92 581.298 153.785 580.855C153.652 580.412 153.46 580.075 153.209 579.843C152.961 579.611 152.661 579.495 152.311 579.495C151.785 579.495 151.375 579.754 151.079 580.273C150.783 580.789 150.635 581.519 150.635 582.464C150.635 583.093 150.701 583.629 150.834 584.069C150.966 584.509 151.157 584.844 151.405 585.074C151.656 585.303 151.958 585.418 152.311 585.418Z" fill="black"/>
<path d="M182.833 570V576" stroke="black"/>
<path d="M210.393 570V576" stroke="black"/>
<path d="M233.694 570V576" stroke="black"/>
<path d="M253.879 570V576" stroke="black"/>
<path d="M271.683 570V576" stroke="black"/>
<path d="M287.609 570V576" stroke="black"/>
<path d="M282.344 578.827V586.1H281.464V579.751H281.421L279.645 580.93V580.035L281.464 578.827H282.344ZM286.808 586.2C286.273 586.2 285.817 586.054 285.441 585.763C285.064 585.469 284.777 585.044 284.578 584.488C284.379 583.929 284.28 583.254 284.28 582.464C284.28 581.678 284.379 581.007 284.578 580.45C284.779 579.892 285.068 579.465 285.444 579.172C285.823 578.876 286.278 578.728 286.808 578.728C287.338 578.728 287.792 578.876 288.168 579.172C288.547 579.465 288.836 579.892 289.035 580.45C289.236 581.007 289.337 581.678 289.337 582.464C289.337 583.254 289.237 583.929 289.038 584.488C288.839 585.044 288.552 585.469 288.175 585.763C287.799 586.054 287.343 586.2 286.808 586.2ZM286.808 585.418C287.338 585.418 287.75 585.163 288.044 584.651C288.337 584.14 288.484 583.411 288.484 582.464C288.484 581.834 288.417 581.298 288.282 580.855C288.149 580.412 287.957 580.075 287.707 579.843C287.458 579.611 287.158 579.495 286.808 579.495C286.283 579.495 285.872 579.754 285.576 580.273C285.28 580.789 285.132 581.519 285.132 582.464C285.132 583.093 285.198 583.629 285.331 584.069C285.463 584.509 285.654 584.844 285.903 585.074C286.154 585.303 286.455 585.418 286.808 585.418ZM293.058 586.2C292.523 586.2 292.067 586.054 291.691 585.763C291.314 585.469 291.027 585.044 290.828 584.488C290.629 583.929 290.53 583.254 290.53 582.464C290.53 581.678 290.629 581.007 290.828 580.45C291.029 579.892 291.318 579.465 291.694 579.172C292.073 578.876 292.528 578.728 293.058 578.728C293.588 578.728 294.042 578.876 294.418 579.172C294.797 579.465 295.086 579.892 295.285 580.45C295.486 581.007 295.587 581.678 295.587 582.464C295.587 583.254 295.487 583.929 295.288 584.488C295.089 585.044 294.802 585.469 294.425 585.763C294.049 586.054 293.593 586.2 293.058 586.2ZM293.058 585.418C293.588 585.418 294 585.163 294.294 584.651C294.587 584.14 294.734 583.411 294.734 582.464C294.734 581.834 294.667 581.298 294.532 580.855C294.399 580.412 294.207 580.075 293.957 579.843C293.708 579.611 293.408 579.495 293.058 579.495C292.533 579.495 292.122 579.754 291.826 580.273C291.53 580.789 291.382 581.519 291.382 582.464C291.382 583.093 291.448 583.629 291.581 584.069C291.713 584.509 291.904 584.844 292.153 585.074C292.404 585.303 292.705 585.418 293.058 585.418Z" fill="black"/>
<path d="M392.385 570V576" stroke="black"/>
<path d="M383.86 586.1V585.461L386.261 582.833C386.543 582.525 386.775 582.258 386.957 582.03C387.139 581.801 387.274 581.585 387.362 581.384C387.452 581.181 387.497 580.968 387.497 580.745C387.497 580.489 387.435 580.268 387.312 580.081C387.191 579.894 387.026 579.749 386.815 579.648C386.604 579.546 386.367 579.495 386.105 579.495C385.825 579.495 385.581 579.553 385.373 579.669C385.167 579.783 385.007 579.942 384.894 580.148C384.782 580.354 384.727 580.596 384.727 580.873H383.889C383.889 580.447 383.987 580.073 384.183 579.751C384.38 579.429 384.647 579.178 384.986 578.998C385.327 578.818 385.709 578.728 386.133 578.728C386.559 578.728 386.937 578.818 387.266 578.998C387.595 579.178 387.853 579.42 388.04 579.726C388.227 580.031 388.32 580.371 388.32 580.745C388.32 581.013 388.272 581.274 388.175 581.53C388.08 581.783 387.914 582.066 387.678 582.379C387.443 582.689 387.118 583.067 386.701 583.515L385.068 585.262V585.319H388.448V586.1H383.86ZM392.287 586.2C391.752 586.2 391.296 586.054 390.92 585.763C390.544 585.469 390.256 585.044 390.057 584.488C389.858 583.929 389.759 583.254 389.759 582.464C389.759 581.678 389.858 581.007 390.057 580.45C390.258 579.892 390.547 579.465 390.923 579.172C391.302 578.876 391.757 578.728 392.287 578.728C392.817 578.728 393.271 578.876 393.647 579.172C394.026 579.465 394.315 579.892 394.514 580.45C394.715 581.007 394.816 581.678 394.816 582.464C394.816 583.254 394.716 583.929 394.517 584.488C394.318 585.044 394.031 585.469 393.654 585.763C393.278 586.054 392.822 586.2 392.287 586.2ZM392.287 585.418C392.817 585.418 393.229 585.163 393.523 584.651C393.816 584.14 393.963 583.411 393.963 582.464C393.963 581.834 393.896 581.298 393.761 580.855C393.628 580.412 393.436 580.075 393.186 579.843C392.937 579.611 392.637 579.495 392.287 579.495C391.762 579.495 391.351 579.754 391.055 580.273C390.759 580.789 390.611 581.519 390.611 582.464C390.611 583.093 390.677 583.629 390.81 584.069C390.942 584.509 391.133 584.844 391.382 585.074C391.633 585.303 391.934 585.418 392.287 585.418ZM398.537 586.2C398.002 586.2 397.546 586.054 397.17 585.763C396.794 585.469 396.506 585.044 396.307 584.488C396.108 583.929 396.009 583.254 396.009 582.464C396.009 581.678 396.108 581.007 396.307 580.45C396.508 579.892 396.797 579.465 397.173 579.172C397.552 578.876 398.007 578.728 398.537 578.728C399.067 578.728 399.521 578.876 399.897 579.172C400.276 579.465 400.565 579.892 400.764 580.45C400.965 581.007 401.066 581.678 401.066 582.464C401.066 583.254 400.966 583.929 400.767 584.488C400.568 585.044 400.281 585.469 399.904 585.763C399.528 586.054 399.072 586.2 398.537 586.2ZM398.537 585.418C399.067 585.418 399.479 585.163 399.773 584.651C400.066 584.14 400.213 583.411 400.213 582.464C400.213 581.834 400.146 581.298 400.011 580.855C399.878 580.412 399.686 580.075 399.436 579.843C399.187 579.611 398.887 579.495 398.537 579.495C398.012 579.495 397.601 579.754 397.305 580.273C397.009 580.789 396.861 581.519 396.861 582.464C396.861 583.093 396.927 583.629 397.06 584.069C397.192 584.509 397.383 584.844 397.632 585.074C397.883 585.303 398.184 585.418 398.537 585.418Z" fill="black"/>
<path d="M453.675 570V576" stroke="black"/>
<path d="M447.451 586.2C446.983 586.2 446.565 586.119 446.198 585.958C445.833 585.797 445.543 585.573 445.328 585.287C445.115 584.998 444.999 584.663 444.98 584.282H445.875C445.894 584.516 445.974 584.719 446.116 584.889C446.258 585.057 446.444 585.187 446.674 585.28C446.903 585.372 447.158 585.418 447.437 585.418C447.75 585.418 448.027 585.364 448.268 585.255C448.51 585.146 448.699 584.995 448.836 584.8C448.974 584.606 449.042 584.381 449.042 584.126C449.042 583.858 448.976 583.623 448.843 583.419C448.711 583.213 448.517 583.052 448.261 582.936C448.005 582.82 447.693 582.762 447.324 582.762H446.741V581.981H447.324C447.612 581.981 447.866 581.929 448.084 581.825C448.304 581.72 448.475 581.574 448.598 581.384C448.724 581.195 448.787 580.972 448.787 580.717C448.787 580.47 448.732 580.256 448.623 580.074C448.514 579.892 448.361 579.749 448.162 579.648C447.965 579.546 447.733 579.495 447.466 579.495C447.215 579.495 446.978 579.541 446.755 579.633C446.535 579.723 446.355 579.855 446.216 580.028C446.076 580.198 446 580.404 445.988 580.646H445.136C445.15 580.264 445.265 579.931 445.481 579.644C445.696 579.355 445.978 579.13 446.326 578.969C446.676 578.808 447.061 578.728 447.48 578.728C447.93 578.728 448.316 578.819 448.638 579.001C448.959 579.181 449.207 579.419 449.38 579.715C449.553 580.011 449.639 580.331 449.639 580.674C449.639 581.084 449.531 581.433 449.316 581.722C449.103 582.01 448.813 582.21 448.446 582.322V582.379C448.905 582.454 449.264 582.65 449.522 582.964C449.78 583.277 449.909 583.664 449.909 584.126C449.909 584.521 449.801 584.876 449.586 585.191C449.373 585.504 449.081 585.75 448.712 585.93C448.343 586.11 447.923 586.2 447.451 586.2ZM453.733 586.2C453.198 586.2 452.743 586.054 452.366 585.763C451.99 585.469 451.702 585.044 451.503 584.488C451.304 583.929 451.205 583.254 451.205 582.464C451.205 581.678 451.304 581.007 451.503 580.45C451.705 579.892 451.993 579.465 452.37 579.172C452.749 578.876 453.203 578.728 453.733 578.728C454.264 578.728 454.717 578.876 455.093 579.172C455.472 579.465 455.761 579.892 455.96 580.45C456.161 581.007 456.262 581.678 456.262 582.464C456.262 583.254 456.162 583.929 455.964 584.488C455.765 585.044 455.477 585.469 455.101 585.763C454.724 586.054 454.268 586.2 453.733 586.2ZM453.733 585.418C454.264 585.418 454.676 585.163 454.969 584.651C455.263 584.14 455.41 583.411 455.41 582.464C455.41 581.834 455.342 581.298 455.207 580.855C455.075 580.412 454.883 580.075 454.632 579.843C454.383 579.611 454.084 579.495 453.733 579.495C453.208 579.495 452.797 579.754 452.501 580.273C452.205 580.789 452.057 581.519 452.057 582.464C452.057 583.093 452.124 583.629 452.256 584.069C452.389 584.509 452.579 584.844 452.828 585.074C453.079 585.303 453.381 585.418 453.733 585.418ZM459.983 586.2C459.448 586.2 458.993 586.054 458.616 585.763C458.24 585.469 457.952 585.044 457.753 584.488C457.554 583.929 457.455 583.254 457.455 582.464C457.455 581.678 457.554 581.007 457.753 580.45C457.955 579.892 458.243 579.465 458.62 579.172C458.999 578.876 459.453 578.728 459.983 578.728C460.514 578.728 460.967 578.876 461.343 579.172C461.722 579.465 462.011 579.892 462.21 580.45C462.411 581.007 462.512 581.678 462.512 582.464C462.512 583.254 462.412 583.929 462.214 584.488C462.015 585.044 461.727 585.469 461.351 585.763C460.974 586.054 460.518 586.2 459.983 586.2ZM459.983 585.418C460.514 585.418 460.926 585.163 461.219 584.651C461.513 584.14 461.66 583.411 461.66 582.464C461.66 581.834 461.592 581.298 461.457 580.855C461.325 580.412 461.133 580.075 460.882 579.843C460.633 579.611 460.334 579.495 459.983 579.495C459.458 579.495 459.047 579.754 458.751 580.273C458.455 580.789 458.307 581.519 458.307 582.464C458.307 583.093 458.374 583.629 458.506 584.069C458.639 584.509 458.829 584.844 459.078 585.074C459.329 585.303 459.631 585.418 459.983 585.418Z" fill="black"/>
<path d="M497.161 570V576" stroke="black"/>
<path d="M488.285 584.609V583.884L491.481 578.827H492.007V579.95H491.652L489.237 583.771V583.827H493.541V584.609H488.285ZM491.708 586.1V584.388V584.051V578.827H492.546V586.1H491.708ZM497.244 586.2C496.709 586.2 496.253 586.054 495.876 585.763C495.5 585.469 495.212 585.044 495.014 584.488C494.815 583.929 494.715 583.254 494.715 582.464C494.715 581.678 494.815 581.007 495.014 580.45C495.215 579.892 495.504 579.465 495.88 579.172C496.259 578.876 496.713 578.728 497.244 578.728C497.774 578.728 498.227 578.876 498.604 579.172C498.983 579.465 499.271 579.892 499.47 580.45C499.671 581.007 499.772 581.678 499.772 582.464C499.772 583.254 499.673 583.929 499.474 584.488C499.275 585.044 498.987 585.469 498.611 585.763C498.234 586.054 497.779 586.2 497.244 586.2ZM497.244 585.418C497.774 585.418 498.186 585.163 498.479 584.651C498.773 584.14 498.92 583.411 498.92 582.464C498.92 581.834 498.852 581.298 498.717 580.855C498.585 580.412 498.393 580.075 498.142 579.843C497.894 579.611 497.594 579.495 497.244 579.495C496.718 579.495 496.307 579.754 496.011 580.273C495.715 580.789 495.568 581.519 495.568 582.464C495.568 583.093 495.634 583.629 495.766 584.069C495.899 584.509 496.09 584.844 496.338 585.074C496.589 585.303 496.891 585.418 497.244 585.418ZM503.494 586.2C502.959 586.2 502.503 586.054 502.126 585.763C501.75 585.469 501.462 585.044 501.264 584.488C501.065 583.929 500.965 583.254 500.965 582.464C500.965 581.678 501.065 581.007 501.264 580.45C501.465 579.892 501.754 579.465 502.13 579.172C502.509 578.876 502.963 578.728 503.494 578.728C504.024 578.728 504.477 578.876 504.854 579.172C505.233 579.465 505.521 579.892 505.72 580.45C505.921 581.007 506.022 581.678 506.022 582.464C506.022 583.254 505.923 583.929 505.724 584.488C505.525 585.044 505.237 585.469 504.861 585.763C504.484 586.054 504.029 586.2 503.494 586.2ZM503.494 585.418C504.024 585.418 504.436 585.163 504.729 584.651C505.023 584.14 505.17 583.411 505.17 582.464C505.17 581.834 505.102 581.298 504.967 580.855C504.835 580.412 504.643 580.075 504.392 579.843C504.144 579.611 503.844 579.495 503.494 579.495C502.968 579.495 502.557 579.754 502.261 580.273C501.965 580.789 501.818 581.519 501.818 582.464C501.818 583.093 501.884 583.629 502.016 584.069C502.149 584.509 502.34 584.844 502.588 585.074C502.839 585.303 503.141 585.418 503.494 585.418Z" fill="black"/>
<path d="M530.891 570V576" stroke="black"/>
<path d="M558.45 570V576" stroke="black"/>
<path d="M581.752 570V576" stroke="black"/>
<path d="M601.937 570V576" stroke="black"/>
<path d="M619.74 570V576" stroke="black"/>
<path d="M635.667 570V576" stroke="black"/>
<path d="M633.932 578.827V586.1H633.052V579.751H633.009L631.234 580.93V580.035L633.052 578.827H633.932ZM636.82 584.111L636.805 583.075H636.976L639.362 580.646H640.399L637.856 583.217H637.785L636.82 584.111ZM636.038 586.1V578.827H636.876V586.1H636.038ZM639.504 586.1L637.374 583.401L637.97 582.819L640.57 586.1H639.504Z" fill="black"/>
<path d="M740.442 570V576" stroke="black"/>
<path d="M735.448 586.1V585.461L737.849 582.833C738.13 582.525 738.362 582.258 738.545 582.03C738.727 581.801 738.862 581.585 738.95 581.384C739.04 581.181 739.085 580.968 739.085 580.745C739.085 580.489 739.023 580.268 738.9 580.081C738.779 579.894 738.613 579.749 738.403 579.648C738.192 579.546 737.955 579.495 737.692 579.495C737.413 579.495 737.169 579.553 736.961 579.669C736.755 579.783 736.595 579.942 736.482 580.148C736.37 580.354 736.315 580.596 736.315 580.873H735.477C735.477 580.447 735.575 580.073 735.771 579.751C735.968 579.429 736.235 579.178 736.574 578.998C736.915 578.818 737.297 578.728 737.721 578.728C738.147 578.728 738.525 578.818 738.854 578.998C739.183 579.178 739.441 579.42 739.628 579.726C739.815 580.031 739.908 580.371 739.908 580.745C739.908 581.013 739.86 581.274 739.763 581.53C739.668 581.783 739.502 582.066 739.266 582.379C739.031 582.689 738.706 583.067 738.289 583.515L736.656 585.262V585.319H740.036V586.1H735.448ZM742.298 584.111L742.284 583.075H742.455L744.841 580.646H745.878L743.335 583.217H743.264L742.298 584.111ZM741.517 586.1V578.827H742.355V586.1H741.517ZM744.983 586.1L742.852 583.401L743.449 582.819L746.048 586.1H744.983Z" fill="black"/>
<path d="M801.732 570V576" stroke="black"/>
<path d="M799.039 586.2C798.571 586.2 798.153 586.119 797.786 585.958C797.421 585.797 797.131 585.573 796.916 585.287C796.703 584.998 796.587 584.663 796.568 584.282H797.463C797.482 584.516 797.562 584.719 797.704 584.889C797.846 585.057 798.032 585.187 798.262 585.28C798.491 585.372 798.746 585.418 799.025 585.418C799.338 585.418 799.615 585.364 799.856 585.255C800.098 585.146 800.287 584.995 800.424 584.8C800.562 584.606 800.63 584.381 800.63 584.126C800.63 583.858 800.564 583.623 800.431 583.419C800.299 583.213 800.105 583.052 799.849 582.936C799.593 582.82 799.281 582.762 798.911 582.762H798.329V581.981H798.911C799.2 581.981 799.454 581.929 799.671 581.825C799.892 581.72 800.063 581.574 800.186 581.384C800.312 581.195 800.375 580.972 800.375 580.717C800.375 580.47 800.32 580.256 800.211 580.074C800.102 579.892 799.948 579.749 799.75 579.648C799.553 579.546 799.321 579.495 799.054 579.495C798.803 579.495 798.566 579.541 798.343 579.633C798.123 579.723 797.943 579.855 797.804 580.028C797.664 580.198 797.588 580.404 797.576 580.646H796.724C796.738 580.264 796.853 579.931 797.068 579.644C797.284 579.355 797.566 579.13 797.914 578.969C798.264 578.808 798.649 578.728 799.068 578.728C799.518 578.728 799.903 578.819 800.225 579.001C800.547 579.181 800.795 579.419 800.968 579.715C801.14 580.011 801.227 580.331 801.227 580.674C801.227 581.084 801.119 581.433 800.904 581.722C800.691 582.01 800.401 582.21 800.034 582.322V582.379C800.493 582.454 800.852 582.65 801.11 582.964C801.368 583.277 801.497 583.664 801.497 584.126C801.497 584.521 801.389 584.876 801.174 585.191C800.96 585.504 800.669 585.75 800.3 585.93C799.931 586.11 799.51 586.2 799.039 586.2ZM803.745 584.111L803.73 583.075H803.901L806.287 580.646H807.324L804.782 583.217H804.71L803.745 584.111ZM802.963 586.1V578.827H803.801V586.1H802.963ZM806.429 586.1L804.299 583.401L804.895 582.819L807.495 586.1H806.429Z" fill="black"/>
<path d="M845.218 570V576" stroke="black"/>
<path d="M839.873 584.609V583.884L843.069 578.827H843.595V579.95H843.239L840.825 583.771V583.827H845.129V584.609H839.873ZM843.296 586.1V584.388V584.051V578.827H844.134V586.1H843.296ZM847.255 584.111L847.241 583.075H847.411L849.797 580.646H850.834L848.292 583.217H848.221L847.255 584.111ZM846.474 586.1V578.827H847.312V586.1H846.474ZM849.939 586.1L847.809 583.401L848.405 582.819L851.005 586.1H849.939Z" fill="black"/>
<path d="M878.948 570V576" stroke="black"/>
<path d="M906.508 570V576" stroke="black"/>
<path d="M929.81 570V576" stroke="black"/>
<path d="M949.994 570V576" stroke="black"/>
<path d="M967.798 570V576" stroke="black"/>
<path d="M983.724 570V576" stroke="black"/>
<path d="M978.865 578.827V586.1H977.984V579.751H977.942L976.166 580.93V580.035L977.984 578.827H978.865ZM983.329 586.2C982.794 586.2 982.338 586.054 981.961 585.763C981.585 585.469 981.297 585.044 981.098 584.488C980.9 583.929 980.8 583.254 980.8 582.464C980.8 581.678 980.9 581.007 981.098 580.45C981.3 579.892 981.589 579.465 981.965 579.172C982.344 578.876 982.798 578.728 983.329 578.728C983.859 578.728 984.312 578.876 984.689 579.172C985.067 579.465 985.356 579.892 985.555 580.45C985.756 581.007 985.857 581.678 985.857 582.464C985.857 583.254 985.758 583.929 985.559 584.488C985.36 585.044 985.072 585.469 984.696 585.763C984.319 586.054 983.864 586.2 983.329 586.2ZM983.329 585.418C983.859 585.418 984.271 585.163 984.564 584.651C984.858 584.14 985.005 583.411 985.005 582.464C985.005 581.834 984.937 581.298 984.802 580.855C984.67 580.412 984.478 580.075 984.227 579.843C983.978 579.611 983.679 579.495 983.329 579.495C982.803 579.495 982.392 579.754 982.096 580.273C981.8 580.789 981.652 581.519 981.652 582.464C981.652 583.093 981.719 583.629 981.851 584.069C981.984 584.509 982.174 584.844 982.423 585.074C982.674 585.303 982.976 585.418 983.329 585.418ZM988.002 584.111L987.988 583.075H988.158L990.545 580.646H991.581L989.039 583.217H988.968L988.002 584.111ZM987.221 586.1V578.827H988.059V586.1H987.221ZM990.687 586.1L988.556 583.401L989.152 582.819L991.752 586.1H990.687Z" fill="black"/>
<path d="M1088.5 570V576" stroke="black"/>
<path d="M1080.38 586.1V585.461L1082.78 582.833C1083.06 582.525 1083.3 582.258 1083.48 582.03C1083.66 581.801 1083.79 581.585 1083.88 581.384C1083.97 581.181 1084.02 580.968 1084.02 580.745C1084.02 580.489 1083.96 580.268 1083.83 580.081C1083.71 579.894 1083.55 579.749 1083.34 579.648C1083.12 579.546 1082.89 579.495 1082.63 579.495C1082.35 579.495 1082.1 579.553 1081.89 579.669C1081.69 579.783 1081.53 579.942 1081.41 580.148C1081.3 580.354 1081.25 580.596 1081.25 580.873H1080.41C1080.41 580.447 1080.51 580.073 1080.7 579.751C1080.9 579.429 1081.17 579.178 1081.51 578.998C1081.85 578.818 1082.23 578.728 1082.65 578.728C1083.08 578.728 1083.46 578.818 1083.79 578.998C1084.12 579.178 1084.37 579.42 1084.56 579.726C1084.75 580.031 1084.84 580.371 1084.84 580.745C1084.84 581.013 1084.79 581.274 1084.7 581.53C1084.6 581.783 1084.43 582.066 1084.2 582.379C1083.96 582.689 1083.64 583.067 1083.22 583.515L1081.59 585.262V585.319H1084.97V586.1H1080.38ZM1088.81 586.2C1088.27 586.2 1087.82 586.054 1087.44 585.763C1087.06 585.469 1086.78 585.044 1086.58 584.488C1086.38 583.929 1086.28 583.254 1086.28 582.464C1086.28 581.678 1086.38 581.007 1086.58 580.45C1086.78 579.892 1087.07 579.465 1087.44 579.172C1087.82 578.876 1088.28 578.728 1088.81 578.728C1089.34 578.728 1089.79 578.876 1090.17 579.172C1090.55 579.465 1090.84 579.892 1091.03 580.45C1091.24 581.007 1091.34 581.678 1091.34 582.464C1091.34 583.254 1091.24 583.929 1091.04 584.488C1090.84 585.044 1090.55 585.469 1090.17 585.763C1089.8 586.054 1089.34 586.2 1088.81 586.2ZM1088.81 585.418C1089.34 585.418 1089.75 585.163 1090.04 584.651C1090.34 584.14 1090.48 583.411 1090.48 582.464C1090.48 581.834 1090.42 581.298 1090.28 580.855C1090.15 580.412 1089.96 580.075 1089.71 579.843C1089.46 579.611 1089.16 579.495 1088.81 579.495C1088.28 579.495 1087.87 579.754 1087.58 580.273C1087.28 580.789 1087.13 581.519 1087.13 582.464C1087.13 583.093 1087.2 583.629 1087.33 584.069C1087.46 584.509 1087.65 584.844 1087.9 585.074C1088.15 585.303 1088.45 585.418 1088.81 585.418ZM1093.48 584.111L1093.47 583.075H1093.64L1096.02 580.646H1097.06L1094.52 583.217H1094.45L1093.48 584.111ZM1092.7 586.1V578.827H1093.54V586.1H1092.7ZM1096.17 586.1L1094.03 583.401L1094.63 582.819L1097.23 586.1H1096.17Z" fill="black"/>
<path opacity="0.7" d="M80.5 437L65.5 429.84V447.16L80.5 440V437ZM445.5 440L460.5 447.16V429.84L445.5 437V440ZM79 440H447V437H79V440Z" fill="url(#paint0_linear_117_24662)"/>
<path opacity="0.7" d="M134.5 381L119.5 373.84V391.16L134.5 384V381ZM520.5 384L535.5 391.16V373.84L520.5 381V384ZM133 384H522V381H133V384Z" fill="url(#paint1_linear_117_24662)"/>
<path opacity="0.7" d="M405.5 326L390.5 318.84V336.16L405.5 329V326ZM686.5 329L701.5 336.16V318.84L686.5 326V329ZM404 329H688V326H404V329Z" fill="url(#paint2_linear_117_24662)"/>
<path opacity="0.7" d="M375.5 216L360.5 208.84V226.16L375.5 219V216ZM816.5 219L831.5 226.16V208.84L816.5 216V219ZM374 219H818V216H374V219Z" fill="url(#paint3_linear_117_24662)"/>
<path opacity="0.7" d="M405.5 273L390.5 265.84V283.16L405.5 276V273ZM884.5 276L899.5 283.16V265.84L884.5 273V276ZM404 276H886V273H404V276Z" fill="url(#paint4_linear_117_24662)"/>
<path opacity="0.7" d="M552.5 163L537.5 155.84V173.16L552.5 166V163ZM1065.5 166L1080.5 173.16V155.84L1065.5 163V166ZM551 166H1067V163H551V166Z" fill="url(#paint5_linear_117_24662)"/>
<path opacity="0.7" d="M586.5 110L571.5 102.84L571.5 120.16L586.5 113L586.5 110ZM1065.5 113L1080.5 120.16L1080.5 102.84L1065.5 110L1065.5 113ZM585 113L1067 113L1067 110L585 110L585 113Z" fill="url(#paint6_linear_117_24662)"/>
<path d="M214.749 424V409.678H217.344V416.259H217.518L223.106 409.678H226.274L220.735 416.105L226.323 424H223.204L218.931 417.86L217.344 419.734V424H214.749ZM228.637 424V413.259H231.169V424H228.637ZM229.91 411.734C229.509 411.734 229.164 411.601 228.875 411.336C228.586 411.065 228.441 410.741 228.441 410.364C228.441 409.981 228.586 409.657 228.875 409.392C229.164 409.121 229.509 408.986 229.91 408.986C230.316 408.986 230.661 409.121 230.945 409.392C231.234 409.657 231.378 409.981 231.378 410.364C231.378 410.741 231.234 411.065 230.945 411.336C230.661 411.601 230.316 411.734 229.91 411.734ZM238.457 424.21C237.385 424.21 236.464 423.974 235.695 423.503C234.93 423.033 234.341 422.382 233.926 421.552C233.515 420.718 233.31 419.758 233.31 418.671C233.31 417.58 233.52 416.618 233.94 415.783C234.359 414.944 234.951 414.291 235.716 413.825C236.485 413.354 237.394 413.119 238.443 413.119C239.315 413.119 240.087 413.28 240.758 413.601C241.434 413.918 241.972 414.368 242.373 414.951C242.774 415.529 243.003 416.205 243.059 416.979H240.639C240.541 416.462 240.308 416.03 239.94 415.685C239.576 415.336 239.089 415.161 238.478 415.161C237.961 415.161 237.506 415.301 237.115 415.58C236.723 415.855 236.418 416.252 236.198 416.769C235.984 417.287 235.877 417.907 235.877 418.629C235.877 419.361 235.984 419.991 236.198 420.517C236.413 421.04 236.714 421.443 237.101 421.727C237.492 422.007 237.951 422.147 238.478 422.147C238.851 422.147 239.184 422.077 239.478 421.937C239.777 421.793 240.026 421.585 240.226 421.315C240.427 421.044 240.564 420.716 240.639 420.329H243.059C242.998 421.089 242.774 421.762 242.387 422.35C242 422.932 241.473 423.389 240.807 423.72C240.14 424.047 239.357 424.21 238.457 424.21ZM247.445 420.629L247.438 417.573H247.844L251.704 413.259H254.662L249.913 418.545H249.389L247.445 420.629ZM245.137 424V409.678H247.669V424H245.137ZM251.878 424L248.382 419.112L250.088 417.329L254.906 424H251.878ZM266.198 424H261.345V409.678H266.296C267.718 409.678 268.94 409.965 269.961 410.538C270.986 411.107 271.774 411.925 272.324 412.993C272.874 414.061 273.149 415.338 273.149 416.825C273.149 418.317 272.872 419.599 272.317 420.671C271.767 421.744 270.972 422.566 269.933 423.14C268.898 423.713 267.653 424 266.198 424ZM263.94 421.755H266.073C267.07 421.755 267.902 421.573 268.569 421.21C269.236 420.841 269.737 420.294 270.073 419.566C270.408 418.834 270.576 417.921 270.576 416.825C270.576 415.73 270.408 414.821 270.073 414.098C269.737 413.371 269.24 412.828 268.583 412.469C267.93 412.105 267.119 411.923 266.149 411.923H263.94V421.755ZM275.503 424V413.259H277.957V415.049H278.069C278.265 414.429 278.601 413.951 279.076 413.615C279.556 413.275 280.104 413.105 280.719 413.105C280.859 413.105 281.015 413.112 281.188 413.126C281.365 413.135 281.512 413.152 281.628 413.175V415.503C281.521 415.466 281.351 415.434 281.118 415.406C280.89 415.373 280.668 415.357 280.454 415.357C279.992 415.357 279.577 415.457 279.209 415.657C278.845 415.853 278.559 416.126 278.349 416.476C278.139 416.825 278.034 417.228 278.034 417.685V424H275.503ZM290.156 419.483V413.259H292.688V424H290.233V422.091H290.122C289.879 422.692 289.48 423.184 288.926 423.566C288.376 423.949 287.697 424.14 286.891 424.14C286.187 424.14 285.564 423.984 285.024 423.671C284.487 423.354 284.068 422.895 283.765 422.294C283.462 421.688 283.31 420.956 283.31 420.098V413.259H285.842V419.706C285.842 420.387 286.028 420.928 286.401 421.329C286.774 421.73 287.264 421.93 287.87 421.93C288.243 421.93 288.604 421.839 288.954 421.657C289.303 421.476 289.59 421.205 289.814 420.846C290.042 420.483 290.156 420.028 290.156 419.483ZM295.291 424V413.259H297.711V415.084H297.837C298.06 414.469 298.431 413.988 298.948 413.643C299.466 413.294 300.084 413.119 300.802 413.119C301.529 413.119 302.142 413.296 302.641 413.65C303.144 414 303.499 414.478 303.704 415.084H303.816C304.053 414.487 304.454 414.012 305.018 413.657C305.587 413.298 306.261 413.119 307.039 413.119C308.028 413.119 308.834 413.431 309.459 414.056C310.084 414.681 310.396 415.592 310.396 416.79V424H307.858V417.182C307.858 416.515 307.68 416.028 307.326 415.72C306.972 415.408 306.538 415.252 306.025 415.252C305.415 415.252 304.937 415.443 304.592 415.825C304.251 416.203 304.081 416.695 304.081 417.301V424H301.599V417.077C301.599 416.522 301.431 416.079 301.095 415.748C300.764 415.417 300.331 415.252 299.795 415.252C299.431 415.252 299.1 415.345 298.802 415.531C298.503 415.713 298.265 415.972 298.088 416.308C297.911 416.639 297.823 417.026 297.823 417.469V424H295.291Z" fill="#5B5B5B"/>
<path d="M264.749 368V353.678H270.232C271.267 353.678 272.127 353.841 272.812 354.168C273.502 354.49 274.017 354.93 274.358 355.49C274.703 356.049 274.875 356.683 274.875 357.392C274.875 357.974 274.763 358.473 274.539 358.888C274.316 359.298 274.015 359.632 273.637 359.888C273.26 360.145 272.838 360.329 272.372 360.441V360.58C272.88 360.608 273.367 360.765 273.833 361.049C274.304 361.329 274.689 361.725 274.987 362.238C275.285 362.751 275.434 363.371 275.434 364.098C275.434 364.839 275.255 365.506 274.896 366.098C274.537 366.685 273.996 367.149 273.274 367.49C272.551 367.83 271.642 368 270.546 368H264.749ZM267.344 365.832H270.134C271.075 365.832 271.754 365.653 272.169 365.294C272.588 364.93 272.798 364.464 272.798 363.895C272.798 363.471 272.693 363.089 272.483 362.748C272.274 362.403 271.975 362.133 271.588 361.937C271.201 361.737 270.74 361.636 270.204 361.636H267.344V365.832ZM267.344 359.769H269.91C270.358 359.769 270.761 359.688 271.12 359.524C271.479 359.357 271.761 359.121 271.966 358.818C272.176 358.51 272.281 358.147 272.281 357.727C272.281 357.172 272.085 356.716 271.693 356.357C271.306 355.998 270.73 355.818 269.966 355.818H267.344V359.769ZM280.67 368.217C279.99 368.217 279.377 368.096 278.831 367.853C278.29 367.606 277.862 367.242 277.545 366.762C277.232 366.282 277.076 365.69 277.076 364.986C277.076 364.38 277.188 363.879 277.412 363.483C277.635 363.086 277.941 362.769 278.328 362.531C278.715 362.294 279.151 362.114 279.635 361.993C280.125 361.867 280.631 361.776 281.153 361.72C281.782 361.655 282.293 361.597 282.684 361.545C283.076 361.49 283.36 361.406 283.538 361.294C283.719 361.177 283.81 360.998 283.81 360.755V360.713C283.81 360.186 283.654 359.779 283.342 359.49C283.029 359.2 282.58 359.056 281.992 359.056C281.372 359.056 280.88 359.191 280.517 359.462C280.158 359.732 279.915 360.051 279.789 360.42L277.426 360.084C277.612 359.431 277.92 358.886 278.349 358.448C278.778 358.005 279.302 357.674 279.922 357.455C280.542 357.231 281.228 357.119 281.978 357.119C282.496 357.119 283.011 357.179 283.524 357.301C284.036 357.422 284.505 357.622 284.929 357.902C285.353 358.177 285.694 358.552 285.95 359.028C286.211 359.503 286.342 360.098 286.342 360.811V368H283.908V366.524H283.824C283.67 366.823 283.454 367.103 283.174 367.364C282.899 367.62 282.552 367.828 282.132 367.986C281.717 368.14 281.23 368.217 280.67 368.217ZM281.328 366.357C281.836 366.357 282.277 366.256 282.649 366.056C283.022 365.851 283.309 365.58 283.51 365.245C283.715 364.909 283.817 364.543 283.817 364.147V362.881C283.738 362.946 283.603 363.007 283.412 363.063C283.225 363.119 283.015 363.168 282.782 363.21C282.549 363.252 282.318 363.289 282.09 363.322C281.862 363.354 281.663 363.382 281.496 363.406C281.118 363.457 280.78 363.541 280.482 363.657C280.183 363.774 279.948 363.937 279.775 364.147C279.603 364.352 279.517 364.618 279.517 364.944C279.517 365.41 279.687 365.762 280.027 366C280.367 366.238 280.801 366.357 281.328 366.357ZM297.377 360.098L295.069 360.35C295.004 360.117 294.89 359.897 294.726 359.692C294.568 359.487 294.353 359.322 294.083 359.196C293.813 359.07 293.482 359.007 293.09 359.007C292.563 359.007 292.12 359.121 291.761 359.35C291.407 359.578 291.232 359.874 291.237 360.238C291.232 360.55 291.346 360.804 291.58 361C291.817 361.196 292.209 361.357 292.754 361.483L294.587 361.874C295.603 362.093 296.358 362.441 296.852 362.916C297.351 363.392 297.603 364.014 297.608 364.783C297.603 365.459 297.405 366.056 297.013 366.573C296.626 367.086 296.088 367.487 295.398 367.776C294.708 368.065 293.915 368.21 293.02 368.21C291.705 368.21 290.647 367.935 289.845 367.385C289.043 366.83 288.566 366.058 288.412 365.07L290.88 364.832C290.992 365.317 291.23 365.683 291.594 365.93C291.957 366.177 292.43 366.301 293.013 366.301C293.615 366.301 294.097 366.177 294.461 365.93C294.829 365.683 295.013 365.378 295.013 365.014C295.013 364.706 294.894 364.452 294.656 364.252C294.423 364.051 294.06 363.897 293.566 363.79L291.733 363.406C290.703 363.191 289.941 362.83 289.447 362.322C288.953 361.809 288.708 361.161 288.712 360.378C288.708 359.716 288.887 359.142 289.251 358.657C289.619 358.168 290.13 357.79 290.782 357.524C291.44 357.254 292.197 357.119 293.055 357.119C294.314 357.119 295.304 357.387 296.027 357.923C296.754 358.459 297.204 359.184 297.377 360.098ZM308.184 360.098L305.877 360.35C305.811 360.117 305.697 359.897 305.534 359.692C305.376 359.487 305.161 359.322 304.891 359.196C304.62 359.07 304.289 359.007 303.898 359.007C303.371 359.007 302.928 359.121 302.569 359.35C302.215 359.578 302.04 359.874 302.045 360.238C302.04 360.55 302.154 360.804 302.387 361C302.625 361.196 303.017 361.357 303.562 361.483L305.394 361.874C306.411 362.093 307.166 362.441 307.66 362.916C308.159 363.392 308.411 364.014 308.415 364.783C308.411 365.459 308.212 366.056 307.821 366.573C307.434 367.086 306.895 367.487 306.205 367.776C305.515 368.065 304.723 368.21 303.828 368.21C302.513 368.21 301.455 367.935 300.653 367.385C299.851 366.83 299.373 366.058 299.219 365.07L301.688 364.832C301.8 365.317 302.038 365.683 302.401 365.93C302.765 366.177 303.238 366.301 303.821 366.301C304.422 366.301 304.905 366.177 305.268 365.93C305.637 365.683 305.821 365.378 305.821 365.014C305.821 364.706 305.702 364.452 305.464 364.252C305.231 364.051 304.867 363.897 304.373 363.79L302.541 363.406C301.511 363.191 300.749 362.83 300.254 362.322C299.76 361.809 299.515 361.161 299.52 360.378C299.515 359.716 299.695 359.142 300.059 358.657C300.427 358.168 300.937 357.79 301.59 357.524C302.247 357.254 303.005 357.119 303.863 357.119C305.122 357.119 306.112 357.387 306.835 357.923C307.562 358.459 308.012 359.184 308.184 360.098ZM325.094 358.252C324.977 357.874 324.816 357.536 324.611 357.238C324.411 356.935 324.168 356.676 323.884 356.462C323.604 356.247 323.282 356.086 322.919 355.979C322.555 355.867 322.159 355.811 321.73 355.811C320.961 355.811 320.275 356.005 319.674 356.392C319.073 356.779 318.599 357.347 318.254 358.098C317.914 358.844 317.744 359.753 317.744 360.825C317.744 361.907 317.914 362.823 318.254 363.573C318.595 364.324 319.068 364.895 319.674 365.287C320.28 365.674 320.984 365.867 321.786 365.867C322.513 365.867 323.142 365.727 323.674 365.448C324.21 365.168 324.623 364.772 324.912 364.259C325.201 363.741 325.345 363.135 325.345 362.441L325.933 362.531H322.045V360.503H327.856V362.224C327.856 363.45 327.595 364.51 327.073 365.406C326.55 366.301 325.832 366.991 324.919 367.476C324.005 367.956 322.956 368.196 321.772 368.196C320.453 368.196 319.294 367.9 318.296 367.308C317.303 366.711 316.527 365.865 315.968 364.769C315.413 363.669 315.135 362.364 315.135 360.853C315.135 359.697 315.299 358.664 315.625 357.755C315.956 356.846 316.418 356.075 317.01 355.441C317.602 354.802 318.296 354.317 319.094 353.986C319.891 353.65 320.758 353.483 321.695 353.483C322.487 353.483 323.226 353.599 323.912 353.832C324.597 354.061 325.205 354.387 325.737 354.811C326.273 355.235 326.714 355.739 327.059 356.322C327.404 356.904 327.63 357.548 327.737 358.252H325.094ZM337.099 363.483V357.259H339.63V368H337.176V366.091H337.064C336.821 366.692 336.423 367.184 335.868 367.566C335.318 367.949 334.64 368.14 333.833 368.14C333.129 368.14 332.507 367.984 331.966 367.671C331.43 367.354 331.01 366.895 330.707 366.294C330.404 365.688 330.253 364.956 330.253 364.098V357.259H332.784V363.706C332.784 364.387 332.971 364.928 333.344 365.329C333.716 365.73 334.206 365.93 334.812 365.93C335.185 365.93 335.546 365.839 335.896 365.657C336.246 365.476 336.532 365.205 336.756 364.846C336.985 364.483 337.099 364.028 337.099 363.483ZM342.233 368V357.259H344.765V368H342.233ZM343.506 355.734C343.105 355.734 342.76 355.601 342.471 355.336C342.182 355.065 342.038 354.741 342.038 354.364C342.038 353.981 342.182 353.657 342.471 353.392C342.76 353.121 343.105 352.986 343.506 352.986C343.912 352.986 344.257 353.121 344.541 353.392C344.83 353.657 344.975 353.981 344.975 354.364C344.975 354.741 344.83 355.065 344.541 355.336C344.257 355.601 343.912 355.734 343.506 355.734ZM352.732 357.259V359.217H346.557V357.259H352.732ZM348.081 354.685H350.613V364.769C350.613 365.11 350.664 365.371 350.767 365.552C350.874 365.73 351.014 365.851 351.186 365.916C351.359 365.981 351.55 366.014 351.76 366.014C351.918 366.014 352.063 366.002 352.193 365.979C352.328 365.956 352.431 365.935 352.501 365.916L352.927 367.895C352.792 367.942 352.599 367.993 352.347 368.049C352.1 368.105 351.797 368.138 351.438 368.147C350.804 368.166 350.233 368.07 349.725 367.86C349.216 367.646 348.813 367.315 348.515 366.867C348.221 366.42 348.077 365.86 348.081 365.189V354.685ZM357.94 368.217C357.259 368.217 356.646 368.096 356.101 367.853C355.56 367.606 355.131 367.242 354.814 366.762C354.501 366.282 354.345 365.69 354.345 364.986C354.345 364.38 354.457 363.879 354.681 363.483C354.905 363.086 355.21 362.769 355.597 362.531C355.984 362.294 356.42 362.114 356.905 361.993C357.394 361.867 357.9 361.776 358.422 361.72C359.052 361.655 359.562 361.597 359.954 361.545C360.345 361.49 360.63 361.406 360.807 361.294C360.989 361.177 361.08 360.998 361.08 360.755V360.713C361.08 360.186 360.923 359.779 360.611 359.49C360.299 359.2 359.849 359.056 359.261 359.056C358.641 359.056 358.149 359.191 357.786 359.462C357.427 359.732 357.184 360.051 357.059 360.42L354.695 360.084C354.881 359.431 355.189 358.886 355.618 358.448C356.047 358.005 356.571 357.674 357.191 357.455C357.811 357.231 358.497 357.119 359.247 357.119C359.765 357.119 360.28 357.179 360.793 357.301C361.306 357.422 361.774 357.622 362.198 357.902C362.623 358.177 362.963 358.552 363.219 359.028C363.48 359.503 363.611 360.098 363.611 360.811V368H361.177V366.524H361.094C360.94 366.823 360.723 367.103 360.443 367.364C360.168 367.62 359.821 367.828 359.401 367.986C358.986 368.14 358.499 368.217 357.94 368.217ZM358.597 366.357C359.105 366.357 359.546 366.256 359.919 366.056C360.292 365.851 360.578 365.58 360.779 365.245C360.984 364.909 361.087 364.543 361.087 364.147V362.881C361.007 362.946 360.872 363.007 360.681 363.063C360.494 363.119 360.285 363.168 360.052 363.21C359.818 363.252 359.588 363.289 359.359 363.322C359.131 363.354 358.933 363.382 358.765 363.406C358.387 363.457 358.049 363.541 357.751 363.657C357.453 363.774 357.217 363.937 357.045 364.147C356.872 364.352 356.786 364.618 356.786 364.944C356.786 365.41 356.956 365.762 357.296 366C357.637 366.238 358.07 366.357 358.597 366.357ZM366.156 368V357.259H368.611V359.049H368.723C368.919 358.429 369.254 357.951 369.73 357.615C370.21 357.275 370.758 357.105 371.373 357.105C371.513 357.105 371.669 357.112 371.842 357.126C372.019 357.135 372.166 357.152 372.282 357.175V359.503C372.175 359.466 372.005 359.434 371.772 359.406C371.543 359.373 371.322 359.357 371.108 359.357C370.646 359.357 370.231 359.457 369.863 359.657C369.499 359.853 369.212 360.126 369.003 360.476C368.793 360.825 368.688 361.228 368.688 361.685V368H366.156Z" fill="#5B5B5B"/>
<path d="M496.321 301.615C496.256 301.005 495.98 300.529 495.496 300.189C495.015 299.848 494.391 299.678 493.622 299.678C493.081 299.678 492.617 299.76 492.23 299.923C491.843 300.086 491.547 300.308 491.342 300.587C491.137 300.867 491.032 301.186 491.027 301.545C491.027 301.844 491.095 302.103 491.23 302.322C491.37 302.541 491.559 302.727 491.796 302.881C492.034 303.03 492.297 303.156 492.587 303.259C492.876 303.361 493.167 303.448 493.461 303.517L494.803 303.853C495.344 303.979 495.864 304.149 496.363 304.364C496.866 304.578 497.316 304.848 497.712 305.175C498.113 305.501 498.43 305.895 498.663 306.357C498.897 306.818 499.013 307.359 499.013 307.979C499.013 308.818 498.799 309.557 498.37 310.196C497.941 310.83 497.321 311.326 496.51 311.685C495.703 312.04 494.726 312.217 493.58 312.217C492.465 312.217 491.498 312.044 490.677 311.699C489.862 311.354 489.223 310.851 488.761 310.189C488.304 309.527 488.057 308.72 488.02 307.769H490.573C490.61 308.268 490.764 308.683 491.034 309.014C491.304 309.345 491.656 309.592 492.09 309.755C492.528 309.918 493.018 310 493.559 310C494.123 310 494.617 309.916 495.041 309.748C495.47 309.576 495.806 309.338 496.048 309.035C496.291 308.727 496.414 308.368 496.419 307.958C496.414 307.585 496.304 307.277 496.09 307.035C495.876 306.788 495.575 306.583 495.188 306.42C494.806 306.252 494.358 306.103 493.845 305.972L492.216 305.552C491.036 305.249 490.104 304.79 489.419 304.175C488.738 303.555 488.398 302.732 488.398 301.706C488.398 300.862 488.626 300.124 489.083 299.49C489.545 298.855 490.172 298.364 490.964 298.014C491.757 297.66 492.654 297.483 493.656 297.483C494.673 297.483 495.563 297.66 496.328 298.014C497.097 298.364 497.701 298.851 498.139 299.476C498.577 300.096 498.803 300.809 498.817 301.615H496.321ZM503.746 305.706V312H501.214V301.259H503.634V303.084H503.76C504.007 302.483 504.401 302.005 504.941 301.65C505.487 301.296 506.161 301.119 506.962 301.119C507.704 301.119 508.349 301.277 508.899 301.594C509.454 301.911 509.883 302.371 510.186 302.972C510.494 303.573 510.645 304.303 510.641 305.161V312H508.109V305.552C508.109 304.834 507.923 304.273 507.55 303.867C507.182 303.462 506.671 303.259 506.018 303.259C505.575 303.259 505.182 303.357 504.837 303.552C504.496 303.744 504.228 304.021 504.032 304.385C503.841 304.748 503.746 305.189 503.746 305.706ZM516.305 312.217C515.624 312.217 515.011 312.096 514.466 311.853C513.925 311.606 513.496 311.242 513.179 310.762C512.867 310.282 512.711 309.69 512.711 308.986C512.711 308.38 512.823 307.879 513.046 307.483C513.27 307.086 513.575 306.769 513.962 306.531C514.349 306.294 514.785 306.114 515.27 305.993C515.76 305.867 516.265 305.776 516.788 305.72C517.417 305.655 517.927 305.597 518.319 305.545C518.711 305.49 518.995 305.406 519.172 305.294C519.354 305.177 519.445 304.998 519.445 304.755V304.713C519.445 304.186 519.289 303.779 518.976 303.49C518.664 303.2 518.214 303.056 517.627 303.056C517.007 303.056 516.515 303.191 516.151 303.462C515.792 303.732 515.55 304.051 515.424 304.42L513.06 304.084C513.247 303.431 513.554 302.886 513.983 302.448C514.412 302.005 514.937 301.674 515.557 301.455C516.177 301.231 516.862 301.119 517.613 301.119C518.13 301.119 518.645 301.179 519.158 301.301C519.671 301.422 520.14 301.622 520.564 301.902C520.988 302.177 521.328 302.552 521.585 303.028C521.846 303.503 521.976 304.098 521.976 304.811V312H519.543V310.524H519.459C519.305 310.823 519.088 311.103 518.809 311.364C518.534 311.62 518.186 311.828 517.767 311.986C517.352 312.14 516.865 312.217 516.305 312.217ZM516.962 310.357C517.471 310.357 517.911 310.256 518.284 310.056C518.657 309.851 518.944 309.58 519.144 309.245C519.349 308.909 519.452 308.543 519.452 308.147V306.881C519.373 306.946 519.237 307.007 519.046 307.063C518.86 307.119 518.65 307.168 518.417 307.21C518.184 307.252 517.953 307.289 517.725 307.322C517.496 307.354 517.298 307.382 517.13 307.406C516.753 307.457 516.415 307.541 516.116 307.657C515.818 307.774 515.582 307.937 515.41 308.147C515.237 308.352 515.151 308.618 515.151 308.944C515.151 309.41 515.321 309.762 515.662 310C516.002 310.238 516.436 310.357 516.962 310.357ZM524.522 312V301.259H526.976V303.049H527.088C527.284 302.429 527.62 301.951 528.095 301.615C528.575 301.275 529.123 301.105 529.739 301.105C529.878 301.105 530.035 301.112 530.207 301.126C530.384 301.135 530.531 301.152 530.648 301.175V303.503C530.541 303.466 530.37 303.434 530.137 303.406C529.909 303.373 529.687 303.357 529.473 303.357C529.011 303.357 528.596 303.457 528.228 303.657C527.865 303.853 527.578 304.126 527.368 304.476C527.158 304.825 527.053 305.228 527.053 305.685V312H524.522ZM536.642 312.21C535.566 312.21 534.635 311.986 533.852 311.538C533.074 311.086 532.475 310.448 532.055 309.622C531.635 308.793 531.426 307.816 531.426 306.692C531.426 305.587 531.635 304.618 532.055 303.783C532.479 302.944 533.071 302.291 533.831 301.825C534.591 301.354 535.484 301.119 536.51 301.119C537.172 301.119 537.796 301.226 538.384 301.441C538.976 301.65 539.498 301.977 539.95 302.42C540.407 302.862 540.766 303.427 541.027 304.112C541.288 304.793 541.419 305.604 541.419 306.545V307.322H532.615V305.615H538.992C538.987 305.131 538.883 304.699 538.677 304.322C538.472 303.939 538.186 303.639 537.817 303.42C537.454 303.2 537.029 303.091 536.545 303.091C536.027 303.091 535.573 303.217 535.181 303.469C534.789 303.716 534.484 304.042 534.265 304.448C534.05 304.848 533.941 305.289 533.936 305.769V307.259C533.936 307.883 534.05 308.42 534.279 308.867C534.507 309.31 534.827 309.65 535.237 309.888C535.647 310.121 536.127 310.238 536.677 310.238C537.046 310.238 537.379 310.186 537.677 310.084C537.976 309.977 538.235 309.821 538.454 309.615C538.673 309.41 538.838 309.156 538.95 308.853L541.314 309.119C541.165 309.744 540.88 310.289 540.461 310.755C540.046 311.217 539.514 311.576 538.866 311.832C538.218 312.084 537.477 312.21 536.642 312.21ZM553.41 312H548.557V297.678H553.508C554.93 297.678 556.151 297.965 557.172 298.538C558.198 299.107 558.986 299.925 559.536 300.993C560.086 302.061 560.361 303.338 560.361 304.825C560.361 306.317 560.084 307.599 559.529 308.671C558.979 309.744 558.184 310.566 557.144 311.14C556.109 311.713 554.865 312 553.41 312ZM551.151 309.755H553.284C554.282 309.755 555.114 309.573 555.781 309.21C556.447 308.841 556.948 308.294 557.284 307.566C557.62 306.834 557.788 305.921 557.788 304.825C557.788 303.73 557.62 302.821 557.284 302.098C556.948 301.371 556.452 300.828 555.795 300.469C555.142 300.105 554.331 299.923 553.361 299.923H551.151V309.755ZM562.714 312V301.259H565.169V303.049H565.281C565.476 302.429 565.812 301.951 566.288 301.615C566.768 301.275 567.316 301.105 567.931 301.105C568.071 301.105 568.227 301.112 568.399 301.126C568.577 301.135 568.723 301.152 568.84 301.175V303.503C568.733 303.466 568.563 303.434 568.33 303.406C568.101 303.373 567.88 303.357 567.665 303.357C567.204 303.357 566.789 303.457 566.42 303.657C566.057 303.853 565.77 304.126 565.56 304.476C565.351 304.825 565.246 305.228 565.246 305.685V312H562.714ZM577.368 307.483V301.259H579.899V312H577.445V310.091H577.333C577.091 310.692 576.692 311.184 576.137 311.566C575.587 311.949 574.909 312.14 574.102 312.14C573.398 312.14 572.776 311.984 572.235 311.671C571.699 311.354 571.279 310.895 570.976 310.294C570.673 309.688 570.522 308.956 570.522 308.098V301.259H573.053V307.706C573.053 308.387 573.24 308.928 573.613 309.329C573.986 309.73 574.475 309.93 575.081 309.93C575.454 309.93 575.816 309.839 576.165 309.657C576.515 309.476 576.802 309.205 577.025 308.846C577.254 308.483 577.368 308.028 577.368 307.483ZM582.503 312V301.259H584.922V303.084H585.048C585.272 302.469 585.642 301.988 586.16 301.643C586.677 301.294 587.295 301.119 588.013 301.119C588.74 301.119 589.353 301.296 589.852 301.65C590.356 302 590.71 302.478 590.915 303.084H591.027C591.265 302.487 591.666 302.012 592.23 301.657C592.799 301.298 593.472 301.119 594.251 301.119C595.239 301.119 596.046 301.431 596.67 302.056C597.295 302.681 597.608 303.592 597.608 304.79V312H595.069V305.182C595.069 304.515 594.892 304.028 594.538 303.72C594.183 303.408 593.75 303.252 593.237 303.252C592.626 303.252 592.148 303.443 591.803 303.825C591.463 304.203 591.293 304.695 591.293 305.301V312H588.81V305.077C588.81 304.522 588.642 304.079 588.307 303.748C587.976 303.417 587.542 303.252 587.006 303.252C586.642 303.252 586.311 303.345 586.013 303.531C585.715 303.713 585.477 303.972 585.3 304.308C585.123 304.639 585.034 305.026 585.034 305.469V312H582.503Z" fill="#5B5B5B"/>
<path d="M627.219 249.252C627.102 248.874 626.941 248.536 626.736 248.238C626.536 247.935 626.293 247.676 626.009 247.462C625.729 247.247 625.407 247.086 625.044 246.979C624.68 246.867 624.284 246.811 623.855 246.811C623.086 246.811 622.4 247.005 621.799 247.392C621.198 247.779 620.724 248.347 620.379 249.098C620.039 249.844 619.869 250.753 619.869 251.825C619.869 252.907 620.039 253.823 620.379 254.573C620.72 255.324 621.193 255.895 621.799 256.287C622.405 256.674 623.109 256.867 623.911 256.867C624.638 256.867 625.267 256.727 625.799 256.448C626.335 256.168 626.748 255.772 627.037 255.259C627.326 254.741 627.47 254.135 627.47 253.441L628.058 253.531H624.17V251.503H629.981V253.224C629.981 254.45 629.72 255.51 629.198 256.406C628.675 257.301 627.957 257.991 627.044 258.476C626.13 258.956 625.081 259.196 623.897 259.196C622.578 259.196 621.419 258.9 620.421 258.308C619.428 257.711 618.652 256.865 618.093 255.769C617.538 254.669 617.26 253.364 617.26 251.853C617.26 250.697 617.424 249.664 617.75 248.755C618.081 247.846 618.543 247.075 619.135 246.441C619.727 245.802 620.421 245.317 621.219 244.986C622.016 244.65 622.883 244.483 623.82 244.483C624.612 244.483 625.351 244.599 626.037 244.832C626.722 245.061 627.33 245.387 627.862 245.811C628.398 246.235 628.839 246.739 629.184 247.322C629.529 247.904 629.755 248.548 629.862 249.252H627.219ZM639.224 254.483V248.259H641.755V259H639.301V257.091H639.189C638.946 257.692 638.548 258.184 637.993 258.566C637.443 258.949 636.765 259.14 635.958 259.14C635.254 259.14 634.632 258.984 634.091 258.671C633.555 258.354 633.135 257.895 632.832 257.294C632.529 256.688 632.378 255.956 632.378 255.098V248.259H634.909V254.706C634.909 255.387 635.096 255.928 635.469 256.329C635.841 256.73 636.331 256.93 636.937 256.93C637.31 256.93 637.671 256.839 638.021 256.657C638.371 256.476 638.657 256.205 638.881 255.846C639.11 255.483 639.224 255.028 639.224 254.483ZM644.358 259V248.259H646.89V259H644.358ZM645.631 246.734C645.23 246.734 644.885 246.601 644.596 246.336C644.307 246.065 644.163 245.741 644.163 245.364C644.163 244.981 644.307 244.657 644.596 244.392C644.885 244.121 645.23 243.986 645.631 243.986C646.037 243.986 646.382 244.121 646.666 244.392C646.955 244.657 647.1 244.981 647.1 245.364C647.1 245.741 646.955 246.065 646.666 246.336C646.382 246.601 646.037 246.734 645.631 246.734ZM654.857 248.259V250.217H648.682V248.259H654.857ZM650.206 245.685H652.738V255.769C652.738 256.11 652.789 256.371 652.892 256.552C652.999 256.73 653.139 256.851 653.311 256.916C653.484 256.981 653.675 257.014 653.885 257.014C654.043 257.014 654.188 257.002 654.318 256.979C654.453 256.956 654.556 256.935 654.626 256.916L655.052 258.895C654.917 258.942 654.724 258.993 654.472 259.049C654.225 259.105 653.922 259.138 653.563 259.147C652.929 259.166 652.358 259.07 651.85 258.86C651.341 258.646 650.938 258.315 650.64 257.867C650.346 257.42 650.202 256.86 650.206 256.189V245.685ZM660.065 259.217C659.384 259.217 658.771 259.096 658.226 258.853C657.685 258.606 657.256 258.242 656.939 257.762C656.626 257.282 656.47 256.69 656.47 255.986C656.47 255.38 656.582 254.879 656.806 254.483C657.03 254.086 657.335 253.769 657.722 253.531C658.109 253.294 658.545 253.114 659.03 252.993C659.519 252.867 660.025 252.776 660.547 252.72C661.177 252.655 661.687 252.597 662.079 252.545C662.47 252.49 662.755 252.406 662.932 252.294C663.114 252.177 663.205 251.998 663.205 251.755V251.713C663.205 251.186 663.048 250.779 662.736 250.49C662.424 250.2 661.974 250.056 661.386 250.056C660.766 250.056 660.274 250.191 659.911 250.462C659.552 250.732 659.309 251.051 659.184 251.42L656.82 251.084C657.006 250.431 657.314 249.886 657.743 249.448C658.172 249.005 658.696 248.674 659.316 248.455C659.936 248.231 660.622 248.119 661.372 248.119C661.89 248.119 662.405 248.179 662.918 248.301C663.431 248.422 663.899 248.622 664.323 248.902C664.748 249.177 665.088 249.552 665.344 250.028C665.605 250.503 665.736 251.098 665.736 251.811V259H663.302V257.524H663.219C663.065 257.823 662.848 258.103 662.568 258.364C662.293 258.62 661.946 258.828 661.526 258.986C661.111 259.14 660.624 259.217 660.065 259.217ZM660.722 257.357C661.23 257.357 661.671 257.256 662.044 257.056C662.417 256.851 662.703 256.58 662.904 256.245C663.109 255.909 663.212 255.543 663.212 255.147V253.881C663.132 253.946 662.997 254.007 662.806 254.063C662.619 254.119 662.41 254.168 662.177 254.21C661.943 254.252 661.713 254.289 661.484 254.322C661.256 254.354 661.058 254.382 660.89 254.406C660.512 254.457 660.174 254.541 659.876 254.657C659.578 254.774 659.342 254.937 659.17 255.147C658.997 255.352 658.911 255.618 658.911 255.944C658.911 256.41 659.081 256.762 659.421 257C659.762 257.238 660.195 257.357 660.722 257.357ZM668.281 259V248.259H670.736V250.049H670.848C671.044 249.429 671.379 248.951 671.855 248.615C672.335 248.275 672.883 248.105 673.498 248.105C673.638 248.105 673.794 248.112 673.967 248.126C674.144 248.135 674.291 248.152 674.407 248.175V250.503C674.3 250.466 674.13 250.434 673.897 250.406C673.668 250.373 673.447 250.357 673.233 250.357C672.771 250.357 672.356 250.457 671.988 250.657C671.624 250.853 671.337 251.126 671.128 251.476C670.918 251.825 670.813 252.228 670.813 252.685V259H668.281Z" fill="#5B5B5B"/>
<path d="M532.884 204V189.678H535.478V201.825H541.786V204H532.884ZM548.611 204.21C547.562 204.21 546.653 203.979 545.884 203.517C545.115 203.056 544.518 202.41 544.094 201.58C543.674 200.751 543.464 199.781 543.464 198.671C543.464 197.562 543.674 196.59 544.094 195.755C544.518 194.921 545.115 194.273 545.884 193.811C546.653 193.35 547.562 193.119 548.611 193.119C549.66 193.119 550.569 193.35 551.338 193.811C552.108 194.273 552.702 194.921 553.122 195.755C553.546 196.59 553.758 197.562 553.758 198.671C553.758 199.781 553.546 200.751 553.122 201.58C552.702 202.41 552.108 203.056 551.338 203.517C550.569 203.979 549.66 204.21 548.611 204.21ZM548.625 202.182C549.194 202.182 549.669 202.026 550.052 201.713C550.434 201.396 550.718 200.972 550.905 200.441C551.096 199.909 551.191 199.317 551.191 198.664C551.191 198.007 551.096 197.413 550.905 196.881C550.718 196.345 550.434 195.918 550.052 195.601C549.669 195.284 549.194 195.126 548.625 195.126C548.042 195.126 547.557 195.284 547.17 195.601C546.788 195.918 546.501 196.345 546.31 196.881C546.124 197.413 546.031 198.007 546.031 198.664C546.031 199.317 546.124 199.909 546.31 200.441C546.501 200.972 546.788 201.396 547.17 201.713C547.557 202.026 548.042 202.182 548.625 202.182ZM557.816 204L554.781 193.259H557.361L559.249 200.811H559.347L561.277 193.259H563.83L565.76 200.769H565.865L567.725 193.259H570.312L567.27 204H564.634L562.62 196.741H562.473L560.459 204H557.816ZM576.527 204.21C575.45 204.21 574.52 203.986 573.737 203.538C572.958 203.086 572.359 202.448 571.94 201.622C571.52 200.793 571.31 199.816 571.31 198.692C571.31 197.587 571.52 196.618 571.94 195.783C572.364 194.944 572.956 194.291 573.716 193.825C574.476 193.354 575.369 193.119 576.394 193.119C577.056 193.119 577.681 193.226 578.268 193.441C578.86 193.65 579.383 193.977 579.835 194.42C580.292 194.862 580.651 195.427 580.912 196.112C581.173 196.793 581.303 197.604 581.303 198.545V199.322H572.499V197.615H578.877C578.872 197.131 578.767 196.699 578.562 196.322C578.357 195.939 578.07 195.639 577.702 195.42C577.338 195.2 576.914 195.091 576.429 195.091C575.912 195.091 575.457 195.217 575.066 195.469C574.674 195.716 574.369 196.042 574.149 196.448C573.935 196.848 573.825 197.289 573.821 197.769V199.259C573.821 199.883 573.935 200.42 574.163 200.867C574.392 201.31 574.711 201.65 575.122 201.888C575.532 202.121 576.012 202.238 576.562 202.238C576.93 202.238 577.264 202.186 577.562 202.084C577.86 201.977 578.119 201.821 578.338 201.615C578.557 201.41 578.723 201.156 578.835 200.853L581.198 201.119C581.049 201.744 580.765 202.289 580.345 202.755C579.93 203.217 579.399 203.576 578.751 203.832C578.103 204.084 577.362 204.21 576.527 204.21ZM583.445 204V193.259H585.899V195.049H586.011C586.207 194.429 586.543 193.951 587.018 193.615C587.499 193.275 588.046 193.105 588.662 193.105C588.802 193.105 588.958 193.112 589.13 193.126C589.307 193.135 589.454 193.152 589.571 193.175V195.503C589.464 195.466 589.293 195.434 589.06 195.406C588.832 195.373 588.61 195.357 588.396 195.357C587.934 195.357 587.52 195.457 587.151 195.657C586.788 195.853 586.501 196.126 586.291 196.476C586.081 196.825 585.976 197.228 585.976 197.685V204H583.445ZM598.165 189.678L601.892 200.951H602.039L605.76 189.678H608.613L603.564 204H600.361L595.319 189.678H598.165ZM613.919 204.21C612.87 204.21 611.961 203.979 611.191 203.517C610.422 203.056 609.825 202.41 609.401 201.58C608.982 200.751 608.772 199.781 608.772 198.671C608.772 197.562 608.982 196.59 609.401 195.755C609.825 194.921 610.422 194.273 611.191 193.811C611.961 193.35 612.87 193.119 613.919 193.119C614.968 193.119 615.877 193.35 616.646 193.811C617.415 194.273 618.01 194.921 618.429 195.755C618.853 196.59 619.066 197.562 619.066 198.671C619.066 199.781 618.853 200.751 618.429 201.58C618.01 202.41 617.415 203.056 616.646 203.517C615.877 203.979 614.968 204.21 613.919 204.21ZM613.933 202.182C614.501 202.182 614.977 202.026 615.359 201.713C615.742 201.396 616.026 200.972 616.212 200.441C616.404 199.909 616.499 199.317 616.499 198.664C616.499 198.007 616.404 197.413 616.212 196.881C616.026 196.345 615.742 195.918 615.359 195.601C614.977 195.284 614.501 195.126 613.933 195.126C613.35 195.126 612.865 195.284 612.478 195.601C612.096 195.918 611.809 196.345 611.618 196.881C611.432 197.413 611.338 198.007 611.338 198.664C611.338 199.317 611.432 199.909 611.618 200.441C611.809 200.972 612.096 201.396 612.478 201.713C612.865 202.026 613.35 202.182 613.933 202.182ZM625.899 204.21C624.827 204.21 623.906 203.974 623.137 203.503C622.373 203.033 621.783 202.382 621.368 201.552C620.958 200.718 620.753 199.758 620.753 198.671C620.753 197.58 620.962 196.618 621.382 195.783C621.802 194.944 622.394 194.291 623.158 193.825C623.927 193.354 624.837 193.119 625.885 193.119C626.757 193.119 627.529 193.28 628.2 193.601C628.876 193.918 629.415 194.368 629.816 194.951C630.216 195.529 630.445 196.205 630.501 196.979H628.081C627.983 196.462 627.75 196.03 627.382 195.685C627.018 195.336 626.531 195.161 625.92 195.161C625.403 195.161 624.948 195.301 624.557 195.58C624.165 195.855 623.86 196.252 623.641 196.769C623.426 197.287 623.319 197.907 623.319 198.629C623.319 199.361 623.426 199.991 623.641 200.517C623.855 201.04 624.156 201.443 624.543 201.727C624.934 202.007 625.394 202.147 625.92 202.147C626.293 202.147 626.627 202.077 626.92 201.937C627.219 201.793 627.468 201.585 627.669 201.315C627.869 201.044 628.007 200.716 628.081 200.329H630.501C630.44 201.089 630.216 201.762 629.83 202.35C629.443 202.932 628.916 203.389 628.249 203.72C627.582 204.047 626.799 204.21 625.899 204.21ZM635.67 204.217C634.99 204.217 634.377 204.096 633.831 203.853C633.291 203.606 632.862 203.242 632.545 202.762C632.232 202.282 632.076 201.69 632.076 200.986C632.076 200.38 632.188 199.879 632.412 199.483C632.635 199.086 632.941 198.769 633.328 198.531C633.715 198.294 634.151 198.114 634.635 197.993C635.125 197.867 635.631 197.776 636.153 197.72C636.782 197.655 637.293 197.597 637.684 197.545C638.076 197.49 638.36 197.406 638.538 197.294C638.719 197.177 638.81 196.998 638.81 196.755V196.713C638.81 196.186 638.654 195.779 638.342 195.49C638.029 195.2 637.58 195.056 636.992 195.056C636.372 195.056 635.88 195.191 635.517 195.462C635.158 195.732 634.915 196.051 634.789 196.42L632.426 196.084C632.612 195.431 632.92 194.886 633.349 194.448C633.778 194.005 634.302 193.674 634.922 193.455C635.542 193.231 636.228 193.119 636.978 193.119C637.496 193.119 638.011 193.179 638.524 193.301C639.036 193.422 639.505 193.622 639.929 193.902C640.353 194.177 640.694 194.552 640.95 195.028C641.211 195.503 641.342 196.098 641.342 196.811V204H638.908V202.524H638.824C638.67 202.823 638.454 203.103 638.174 203.364C637.899 203.62 637.552 203.828 637.132 203.986C636.717 204.14 636.23 204.217 635.67 204.217ZM636.328 202.357C636.836 202.357 637.277 202.256 637.649 202.056C638.022 201.851 638.309 201.58 638.51 201.245C638.715 200.909 638.817 200.543 638.817 200.147V198.881C638.738 198.946 638.603 199.007 638.412 199.063C638.225 199.119 638.015 199.168 637.782 199.21C637.549 199.252 637.318 199.289 637.09 199.322C636.862 199.354 636.663 199.382 636.496 199.406C636.118 199.457 635.78 199.541 635.482 199.657C635.183 199.774 634.948 199.937 634.775 200.147C634.603 200.352 634.517 200.618 634.517 200.944C634.517 201.41 634.687 201.762 635.027 202C635.367 202.238 635.801 202.357 636.328 202.357ZM646.419 189.678V204H643.887V189.678H646.419ZM657.511 196.098L655.204 196.35C655.138 196.117 655.024 195.897 654.861 195.692C654.703 195.487 654.488 195.322 654.218 195.196C653.947 195.07 653.616 195.007 653.225 195.007C652.698 195.007 652.255 195.121 651.896 195.35C651.542 195.578 651.367 195.874 651.372 196.238C651.367 196.55 651.481 196.804 651.714 197C651.952 197.196 652.344 197.357 652.889 197.483L654.721 197.874C655.737 198.093 656.493 198.441 656.987 198.916C657.486 199.392 657.737 200.014 657.742 200.783C657.737 201.459 657.539 202.056 657.148 202.573C656.761 203.086 656.222 203.487 655.532 203.776C654.842 204.065 654.05 204.21 653.155 204.21C651.84 204.21 650.782 203.935 649.98 203.385C649.178 202.83 648.7 202.058 648.546 201.07L651.015 200.832C651.127 201.317 651.365 201.683 651.728 201.93C652.092 202.177 652.565 202.301 653.148 202.301C653.749 202.301 654.232 202.177 654.595 201.93C654.964 201.683 655.148 201.378 655.148 201.014C655.148 200.706 655.029 200.452 654.791 200.252C654.558 200.051 654.194 199.897 653.7 199.79L651.868 199.406C650.838 199.191 650.075 198.83 649.581 198.322C649.087 197.809 648.842 197.161 648.847 196.378C648.842 195.716 649.022 195.142 649.385 194.657C649.754 194.168 650.264 193.79 650.917 193.524C651.574 193.254 652.332 193.119 653.19 193.119C654.448 193.119 655.439 193.387 656.162 193.923C656.889 194.459 657.339 195.184 657.511 196.098Z" fill="#5B5B5B"/>
<path d="M743.797 148V133.678H746.392V139.741H753.028V133.678H755.629V148H753.028V141.916H746.392V148H743.797ZM758.339 148V137.259H760.871V148H758.339ZM759.612 135.734C759.211 135.734 758.866 135.601 758.577 135.336C758.288 135.065 758.143 134.741 758.143 134.364C758.143 133.981 758.288 133.657 758.577 133.392C758.866 133.121 759.211 132.986 759.612 132.986C760.017 132.986 760.362 133.121 760.647 133.392C760.936 133.657 761.08 133.981 761.08 134.364C761.08 134.741 760.936 135.065 760.647 135.336C760.362 135.601 760.017 135.734 759.612 135.734ZM768.145 152.252C767.236 152.252 766.455 152.128 765.802 151.881C765.15 151.639 764.625 151.312 764.229 150.902C763.833 150.492 763.558 150.037 763.404 149.538L765.684 148.986C765.786 149.196 765.935 149.403 766.131 149.608C766.327 149.818 766.59 149.991 766.921 150.126C767.257 150.266 767.679 150.336 768.187 150.336C768.905 150.336 769.499 150.161 769.97 149.811C770.441 149.466 770.677 148.897 770.677 148.105V146.07H770.551C770.42 146.331 770.229 146.599 769.977 146.874C769.73 147.149 769.402 147.38 768.991 147.566C768.586 147.753 768.075 147.846 767.46 147.846C766.635 147.846 765.886 147.653 765.215 147.266C764.548 146.874 764.017 146.291 763.621 145.517C763.229 144.739 763.033 143.765 763.033 142.594C763.033 141.415 763.229 140.42 763.621 139.608C764.017 138.793 764.551 138.175 765.222 137.755C765.893 137.331 766.642 137.119 767.467 137.119C768.096 137.119 768.614 137.226 769.019 137.441C769.429 137.65 769.756 137.904 769.998 138.203C770.241 138.497 770.425 138.774 770.551 139.035H770.691V137.259H773.187V148.175C773.187 149.093 772.968 149.853 772.53 150.455C772.091 151.056 771.492 151.506 770.733 151.804C769.973 152.103 769.11 152.252 768.145 152.252ZM768.166 145.86C768.702 145.86 769.159 145.73 769.537 145.469C769.914 145.207 770.201 144.832 770.397 144.343C770.593 143.853 770.691 143.266 770.691 142.58C770.691 141.904 770.593 141.312 770.397 140.804C770.206 140.296 769.921 139.902 769.544 139.622C769.171 139.338 768.712 139.196 768.166 139.196C767.602 139.196 767.131 139.343 766.753 139.636C766.376 139.93 766.091 140.333 765.9 140.846C765.709 141.354 765.614 141.932 765.614 142.58C765.614 143.238 765.709 143.814 765.9 144.308C766.096 144.797 766.383 145.179 766.76 145.455C767.143 145.725 767.611 145.86 768.166 145.86ZM778.313 141.706V148H775.781V133.678H778.257V139.084H778.383C778.635 138.478 779.024 138 779.551 137.65C780.082 137.296 780.758 137.119 781.579 137.119C782.325 137.119 782.975 137.275 783.53 137.587C784.084 137.9 784.513 138.357 784.816 138.958C785.124 139.559 785.278 140.294 785.278 141.161V148H782.747V141.552C782.747 140.83 782.56 140.268 782.187 139.867C781.819 139.462 781.301 139.259 780.635 139.259C780.187 139.259 779.786 139.357 779.432 139.552C779.082 139.744 778.807 140.021 778.607 140.385C778.411 140.748 778.313 141.189 778.313 141.706ZM792.614 148.21C791.537 148.21 790.607 147.986 789.823 147.538C789.045 147.086 788.446 146.448 788.026 145.622C787.607 144.793 787.397 143.816 787.397 142.692C787.397 141.587 787.607 140.618 788.026 139.783C788.45 138.944 789.043 138.291 789.802 137.825C790.562 137.354 791.455 137.119 792.481 137.119C793.143 137.119 793.767 137.226 794.355 137.441C794.947 137.65 795.469 137.977 795.921 138.42C796.378 138.862 796.737 139.427 796.998 140.112C797.259 140.793 797.39 141.604 797.39 142.545V143.322H788.586V141.615H794.963C794.959 141.131 794.854 140.699 794.649 140.322C794.443 139.939 794.157 139.639 793.788 139.42C793.425 139.2 793.001 139.091 792.516 139.091C791.998 139.091 791.544 139.217 791.152 139.469C790.76 139.716 790.455 140.042 790.236 140.448C790.022 140.848 789.912 141.289 789.907 141.769V143.259C789.907 143.883 790.022 144.42 790.25 144.867C790.478 145.31 790.798 145.65 791.208 145.888C791.618 146.121 792.098 146.238 792.649 146.238C793.017 146.238 793.35 146.186 793.649 146.084C793.947 145.977 794.206 145.821 794.425 145.615C794.644 145.41 794.809 145.156 794.921 144.853L797.285 145.119C797.136 145.744 796.851 146.289 796.432 146.755C796.017 147.217 795.485 147.576 794.837 147.832C794.189 148.084 793.448 148.21 792.614 148.21ZM799.531 148V137.259H801.986V139.049H802.098C802.294 138.429 802.629 137.951 803.105 137.615C803.585 137.275 804.133 137.105 804.748 137.105C804.888 137.105 805.044 137.112 805.217 137.126C805.394 137.135 805.541 137.152 805.657 137.175V139.503C805.55 139.466 805.38 139.434 805.147 139.406C804.918 139.373 804.697 139.357 804.483 139.357C804.021 139.357 803.606 139.457 803.238 139.657C802.874 139.853 802.587 140.126 802.378 140.476C802.168 140.825 802.063 141.228 802.063 141.685V148H799.531ZM814.252 133.678L817.979 144.951H818.126L821.846 133.678H824.699L819.65 148H816.448L811.406 133.678H814.252ZM830.005 148.21C828.956 148.21 828.047 147.979 827.278 147.517C826.509 147.056 825.912 146.41 825.488 145.58C825.068 144.751 824.858 143.781 824.858 142.671C824.858 141.562 825.068 140.59 825.488 139.755C825.912 138.921 826.509 138.273 827.278 137.811C828.047 137.35 828.956 137.119 830.005 137.119C831.054 137.119 831.963 137.35 832.733 137.811C833.502 138.273 834.096 138.921 834.516 139.755C834.94 140.59 835.152 141.562 835.152 142.671C835.152 143.781 834.94 144.751 834.516 145.58C834.096 146.41 833.502 147.056 832.733 147.517C831.963 147.979 831.054 148.21 830.005 148.21ZM830.019 146.182C830.588 146.182 831.064 146.026 831.446 145.713C831.828 145.396 832.112 144.972 832.299 144.441C832.49 143.909 832.586 143.317 832.586 142.664C832.586 142.007 832.49 141.413 832.299 140.881C832.112 140.345 831.828 139.918 831.446 139.601C831.064 139.284 830.588 139.126 830.019 139.126C829.436 139.126 828.952 139.284 828.565 139.601C828.182 139.918 827.896 140.345 827.705 140.881C827.518 141.413 827.425 142.007 827.425 142.664C827.425 143.317 827.518 143.909 827.705 144.441C827.896 144.972 828.182 145.396 828.565 145.713C828.952 146.026 829.436 146.182 830.019 146.182ZM841.986 148.21C840.914 148.21 839.993 147.974 839.224 147.503C838.459 147.033 837.869 146.382 837.455 145.552C837.044 144.718 836.839 143.758 836.839 142.671C836.839 141.58 837.049 140.618 837.469 139.783C837.888 138.944 838.48 138.291 839.245 137.825C840.014 137.354 840.923 137.119 841.972 137.119C842.844 137.119 843.615 137.28 844.287 137.601C844.963 137.918 845.501 138.368 845.902 138.951C846.303 139.529 846.531 140.205 846.587 140.979H844.168C844.07 140.462 843.837 140.03 843.469 139.685C843.105 139.336 842.618 139.161 842.007 139.161C841.49 139.161 841.035 139.301 840.643 139.58C840.252 139.855 839.946 140.252 839.727 140.769C839.513 141.287 839.406 141.907 839.406 142.629C839.406 143.361 839.513 143.991 839.727 144.517C839.942 145.04 840.242 145.443 840.629 145.727C841.021 146.007 841.48 146.147 842.007 146.147C842.38 146.147 842.713 146.077 843.007 145.937C843.305 145.793 843.555 145.585 843.755 145.315C843.956 145.044 844.093 144.716 844.168 144.329H846.587C846.527 145.089 846.303 145.762 845.916 146.35C845.529 146.932 845.002 147.389 844.336 147.72C843.669 148.047 842.886 148.21 841.986 148.21ZM851.757 148.217C851.076 148.217 850.463 148.096 849.918 147.853C849.377 147.606 848.948 147.242 848.631 146.762C848.319 146.282 848.163 145.69 848.163 144.986C848.163 144.38 848.274 143.879 848.498 143.483C848.722 143.086 849.027 142.769 849.414 142.531C849.801 142.294 850.237 142.114 850.722 141.993C851.212 141.867 851.717 141.776 852.24 141.72C852.869 141.655 853.379 141.597 853.771 141.545C854.163 141.49 854.447 141.406 854.624 141.294C854.806 141.177 854.897 140.998 854.897 140.755V140.713C854.897 140.186 854.741 139.779 854.428 139.49C854.116 139.2 853.666 139.056 853.079 139.056C852.459 139.056 851.967 139.191 851.603 139.462C851.244 139.732 851.002 140.051 850.876 140.42L848.512 140.084C848.699 139.431 849.006 138.886 849.435 138.448C849.864 138.005 850.389 137.674 851.009 137.455C851.629 137.231 852.314 137.119 853.065 137.119C853.582 137.119 854.097 137.179 854.61 137.301C855.123 137.422 855.591 137.622 856.016 137.902C856.44 138.177 856.78 138.552 857.037 139.028C857.298 139.503 857.428 140.098 857.428 140.811V148H854.995V146.524H854.911C854.757 146.823 854.54 147.103 854.26 147.364C853.985 147.62 853.638 147.828 853.219 147.986C852.804 148.14 852.316 148.217 851.757 148.217ZM852.414 146.357C852.922 146.357 853.363 146.256 853.736 146.056C854.109 145.851 854.396 145.58 854.596 145.245C854.801 144.909 854.904 144.543 854.904 144.147V142.881C854.825 142.946 854.689 143.007 854.498 143.063C854.312 143.119 854.102 143.168 853.869 143.21C853.636 143.252 853.405 143.289 853.177 143.322C852.948 143.354 852.75 143.382 852.582 143.406C852.205 143.457 851.867 143.541 851.568 143.657C851.27 143.774 851.034 143.937 850.862 144.147C850.689 144.352 850.603 144.618 850.603 144.944C850.603 145.41 850.773 145.762 851.114 146C851.454 146.238 851.888 146.357 852.414 146.357ZM862.505 133.678V148H859.974V133.678H862.505ZM873.598 140.098L871.29 140.35C871.225 140.117 871.111 139.897 870.948 139.692C870.789 139.487 870.575 139.322 870.304 139.196C870.034 139.07 869.703 139.007 869.311 139.007C868.784 139.007 868.341 139.121 867.983 139.35C867.628 139.578 867.453 139.874 867.458 140.238C867.453 140.55 867.568 140.804 867.801 141C868.038 141.196 868.43 141.357 868.976 141.483L870.808 141.874C871.824 142.093 872.579 142.441 873.073 142.916C873.572 143.392 873.824 144.014 873.829 144.783C873.824 145.459 873.626 146.056 873.234 146.573C872.847 147.086 872.309 147.487 871.619 147.776C870.929 148.065 870.136 148.21 869.241 148.21C867.927 148.21 866.868 147.935 866.066 147.385C865.265 146.83 864.787 146.058 864.633 145.07L867.101 144.832C867.213 145.317 867.451 145.683 867.815 145.93C868.178 146.177 868.652 146.301 869.234 146.301C869.836 146.301 870.318 146.177 870.682 145.93C871.05 145.683 871.234 145.378 871.234 145.014C871.234 144.706 871.115 144.452 870.878 144.252C870.645 144.051 870.281 143.897 869.787 143.79L867.955 143.406C866.924 143.191 866.162 142.83 865.668 142.322C865.174 141.809 864.929 141.161 864.934 140.378C864.929 139.716 865.108 139.142 865.472 138.657C865.84 138.168 866.351 137.79 867.003 137.524C867.661 137.254 868.418 137.119 869.276 137.119C870.535 137.119 871.526 137.387 872.248 137.923C872.976 138.459 873.425 139.184 873.598 140.098Z" fill="#5B5B5B"/>
<path d="M796.969 88.5105H794.354C794.279 88.0816 794.142 87.7016 793.941 87.3706C793.741 87.035 793.492 86.7506 793.193 86.5175C792.895 86.2844 792.554 86.1096 792.172 85.993C791.795 85.8718 791.387 85.8112 790.948 85.8112C790.17 85.8112 789.48 86.007 788.878 86.3986C788.277 86.7855 787.806 87.3543 787.466 88.1049C787.126 88.8508 786.955 89.7622 786.955 90.8392C786.955 91.9347 787.126 92.8578 787.466 93.6084C787.811 94.3543 788.282 94.9184 788.878 95.3007C789.48 95.6783 790.168 95.8671 790.941 95.8671C791.37 95.8671 791.771 95.8112 792.144 95.6993C792.522 95.5828 792.86 95.4126 793.158 95.1888C793.461 94.965 793.715 94.69 793.92 94.3636C794.13 94.0373 794.275 93.6643 794.354 93.2448L796.969 93.2587C796.872 93.9394 796.659 94.5781 796.333 95.1748C796.011 95.7716 795.589 96.2984 795.067 96.7552C794.545 97.2075 793.934 97.5618 793.235 97.8182C792.536 98.0699 791.76 98.1958 790.906 98.1958C789.648 98.1958 788.524 97.9044 787.536 97.3217C786.547 96.7389 785.769 95.8974 785.2 94.7972C784.631 93.697 784.347 92.3776 784.347 90.8392C784.347 89.296 784.634 87.9767 785.207 86.8811C785.781 85.7809 786.561 84.9394 787.55 84.3566C788.538 83.7739 789.657 83.4825 790.906 83.4825C791.704 83.4825 792.445 83.5944 793.13 83.8182C793.816 84.042 794.426 84.3706 794.962 84.8042C795.499 85.2331 795.939 85.7599 796.284 86.3846C796.634 87.0047 796.862 87.7133 796.969 88.5105ZM800.903 102.028C800.558 102.028 800.239 102 799.945 101.944C799.656 101.893 799.425 101.832 799.253 101.762L799.84 99.7902C800.208 99.8974 800.537 99.9487 800.826 99.9441C801.115 99.9394 801.369 99.8485 801.588 99.6713C801.812 99.4988 802.001 99.2098 802.155 98.8042L802.372 98.2238L798.476 87.2587H801.162L803.637 95.3706H803.749L806.232 87.2587H808.924L804.623 99.3007C804.423 99.8695 804.157 100.357 803.826 100.762C803.495 101.172 803.089 101.485 802.609 101.699C802.134 101.918 801.565 102.028 800.903 102.028ZM810.676 98V87.2587H813.095V89.0839H813.221C813.445 88.4685 813.816 87.9883 814.333 87.6434C814.851 87.2937 815.468 87.1189 816.186 87.1189C816.913 87.1189 817.527 87.296 818.025 87.6503C818.529 88 818.883 88.4779 819.088 89.0839H819.2C819.438 88.4872 819.839 88.0117 820.403 87.6573C820.972 87.2984 821.645 87.1189 822.424 87.1189C823.412 87.1189 824.219 87.4312 824.844 88.0559C825.468 88.6807 825.781 89.5921 825.781 90.7902V98H823.242V91.1818C823.242 90.5152 823.065 90.028 822.711 89.7203C822.356 89.4079 821.923 89.2517 821.41 89.2517C820.799 89.2517 820.321 89.4429 819.976 89.8252C819.636 90.2028 819.466 90.6946 819.466 91.3007V98H816.983V91.0769C816.983 90.5221 816.816 90.0793 816.48 89.7483C816.149 89.4172 815.715 89.2517 815.179 89.2517C814.816 89.2517 814.485 89.345 814.186 89.5315C813.888 89.7133 813.65 89.972 813.473 90.3077C813.296 90.6387 813.207 91.0256 813.207 91.4685V98H810.676ZM828.461 98V83.6783H830.992V89.035H831.097C831.228 88.7739 831.412 88.4965 831.649 88.2028C831.887 87.9044 832.209 87.6503 832.615 87.4406C833.02 87.2261 833.538 87.1189 834.167 87.1189C834.997 87.1189 835.745 87.331 836.412 87.7552C837.083 88.1748 837.615 88.7972 838.006 89.6224C838.402 90.4429 838.601 91.4499 838.601 92.6434C838.601 93.8228 838.407 94.8252 838.02 95.6503C837.633 96.4755 837.106 97.1049 836.44 97.5385C835.773 97.972 835.018 98.1888 834.174 98.1888C833.559 98.1888 833.048 98.0862 832.642 97.8811C832.237 97.676 831.911 97.4289 831.663 97.1399C831.421 96.8462 831.232 96.5688 831.097 96.3077H830.95V98H828.461ZM830.943 92.6294C830.943 93.324 831.041 93.9324 831.237 94.4545C831.437 94.9767 831.724 95.3846 832.097 95.6783C832.475 95.9674 832.932 96.1119 833.468 96.1119C834.027 96.1119 834.496 95.9627 834.873 95.6643C835.251 95.3613 835.535 94.9487 835.726 94.4266C835.922 93.8998 836.02 93.3007 836.02 92.6294C836.02 91.9627 835.925 91.3706 835.733 90.8531C835.542 90.3357 835.258 89.9301 834.88 89.6364C834.503 89.3427 834.032 89.1958 833.468 89.1958C832.927 89.1958 832.468 89.338 832.09 89.6224C831.712 89.9068 831.426 90.3054 831.23 90.8182C831.039 91.331 830.943 91.9347 830.943 92.6294ZM843.844 98.2168C843.163 98.2168 842.55 98.0956 842.004 97.8531C841.464 97.6061 841.035 97.2424 840.718 96.7622C840.405 96.2821 840.249 95.69 840.249 94.986C840.249 94.38 840.361 93.8788 840.585 93.4825C840.809 93.0862 841.114 92.7692 841.501 92.5315C841.888 92.2937 842.324 92.1142 842.809 91.993C843.298 91.8671 843.804 91.7762 844.326 91.7203C844.955 91.655 845.466 91.5967 845.858 91.5455C846.249 91.4895 846.534 91.4056 846.711 91.2937C846.892 91.1772 846.983 90.9977 846.983 90.7552V90.7133C846.983 90.1865 846.827 89.7786 846.515 89.4895C846.203 89.2005 845.753 89.0559 845.165 89.0559C844.545 89.0559 844.053 89.1911 843.69 89.4615C843.331 89.7319 843.088 90.0513 842.962 90.4196L840.599 90.0839C840.785 89.4312 841.093 88.8858 841.522 88.4476C841.951 88.0047 842.475 87.6737 843.095 87.4545C843.715 87.2308 844.401 87.1189 845.151 87.1189C845.669 87.1189 846.184 87.1795 846.697 87.3007C847.209 87.4219 847.678 87.6224 848.102 87.9021C848.527 88.1772 848.867 88.5524 849.123 89.028C849.384 89.5035 849.515 90.0979 849.515 90.8112V98H847.081V96.5245H846.997C846.844 96.8228 846.627 97.1026 846.347 97.3636C846.072 97.62 845.725 97.8275 845.305 97.986C844.89 98.1399 844.403 98.2168 843.844 98.2168ZM844.501 96.3566C845.009 96.3566 845.45 96.2564 845.823 96.0559C846.196 95.8508 846.482 95.5804 846.683 95.2448C846.888 94.9091 846.99 94.5431 846.99 94.1469V92.8811C846.911 92.9464 846.776 93.007 846.585 93.0629C846.398 93.1189 846.189 93.1678 845.955 93.2098C845.722 93.2517 845.492 93.289 845.263 93.3217C845.035 93.3543 844.837 93.3823 844.669 93.4056C844.291 93.4569 843.953 93.5408 843.655 93.6573C843.356 93.7739 843.121 93.9371 842.948 94.1469C842.776 94.352 842.69 94.6177 842.69 94.9441C842.69 95.4103 842.86 95.7622 843.2 96C843.541 96.2378 843.974 96.3566 844.501 96.3566ZM854.592 83.6783V98H852.06V83.6783H854.592ZM865.684 90.0979L863.377 90.3496C863.311 90.1165 863.197 89.8974 863.034 89.6923C862.876 89.4872 862.661 89.3217 862.391 89.1958C862.12 89.0699 861.789 89.007 861.398 89.007C860.871 89.007 860.428 89.1212 860.069 89.3496C859.715 89.5781 859.54 89.8741 859.545 90.2378C859.54 90.5501 859.654 90.8042 859.887 91C860.125 91.1958 860.517 91.3566 861.062 91.4825L862.894 91.8741C863.911 92.0932 864.666 92.4406 865.16 92.9161C865.659 93.3916 865.911 94.014 865.915 94.7832C865.911 95.4592 865.712 96.0559 865.321 96.5734C864.934 97.0862 864.395 97.4872 863.705 97.7762C863.015 98.0653 862.223 98.2098 861.328 98.2098C860.013 98.2098 858.955 97.9347 858.153 97.3846C857.351 96.8298 856.873 96.0583 856.719 95.0699L859.188 94.8322C859.3 95.317 859.538 95.683 859.901 95.9301C860.265 96.1772 860.738 96.3007 861.321 96.3007C861.922 96.3007 862.405 96.1772 862.768 95.9301C863.137 95.683 863.321 95.3776 863.321 95.014C863.321 94.7063 863.202 94.4522 862.964 94.2517C862.731 94.0513 862.367 93.8974 861.873 93.7902L860.041 93.4056C859.011 93.1911 858.249 92.8298 857.754 92.3217C857.26 91.8089 857.015 91.1608 857.02 90.3776C857.015 89.7156 857.195 89.1422 857.559 88.6573C857.927 88.1678 858.437 87.7902 859.09 87.5245C859.747 87.2541 860.505 87.1189 861.363 87.1189C862.621 87.1189 863.612 87.3869 864.335 87.9231C865.062 88.4592 865.512 89.1841 865.684 90.0979Z" fill="#5B5B5B"/>
<defs>
<linearGradient id="paint0_linear_117_24662" x1="468" y1="446.996" x2="67" y2="446.996" gradientUnits="userSpaceOnUse">
<stop stop-color="#FDBE70"/>
<stop offset="1" stop-color="#D6424B"/>
</linearGradient>
<linearGradient id="paint1_linear_117_24662" x1="543" y1="390.992" x2="112" y2="390.992" gradientUnits="userSpaceOnUse">
<stop stop-color="#F0F8A9"/>
<stop offset="0.291667" stop-color="#FCBD70"/>
<stop offset="0.9999" stop-color="#D6424B"/>
<stop offset="1" stop-color="#D6424B"/>
</linearGradient>
<linearGradient id="paint2_linear_117_24662" x1="390.5" y1="336" x2="709" y2="336" gradientUnits="userSpaceOnUse">
<stop stop-color="#F8B06C"/>
<stop offset="0.317708" stop-color="#F0F8A9"/>
<stop offset="1" stop-color="#77C6A7"/>
</linearGradient>
<linearGradient id="paint3_linear_117_24662" x1="353" y1="225.998" x2="839" y2="225.998" gradientUnits="userSpaceOnUse">
<stop stop-color="#FDBE70"/>
<stop offset="0.219555" stop-color="#F0F8A9"/>
<stop offset="1" stop-color="#77C6A7"/>
</linearGradient>
<linearGradient id="paint4_linear_117_24662" x1="383" y1="282.998" x2="907" y2="282.998" gradientUnits="userSpaceOnUse">
<stop stop-color="#FCC274"/>
<stop offset="0.213542" stop-color="#F0F8A9"/>
<stop offset="1" stop-color="#438FB4"/>
</linearGradient>
<linearGradient id="paint5_linear_117_24662" x1="530" y1="171.998" x2="1088" y2="171.998" gradientUnits="userSpaceOnUse">
<stop stop-color="#F0F8A9"/>
<stop offset="0.505208" stop-color="#77C6A7"/>
<stop offset="0.796875" stop-color="#438FB4"/>
<stop offset="1" stop-color="#486FB0"/>
</linearGradient>
<linearGradient id="paint6_linear_117_24662" x1="564" y1="118.998" x2="1088" y2="118.998" gradientUnits="userSpaceOnUse">
<stop stop-color="#F0F8A9"/>
<stop offset="0.505208" stop-color="#77C6A7"/>
<stop offset="0.796875" stop-color="#438FB4"/>
<stop offset="1" stop-color="#486FB0"/>
</linearGradient>
</defs>
</svg>
