<svg width="1159" height="608" viewBox="0 0 1159 608" fill="none" xmlns="http://www.w3.org/2000/svg">
<path d="M40 555.651H34" stroke="black"/>
<path d="M40 555.651H1088" stroke="black" stroke-opacity="0.1"/>
<path d="M40 384.494H1088" stroke="black" stroke-opacity="0.1"/>
<path d="M40 212.494H1088" stroke="black" stroke-opacity="0.1"/>
<path d="M21.2102 558.951C20.7415 558.951 20.3236 558.87 19.9567 558.709C19.5921 558.548 19.3021 558.325 19.0866 558.038C18.8736 557.749 18.7576 557.414 18.7386 557.033H19.6335C19.6525 557.268 19.733 557.47 19.875 557.64C20.017 557.808 20.2029 557.939 20.4325 558.031C20.6622 558.123 20.9167 558.17 21.196 558.17C21.5085 558.17 21.7855 558.115 22.027 558.006C22.2685 557.897 22.4579 557.746 22.5952 557.552C22.7325 557.357 22.8011 557.133 22.8011 556.877C22.8011 556.609 22.7348 556.374 22.6023 556.17C22.4697 555.964 22.2756 555.803 22.0199 555.687C21.7642 555.571 21.4517 555.513 21.0824 555.513H20.5V554.732H21.0824C21.3712 554.732 21.6245 554.68 21.8423 554.576C22.0625 554.472 22.2341 554.325 22.3572 554.135C22.4827 553.946 22.5455 553.723 22.5455 553.468C22.5455 553.222 22.491 553.007 22.3821 552.825C22.2732 552.643 22.1193 552.501 21.9205 552.399C21.724 552.297 21.492 552.246 21.2244 552.246C20.9735 552.246 20.7367 552.292 20.5142 552.385C20.294 552.475 20.1141 552.606 19.9744 552.779C19.8348 552.949 19.759 553.155 19.7472 553.397H18.8949C18.9091 553.016 19.0239 552.682 19.2393 552.395C19.4548 552.107 19.7365 551.882 20.0845 551.721C20.4349 551.56 20.8196 551.479 21.2386 551.479C21.6884 551.479 22.0743 551.57 22.3963 551.753C22.7183 551.933 22.9657 552.17 23.1385 552.466C23.3113 552.762 23.3977 553.082 23.3977 553.425C23.3977 553.835 23.29 554.184 23.0746 554.473C22.8615 554.762 22.5715 554.962 22.2045 555.073V555.13C22.6638 555.205 23.0225 555.401 23.2805 555.716C23.5386 556.028 23.6676 556.415 23.6676 556.877C23.6676 557.272 23.5599 557.627 23.3445 557.942C23.1314 558.255 22.8402 558.501 22.4709 558.681C22.1016 558.861 21.6813 558.951 21.2102 558.951ZM27.3928 558.951C26.9761 558.951 26.6009 558.868 26.267 558.702C25.9332 558.536 25.6657 558.309 25.4645 558.02C25.2633 557.732 25.1532 557.402 25.1342 557.033H25.9865C26.0196 557.362 26.1688 557.634 26.4339 557.85C26.7015 558.063 27.0211 558.17 27.3928 558.17C27.6911 558.17 27.9562 558.1 28.1882 557.96C28.4226 557.82 28.6061 557.629 28.7386 557.385C28.8736 557.138 28.9411 556.86 28.9411 556.55C28.9411 556.233 28.8712 555.95 28.7315 555.701C28.5942 555.451 28.4048 555.253 28.1634 555.108C27.9219 554.964 27.6461 554.891 27.3359 554.888C27.1134 554.886 26.8849 554.92 26.6506 554.991C26.4162 555.06 26.2232 555.149 26.0717 555.258L25.2479 555.158L25.6882 551.579H29.4666V552.36H26.4268L26.1712 554.505H26.2138C26.3629 554.386 26.55 554.288 26.7749 554.21C26.9998 554.132 27.2341 554.093 27.478 554.093C27.9231 554.093 28.3196 554.199 28.6676 554.412C29.018 554.623 29.2926 554.912 29.4915 555.279C29.6927 555.646 29.7933 556.065 29.7933 556.536C29.7933 557 29.6892 557.414 29.4808 557.779C29.2749 558.141 28.9908 558.428 28.6286 558.638C28.2663 558.847 27.8544 558.951 27.3928 558.951Z" fill="black"/>
<path d="M40 498.404H34" stroke="black"/>
<path d="M40 498.404H1088" stroke="black" stroke-opacity="0.1"/>
<path d="M40 327.247H1088" stroke="black" stroke-opacity="0.1"/>
<path d="M40 155.247H1088" stroke="black" stroke-opacity="0.1"/>
<path d="M18.5824 500.113V499.388L21.7784 494.332H22.304V495.454H21.9489L19.5341 499.275V499.332H23.8381V500.113H18.5824ZM22.0057 501.604V499.893V499.555V494.332H22.8438V501.604H22.0057ZM27.541 501.704C27.006 501.704 26.5502 501.558 26.1738 501.267C25.7974 500.973 25.5098 500.548 25.3109 499.992C25.112 499.433 25.0126 498.759 25.0126 497.968C25.0126 497.182 25.112 496.511 25.3109 495.954C25.5121 495.396 25.801 494.97 26.1774 494.676C26.5562 494.38 27.0107 494.232 27.541 494.232C28.0713 494.232 28.5247 494.38 28.9011 494.676C29.2799 494.97 29.5687 495.396 29.7676 495.954C29.9688 496.511 30.0694 497.182 30.0694 497.968C30.0694 498.759 29.97 499.433 29.7711 499.992C29.5723 500.548 29.2846 500.973 28.9082 501.267C28.5318 501.558 28.0761 501.704 27.541 501.704ZM27.541 500.922C28.0713 500.922 28.4833 500.667 28.7768 500.155C29.0704 499.644 29.2172 498.915 29.2172 497.968C29.2172 497.338 29.1497 496.802 29.0147 496.359C28.8822 495.917 28.6904 495.579 28.4395 495.347C28.1909 495.115 27.8914 494.999 27.541 494.999C27.0154 494.999 26.6047 495.258 26.3088 495.777C26.0128 496.293 25.8649 497.023 25.8649 497.968C25.8649 498.598 25.9312 499.133 26.0637 499.573C26.1963 500.013 26.3869 500.348 26.6355 500.578C26.8864 500.808 27.1883 500.922 27.541 500.922Z" fill="black"/>
<path d="M40 441.157H34" stroke="black"/>
<path d="M40 441.157H1088" stroke="black" stroke-opacity="0.1"/>
<path d="M40 270H1088" stroke="black" stroke-opacity="0.1"/>
<path d="M40 98H1088" stroke="black" stroke-opacity="0.1"/>
<path d="M40 40H1088" stroke="black" stroke-opacity="0.1"/>
<path d="M18.5824 442.866V442.141L21.7784 437.084H22.304V438.207H21.9489L19.5341 442.028V442.084H23.8381V442.866H18.5824ZM22.0057 444.357V442.646V442.308V437.084H22.8438V444.357H22.0057ZM27.4416 444.457C27.0249 444.457 26.6497 444.374 26.3159 444.208C25.9821 444.042 25.7145 443.815 25.5133 443.526C25.3121 443.237 25.202 442.908 25.1831 442.539H26.0353C26.0685 442.868 26.2176 443.14 26.4828 443.356C26.7503 443.569 27.0699 443.675 27.4416 443.675C27.7399 443.675 28.005 443.606 28.237 443.466C28.4714 443.326 28.6549 443.134 28.7875 442.891C28.9224 442.644 28.9899 442.366 28.9899 442.056C28.9899 441.739 28.92 441.456 28.7804 441.207C28.6431 440.956 28.4537 440.759 28.2122 440.614C27.9707 440.47 27.6949 440.396 27.3848 440.394C27.1622 440.392 26.9338 440.426 26.6994 440.497C26.465 440.566 26.2721 440.655 26.1206 440.763L25.2967 440.664L25.737 437.084H29.5154V437.866H26.4757L26.22 440.011H26.2626C26.4118 439.892 26.5988 439.794 26.8237 439.716C27.0486 439.638 27.283 439.599 27.5268 439.599C27.9719 439.599 28.3684 439.705 28.7164 439.918C29.0668 440.129 29.3414 440.418 29.5403 440.785C29.7415 441.152 29.8422 441.571 29.8422 442.042C29.8422 442.506 29.738 442.92 29.5297 443.285C29.3237 443.647 29.0396 443.933 28.6774 444.144C28.3152 444.352 27.9032 444.457 27.4416 444.457Z" fill="black"/>
<path d="M40 383.91H34" stroke="black"/>
<path d="M21.0256 387.21C20.6089 387.21 20.2337 387.127 19.8999 386.961C19.5661 386.795 19.2985 386.568 19.0973 386.279C18.8961 385.99 18.786 385.661 18.767 385.292H19.6193C19.6525 385.621 19.8016 385.893 20.0668 386.109C20.3343 386.322 20.6539 386.428 21.0256 386.428C21.3239 386.428 21.589 386.358 21.821 386.219C22.0554 386.079 22.2389 385.887 22.3714 385.643C22.5064 385.397 22.5739 385.119 22.5739 384.809C22.5739 384.492 22.504 384.209 22.3643 383.96C22.227 383.709 22.0376 383.512 21.7962 383.367C21.5547 383.223 21.2789 383.149 20.9688 383.147C20.7462 383.145 20.5178 383.179 20.2834 383.25C20.049 383.319 19.8561 383.407 19.7045 383.516L18.8807 383.417L19.321 379.837H23.0994V380.619H20.0597L19.804 382.764H19.8466C19.9957 382.645 20.1828 382.547 20.4077 382.469C20.6326 382.391 20.867 382.352 21.1108 382.352C21.5559 382.352 21.9524 382.458 22.3004 382.671C22.6508 382.882 22.9254 383.171 23.1243 383.538C23.3255 383.905 23.4261 384.324 23.4261 384.795C23.4261 385.259 23.322 385.673 23.1136 386.038C22.9077 386.4 22.6236 386.686 22.2614 386.897C21.8991 387.105 21.4872 387.21 21.0256 387.21ZM27.209 387.21C26.6739 387.21 26.2182 387.064 25.8418 386.773C25.4654 386.479 25.1777 386.054 24.9789 385.498C24.78 384.939 24.6806 384.264 24.6806 383.474C24.6806 382.688 24.78 382.017 24.9789 381.46C25.1801 380.902 25.4689 380.475 25.8453 380.182C26.2241 379.886 26.6787 379.738 27.209 379.738C27.7393 379.738 28.1926 379.886 28.5691 380.182C28.9479 380.475 29.2367 380.902 29.4355 381.46C29.6368 382.017 29.7374 382.688 29.7374 383.474C29.7374 384.264 29.638 384.939 29.4391 385.498C29.2402 386.054 28.9526 386.479 28.5762 386.773C28.1998 387.064 27.744 387.21 27.209 387.21ZM27.209 386.428C27.7393 386.428 28.1512 386.173 28.4448 385.661C28.7383 385.15 28.8851 384.421 28.8851 383.474C28.8851 382.844 28.8176 382.308 28.6827 381.865C28.5501 381.422 28.3584 381.085 28.1074 380.853C27.8588 380.621 27.5594 380.505 27.209 380.505C26.6834 380.505 26.2727 380.764 25.9767 381.283C25.6808 381.799 25.5328 382.529 25.5328 383.474C25.5328 384.103 25.5991 384.639 25.7317 385.079C25.8643 385.519 26.0549 385.854 26.3034 386.084C26.5544 386.313 26.8562 386.428 27.209 386.428Z" fill="black"/>
<path d="M40 326.663H34" stroke="black"/>
<path d="M21.0256 329.962C20.6089 329.962 20.2337 329.88 19.8999 329.714C19.5661 329.548 19.2985 329.321 19.0973 329.032C18.8961 328.743 18.786 328.414 18.767 328.045H19.6193C19.6525 328.374 19.8016 328.646 20.0668 328.862C20.3343 329.075 20.6539 329.181 21.0256 329.181C21.3239 329.181 21.589 329.111 21.821 328.972C22.0554 328.832 22.2389 328.64 22.3714 328.396C22.5064 328.15 22.5739 327.872 22.5739 327.562C22.5739 327.245 22.504 326.962 22.3643 326.713C22.227 326.462 22.0376 326.265 21.7962 326.12C21.5547 325.976 21.2789 325.902 20.9688 325.9C20.7462 325.898 20.5178 325.932 20.2834 326.003C20.049 326.072 19.8561 326.16 19.7045 326.269L18.8807 326.17L19.321 322.59H23.0994V323.372H20.0597L19.804 325.516H19.8466C19.9957 325.398 20.1828 325.3 20.4077 325.222C20.6326 325.144 20.867 325.105 21.1108 325.105C21.5559 325.105 21.9524 325.211 22.3004 325.424C22.6508 325.635 22.9254 325.924 23.1243 326.291C23.3255 326.658 23.4261 327.077 23.4261 327.548C23.4261 328.012 23.322 328.426 23.1136 328.791C22.9077 329.153 22.6236 329.439 22.2614 329.65C21.8991 329.858 21.4872 329.962 21.0256 329.962ZM27.1096 329.962C26.6929 329.962 26.3176 329.88 25.9838 329.714C25.65 329.548 25.3825 329.321 25.1813 329.032C24.9801 328.743 24.87 328.414 24.851 328.045H25.7033C25.7364 328.374 25.8856 328.646 26.1507 328.862C26.4183 329.075 26.7379 329.181 27.1096 329.181C27.4078 329.181 27.673 329.111 27.905 328.972C28.1394 328.832 28.3229 328.64 28.4554 328.396C28.5904 328.15 28.6578 327.872 28.6578 327.562C28.6578 327.245 28.588 326.962 28.4483 326.713C28.311 326.462 28.1216 326.265 27.8801 326.12C27.6387 325.976 27.3629 325.902 27.0527 325.9C26.8302 325.898 26.6017 325.932 26.3674 326.003C26.133 326.072 25.94 326.16 25.7885 326.269L24.9647 326.17L25.405 322.59H29.1834V323.372H26.1436L25.888 325.516H25.9306C26.0797 325.398 26.2667 325.3 26.4917 325.222C26.7166 325.144 26.9509 325.105 27.1948 325.105C27.6399 325.105 28.0364 325.211 28.3844 325.424C28.7348 325.635 29.0094 325.924 29.2083 326.291C29.4095 326.658 29.5101 327.077 29.5101 327.548C29.5101 328.012 29.406 328.426 29.1976 328.791C28.9917 329.153 28.7076 329.439 28.3453 329.65C27.9831 329.858 27.5712 329.962 27.1096 329.962Z" fill="black"/>
<path d="M40 269.416H34" stroke="black"/>
<path d="M21.1676 272.715C20.8693 272.711 20.571 272.654 20.2727 272.545C19.9744 272.436 19.7022 272.253 19.456 271.995C19.2098 271.734 19.0121 271.383 18.8629 270.94C18.7138 270.495 18.6392 269.936 18.6392 269.264C18.6392 268.62 18.6996 268.049 18.8203 267.552C18.9411 267.053 19.1162 266.632 19.3459 266.291C19.5755 265.948 19.8525 265.688 20.1768 265.51C20.5036 265.333 20.8717 265.244 21.2812 265.244C21.6884 265.244 22.0507 265.325 22.3679 265.489C22.6875 265.65 22.9479 265.875 23.1491 266.164C23.3504 266.452 23.4806 266.785 23.5398 267.161H22.6733C22.5928 266.835 22.4366 266.564 22.2045 266.348C21.9725 266.133 21.6648 266.025 21.2812 266.025C20.7178 266.025 20.2739 266.27 19.9496 266.76C19.6276 267.25 19.4654 267.938 19.4631 268.823H19.5199C19.6525 268.622 19.8099 268.45 19.9922 268.308C20.1768 268.164 20.3804 268.053 20.603 267.975C20.8255 267.897 21.0611 267.857 21.3097 267.857C21.7263 267.857 22.1075 267.962 22.4531 268.17C22.7988 268.376 23.0758 268.661 23.2841 269.026C23.4924 269.388 23.5966 269.803 23.5966 270.272C23.5966 270.722 23.496 271.134 23.2947 271.508C23.0935 271.88 22.8106 272.176 22.446 272.396C22.0838 272.614 21.6577 272.72 21.1676 272.715ZM21.1676 271.934C21.4659 271.934 21.7334 271.86 21.9702 271.71C22.2093 271.561 22.3975 271.361 22.5348 271.11C22.6745 270.859 22.7443 270.58 22.7443 270.272C22.7443 269.972 22.6768 269.698 22.5419 269.452C22.4093 269.203 22.2259 269.006 21.9915 268.859C21.7595 268.712 21.4943 268.639 21.196 268.639C20.9711 268.639 20.7616 268.684 20.5675 268.774C20.3733 268.861 20.2029 268.982 20.0561 269.136C19.9117 269.29 19.7981 269.466 19.7152 269.665C19.6323 269.861 19.5909 270.069 19.5909 270.286C19.5909 270.575 19.6584 270.845 19.7933 271.096C19.9306 271.347 20.1177 271.549 20.3544 271.703C20.5935 271.857 20.8646 271.934 21.1676 271.934ZM27.3652 272.715C26.8302 272.715 26.3745 272.57 25.998 272.279C25.6216 271.985 25.334 271.56 25.1351 271.004C24.9363 270.445 24.8368 269.77 24.8368 268.98C24.8368 268.194 24.9363 267.522 25.1351 266.966C25.3364 266.407 25.6252 265.981 26.0016 265.688C26.3804 265.392 26.8349 265.244 27.3652 265.244C27.8955 265.244 28.3489 265.392 28.7253 265.688C29.1041 265.981 29.3929 266.407 29.5918 266.966C29.793 267.522 29.8936 268.194 29.8936 268.98C29.8936 269.77 29.7942 270.445 29.5953 271.004C29.3965 271.56 29.1088 271.985 28.7324 272.279C28.356 272.57 27.9003 272.715 27.3652 272.715ZM27.3652 271.934C27.8955 271.934 28.3075 271.678 28.601 271.167C28.8946 270.656 29.0414 269.927 29.0414 268.98C29.0414 268.35 28.9739 267.814 28.839 267.371C28.7064 266.928 28.5146 266.591 28.2637 266.359C28.0151 266.127 27.7156 266.011 27.3652 266.011C26.8397 266.011 26.4289 266.27 26.133 266.789C25.8371 267.305 25.6891 268.035 25.6891 268.98C25.6891 269.609 25.7554 270.144 25.888 270.585C26.0205 271.025 26.2111 271.36 26.4597 271.59C26.7106 271.819 27.0125 271.934 27.3652 271.934Z" fill="black"/>
<path d="M40 212.169H34" stroke="black"/>
<path d="M21.1676 215.468C20.8693 215.464 20.571 215.407 20.2727 215.298C19.9744 215.189 19.7022 215.005 19.456 214.747C19.2098 214.487 19.0121 214.135 18.8629 213.693C18.7138 213.248 18.6392 212.689 18.6392 212.017C18.6392 211.373 18.6996 210.802 18.8203 210.305C18.9411 209.805 19.1162 209.385 19.3459 209.044C19.5755 208.701 19.8525 208.441 20.1768 208.263C20.5036 208.086 20.8717 207.997 21.2812 207.997C21.6884 207.997 22.0507 208.078 22.3679 208.242C22.6875 208.403 22.9479 208.628 23.1491 208.916C23.3504 209.205 23.4806 209.538 23.5398 209.914H22.6733C22.5928 209.588 22.4366 209.317 22.2045 209.101C21.9725 208.886 21.6648 208.778 21.2812 208.778C20.7178 208.778 20.2739 209.023 19.9496 209.513C19.6276 210.003 19.4654 210.691 19.4631 211.576H19.5199C19.6525 211.375 19.8099 211.203 19.9922 211.061C20.1768 210.917 20.3804 210.806 20.603 210.728C20.8255 210.649 21.0611 210.61 21.3097 210.61C21.7263 210.61 22.1075 210.715 22.4531 210.923C22.7988 211.129 23.0758 211.414 23.2841 211.779C23.4924 212.141 23.5966 212.556 23.5966 213.025C23.5966 213.475 23.496 213.887 23.2947 214.261C23.0935 214.633 22.8106 214.929 22.446 215.149C22.0838 215.367 21.6577 215.473 21.1676 215.468ZM21.1676 214.687C21.4659 214.687 21.7334 214.613 21.9702 214.463C22.2093 214.314 22.3975 214.114 22.5348 213.863C22.6745 213.612 22.7443 213.333 22.7443 213.025C22.7443 212.724 22.6768 212.451 22.5419 212.205C22.4093 211.956 22.2259 211.759 21.9915 211.612C21.7595 211.465 21.4943 211.392 21.196 211.392C20.9711 211.392 20.7616 211.437 20.5675 211.527C20.3733 211.614 20.2029 211.735 20.0561 211.889C19.9117 212.043 19.7981 212.219 19.7152 212.418C19.6323 212.614 19.5909 212.822 19.5909 213.039C19.5909 213.328 19.6584 213.598 19.7933 213.849C19.9306 214.1 20.1177 214.302 20.3544 214.456C20.5935 214.61 20.8646 214.687 21.1676 214.687ZM27.2658 215.468C26.8491 215.468 26.4739 215.385 26.1401 215.22C25.8063 215.054 25.5388 214.827 25.3375 214.538C25.1363 214.249 25.0262 213.92 25.0073 213.551H25.8596C25.8927 213.88 26.0418 214.152 26.307 214.367C26.5745 214.581 26.8941 214.687 27.2658 214.687C27.5641 214.687 27.8292 214.617 28.0613 214.478C28.2956 214.338 28.4791 214.146 28.6117 213.902C28.7466 213.656 28.8141 213.378 28.8141 213.068C28.8141 212.751 28.7443 212.468 28.6046 212.219C28.4673 211.968 28.2779 211.77 28.0364 211.626C27.7949 211.482 27.5191 211.408 27.209 211.406C26.9864 211.403 26.758 211.438 26.5236 211.509C26.2892 211.577 26.0963 211.666 25.9448 211.775L25.1209 211.676L25.5613 208.096H29.3397V208.877H26.2999L26.0442 211.022H26.0868C26.236 210.904 26.423 210.806 26.6479 210.728C26.8728 210.649 27.1072 210.61 27.351 210.61C27.7961 210.61 28.1926 210.717 28.5407 210.93C28.891 211.141 29.1657 211.43 29.3645 211.796C29.5658 212.163 29.6664 212.582 29.6664 213.054C29.6664 213.518 29.5622 213.932 29.3539 214.296C29.1479 214.659 28.8638 214.945 28.5016 215.156C28.1394 215.364 27.7275 215.468 27.2658 215.468Z" fill="black"/>
<path d="M40 154.922H34" stroke="black"/>
<path d="M19.9801 158.122L23.233 151.687V151.63H19.483V150.849H24.142V151.673L20.9034 158.122H19.9801ZM27.6816 158.221C27.1466 158.221 26.6909 158.076 26.3145 157.784C25.938 157.491 25.6504 157.066 25.4515 156.51C25.2527 155.951 25.1532 155.276 25.1532 154.485C25.1532 153.699 25.2527 153.028 25.4515 152.472C25.6528 151.913 25.9416 151.487 26.318 151.194C26.6968 150.898 27.1513 150.75 27.6816 150.75C28.2119 150.75 28.6653 150.898 29.0417 151.194C29.4205 151.487 29.7093 151.913 29.9082 152.472C30.1094 153.028 30.21 153.699 30.21 154.485C30.21 155.276 30.1106 155.951 29.9118 156.51C29.7129 157.066 29.4252 157.491 29.0488 157.784C28.6724 158.076 28.2167 158.221 27.6816 158.221ZM27.6816 157.44C28.2119 157.44 28.6239 157.184 28.9174 156.673C29.211 156.162 29.3578 155.432 29.3578 154.485C29.3578 153.856 29.2903 153.32 29.1554 152.877C29.0228 152.434 28.831 152.097 28.5801 151.865C28.3315 151.633 28.032 151.517 27.6816 151.517C27.1561 151.517 26.7453 151.776 26.4494 152.294C26.1535 152.811 26.0055 153.541 26.0055 154.485C26.0055 155.115 26.0718 155.65 26.2044 156.091C26.3369 156.531 26.5275 156.866 26.7761 157.096C27.027 157.325 27.3289 157.44 27.6816 157.44Z" fill="black"/>
<path d="M40 97.6748H34" stroke="black"/>
<path d="M19.9801 100.875L23.233 94.4401V94.3833H19.483V93.602H24.142V94.4259L20.9034 100.875H19.9801ZM27.6408 100.974C27.2241 100.974 26.8489 100.891 26.5151 100.726C26.1813 100.56 25.9138 100.333 25.7125 100.044C25.5113 99.755 25.4012 99.4259 25.3823 99.0566H26.2346C26.2677 99.3856 26.4168 99.6579 26.682 99.8733C26.9495 100.086 27.2691 100.193 27.6408 100.193C27.9391 100.193 28.2042 100.123 28.4363 99.9834C28.6706 99.8437 28.8541 99.652 28.9867 99.4081C29.1216 99.1619 29.1891 98.8838 29.1891 98.5736C29.1891 98.2564 29.1193 97.9735 28.9796 97.7249C28.8423 97.474 28.6529 97.2763 28.4114 97.1319C28.1699 96.9874 27.8941 96.9141 27.584 96.9117C27.3614 96.9093 27.133 96.9436 26.8986 97.0147C26.6642 97.0833 26.4713 97.1721 26.3198 97.281L25.4959 97.1816L25.9363 93.602H29.7147V94.3833H26.6749L26.4192 96.5282H26.4618C26.611 96.4098 26.798 96.3115 27.0229 96.2334C27.2478 96.1553 27.4822 96.1162 27.726 96.1162C28.1711 96.1162 28.5676 96.2228 28.9157 96.4358C29.266 96.6465 29.5407 96.9354 29.7395 97.3023C29.9408 97.6693 30.0414 98.0883 30.0414 98.5594C30.0414 99.0234 29.9372 99.4377 29.7289 99.8023C29.5229 100.165 29.2388 100.451 28.8766 100.662C28.5144 100.87 28.1025 100.974 27.6408 100.974Z" fill="black"/>
<path d="M40 40.4277H34" stroke="black"/>
<path d="M21.0824 43.7271C20.5947 43.7271 20.1638 43.6407 19.7898 43.4679C19.4181 43.2927 19.1281 43.0524 18.9197 42.747C18.7114 42.4392 18.6084 42.0889 18.6108 41.6959C18.6084 41.3881 18.6688 41.104 18.7919 40.8436C18.915 40.5808 19.0831 40.3618 19.2962 40.1866C19.5116 40.0091 19.7519 39.8966 20.017 39.8493V39.8067C19.669 39.7167 19.392 39.5214 19.1861 39.2207C18.9801 38.9177 18.8783 38.5732 18.8807 38.1873C18.8783 37.818 18.9718 37.4878 19.1612 37.1966C19.3506 36.9054 19.611 36.6757 19.9425 36.5077C20.2763 36.3396 20.6563 36.2555 21.0824 36.2555C21.5038 36.2555 21.8802 36.3396 22.2116 36.5077C22.5431 36.6757 22.8035 36.9054 22.9929 37.1966C23.1847 37.4878 23.2817 37.818 23.2841 38.1873C23.2817 38.5732 23.1764 38.9177 22.968 39.2207C22.7621 39.5214 22.4886 39.7167 22.1477 39.8067V39.8493C22.4105 39.8966 22.6473 40.0091 22.858 40.1866C23.0687 40.3618 23.2367 40.5808 23.3622 40.8436C23.4877 41.104 23.5516 41.3881 23.554 41.6959C23.5516 42.0889 23.4451 42.4392 23.2344 42.747C23.026 43.0524 22.736 43.2927 22.3643 43.4679C21.995 43.6407 21.5677 43.7271 21.0824 43.7271ZM21.0824 42.9459C21.4115 42.9459 21.6955 42.8926 21.9347 42.7861C22.1738 42.6795 22.3584 42.5292 22.4886 42.3351C22.6188 42.1409 22.6851 41.9137 22.6875 41.6533C22.6851 41.3786 22.6141 41.136 22.4744 40.9253C22.3348 40.7146 22.1442 40.5489 21.9027 40.4281C21.6636 40.3074 21.3902 40.247 21.0824 40.247C20.7723 40.247 20.4953 40.3074 20.2514 40.4281C20.0099 40.5489 19.8194 40.7146 19.6797 40.9253C19.5424 41.136 19.4749 41.3786 19.4773 41.6533C19.4749 41.9137 19.5376 42.1409 19.6655 42.3351C19.7957 42.5292 19.9815 42.6795 20.223 42.7861C20.4645 42.8926 20.7509 42.9459 21.0824 42.9459ZM21.0824 39.4942C21.3428 39.4942 21.5736 39.4421 21.7749 39.3379C21.9785 39.2337 22.1383 39.0881 22.2543 38.9011C22.3703 38.7141 22.4295 38.4951 22.4318 38.2442C22.4295 37.998 22.3714 37.7837 22.2578 37.6014C22.1442 37.4167 21.9867 37.2747 21.7855 37.1753C21.5843 37.0735 21.3499 37.0226 21.0824 37.0226C20.8101 37.0226 20.5722 37.0735 20.3686 37.1753C20.165 37.2747 20.0076 37.4167 19.8963 37.6014C19.785 37.7837 19.7306 37.998 19.733 38.2442C19.7306 38.4951 19.7862 38.7141 19.8999 38.9011C20.0159 39.0881 20.1757 39.2337 20.3793 39.3379C20.5829 39.4421 20.8172 39.4942 21.0824 39.4942ZM27.2871 43.7271C26.7521 43.7271 26.2963 43.5815 25.9199 43.2903C25.5435 42.9968 25.2559 42.5718 25.057 42.0155C24.8581 41.4568 24.7587 40.782 24.7587 39.9913C24.7587 39.2053 24.8581 38.5342 25.057 37.9778C25.2582 37.4191 25.5471 36.993 25.9235 36.6994C26.3023 36.4035 26.7568 36.2555 27.2871 36.2555C27.8174 36.2555 28.2708 36.4035 28.6472 36.6994C29.026 36.993 29.3148 37.4191 29.5137 37.9778C29.7149 38.5342 29.8155 39.2053 29.8155 39.9913C29.8155 40.782 29.7161 41.4568 29.5172 42.0155C29.3184 42.5718 29.0307 42.9968 28.6543 43.2903C28.2779 43.5815 27.8221 43.7271 27.2871 43.7271ZM27.2871 42.9459C27.8174 42.9459 28.2293 42.6902 28.5229 42.1788C28.8165 41.6675 28.9632 40.9383 28.9632 39.9913C28.9632 39.3616 28.8958 38.8254 28.7608 38.3827C28.6283 37.9399 28.4365 37.6026 28.1855 37.3706C27.937 37.1386 27.6375 37.0226 27.2871 37.0226C26.7615 37.0226 26.3508 37.2818 26.0549 37.8003C25.7589 38.3164 25.611 39.0467 25.611 39.9913C25.611 40.6211 25.6773 41.1561 25.8098 41.5964C25.9424 42.0368 26.133 42.3718 26.3816 42.6014C26.6325 42.831 26.9344 42.9459 27.2871 42.9459Z" fill="black"/>
<path d="M2.8267 10.1136C2.37216 10.1136 1.97088 9.99882 1.62287 9.76918C1.27486 9.53717 1.0026 9.21046 0.806108 8.78906C0.609612 8.36529 0.511364 7.86458 0.511364 7.28693C0.511364 6.71402 0.609612 6.21686 0.806108 5.79545C1.0026 5.37405 1.27604 5.04853 1.62642 4.81889C1.9768 4.58925 2.38163 4.47443 2.84091 4.47443C3.19602 4.47443 3.47656 4.53362 3.68253 4.65199C3.89086 4.76799 4.04948 4.90057 4.15838 5.04972C4.26965 5.1965 4.35606 5.31723 4.41761 5.41193H4.48864V2.72727H5.3267V10H4.51705V9.16193H4.41761C4.35606 9.26136 4.26847 9.38684 4.15483 9.53835C4.04119 9.6875 3.87902 9.82126 3.66832 9.93963C3.45762 10.0556 3.17708 10.1136 2.8267 10.1136ZM2.94034 9.3608C3.27652 9.3608 3.56061 9.2732 3.79261 9.09801C4.02462 8.92045 4.20099 8.67543 4.32173 8.36293C4.44247 8.04806 4.50284 7.68466 4.50284 7.27273C4.50284 6.86553 4.44366 6.50923 4.32528 6.20384C4.20691 5.89607 4.03172 5.65696 3.79972 5.48651C3.56771 5.31368 3.28125 5.22727 2.94034 5.22727C2.58523 5.22727 2.2893 5.31842 2.05256 5.50071C1.81818 5.68063 1.64181 5.92566 1.52344 6.2358C1.40743 6.54356 1.34943 6.8892 1.34943 7.27273C1.34943 7.66098 1.40862 8.01373 1.52699 8.33097C1.64773 8.64583 1.82528 8.89678 2.05966 9.08381C2.2964 9.26847 2.58996 9.3608 2.94034 9.3608ZM7.09162 10V2.72727H9.63423C10.1409 2.72727 10.5587 2.81487 10.8878 2.99006C11.2169 3.16288 11.4619 3.39607 11.6229 3.68963C11.7839 3.98082 11.8643 4.30398 11.8643 4.65909C11.8643 4.97159 11.8087 5.22964 11.6974 5.43324C11.5885 5.63684 11.4441 5.79782 11.2642 5.91619C11.0866 6.03456 10.8937 6.12216 10.6854 6.17898V6.25C10.9079 6.2642 11.1316 6.34233 11.3565 6.48438C11.5814 6.62642 11.7696 6.83002 11.9212 7.09517C12.0727 7.36032 12.1484 7.68466 12.1484 8.06818C12.1484 8.43277 12.0656 8.76065 11.8999 9.05185C11.7341 9.34304 11.4725 9.57386 11.1151 9.74432C10.7576 9.91477 10.2924 10 9.71946 10H7.09162ZM7.9723 9.21875H9.71946C10.2947 9.21875 10.7031 9.10748 10.9446 8.88494C11.1884 8.66004 11.3104 8.38778 11.3104 8.06818C11.3104 7.82197 11.2476 7.5947 11.1222 7.38636C10.9967 7.17566 10.8179 7.00758 10.5859 6.8821C10.3539 6.75426 10.0793 6.69034 9.76207 6.69034H7.9723V9.21875ZM7.9723 5.9233H9.60582C9.87098 5.9233 10.1101 5.87121 10.3232 5.76705C10.5386 5.66288 10.709 5.5161 10.8345 5.3267C10.9624 5.13731 11.0263 4.91477 11.0263 4.65909C11.0263 4.33949 10.915 4.06842 10.6925 3.84588C10.4699 3.62098 10.1172 3.50852 9.63423 3.50852H7.9723V5.9233Z" fill="black"/>
<path d="M1114.88 605V597.727H1119.24V598.509H1115.76V600.966H1118.91V601.747H1115.76V605H1114.88ZM1120.58 605V599.545H1121.39V600.369H1121.44C1121.54 600.099 1121.72 599.88 1121.98 599.712C1122.24 599.544 1122.54 599.46 1122.86 599.46C1122.93 599.46 1123 599.461 1123.1 599.464C1123.19 599.466 1123.26 599.47 1123.3 599.474V600.327C1123.28 600.32 1123.21 600.309 1123.11 600.295C1123.01 600.278 1122.9 600.27 1122.79 600.27C1122.53 600.27 1122.29 600.326 1122.08 600.437C1121.88 600.546 1121.71 600.697 1121.59 600.891C1121.47 601.083 1121.42 601.302 1121.42 601.548V605H1120.58ZM1126.42 605.114C1125.89 605.114 1125.44 604.998 1125.06 604.766C1124.68 604.531 1124.39 604.205 1124.18 603.786C1123.98 603.364 1123.88 602.874 1123.88 602.315C1123.88 601.757 1123.98 601.264 1124.18 600.838C1124.39 600.41 1124.67 600.076 1125.04 599.837C1125.41 599.595 1125.84 599.474 1126.33 599.474C1126.62 599.474 1126.9 599.522 1127.18 599.616C1127.45 599.711 1127.7 599.865 1127.93 600.078C1128.16 600.289 1128.34 600.568 1128.48 600.916C1128.61 601.264 1128.68 601.693 1128.68 602.202V602.557H1124.47V601.832H1127.83C1127.83 601.525 1127.76 601.25 1127.64 601.009C1127.52 600.767 1127.35 600.576 1127.12 600.437C1126.9 600.297 1126.64 600.227 1126.33 600.227C1126 600.227 1125.71 600.31 1125.47 600.476C1125.23 600.639 1125.04 600.852 1124.91 601.115C1124.78 601.378 1124.71 601.66 1124.71 601.96V602.443C1124.71 602.855 1124.79 603.204 1124.93 603.491C1125.07 603.775 1125.27 603.991 1125.53 604.141C1125.78 604.287 1126.08 604.361 1126.42 604.361C1126.64 604.361 1126.84 604.33 1127.02 604.268C1127.2 604.205 1127.35 604.11 1127.48 603.984C1127.61 603.857 1127.71 603.698 1127.78 603.509L1128.59 603.736C1128.51 604.01 1128.36 604.252 1128.16 604.46C1127.96 604.666 1127.71 604.827 1127.42 604.943C1127.12 605.057 1126.79 605.114 1126.42 605.114ZM1133.67 607.045V604.162H1133.6C1133.54 604.261 1133.45 604.387 1133.34 604.538C1133.23 604.687 1133.06 604.821 1132.85 604.94C1132.64 605.056 1132.36 605.114 1132.01 605.114C1131.56 605.114 1131.16 604.999 1130.81 604.769C1130.46 604.537 1130.19 604.21 1129.99 603.789C1129.8 603.365 1129.7 602.865 1129.7 602.287C1129.7 601.714 1129.8 601.217 1129.99 600.795C1130.19 600.374 1130.46 600.049 1130.81 599.819C1131.16 599.589 1131.57 599.474 1132.03 599.474C1132.38 599.474 1132.66 599.534 1132.87 599.652C1133.08 599.768 1133.24 599.901 1133.34 600.05C1133.46 600.196 1133.54 600.317 1133.6 600.412H1133.7V599.545H1134.51V607.045H1133.67ZM1132.13 604.361C1132.46 604.361 1132.75 604.273 1132.98 604.098C1133.21 603.92 1133.39 603.675 1133.51 603.363C1133.63 603.048 1133.69 602.685 1133.69 602.273C1133.69 601.866 1133.63 601.509 1133.51 601.204C1133.39 600.896 1133.22 600.657 1132.99 600.487C1132.75 600.314 1132.47 600.227 1132.13 600.227C1131.77 600.227 1131.47 600.318 1131.24 600.501C1131 600.681 1130.83 600.926 1130.71 601.236C1130.59 601.544 1130.53 601.889 1130.53 602.273C1130.53 602.661 1130.59 603.014 1130.71 603.331C1130.83 603.646 1131.01 603.897 1131.25 604.084C1131.48 604.268 1131.78 604.361 1132.13 604.361ZM1139.16 601.932C1139.16 601.037 1139.27 600.214 1139.51 599.464C1139.74 598.711 1140.07 598.018 1140.51 597.386H1141.25C1141.07 597.621 1140.91 597.91 1140.77 598.253C1140.62 598.594 1140.49 598.969 1140.38 599.379C1140.27 599.786 1140.18 600.207 1140.12 600.643C1140.05 601.078 1140.02 601.508 1140.02 601.932C1140.02 602.495 1140.08 603.067 1140.19 603.647C1140.3 604.227 1140.44 604.766 1140.63 605.263C1140.81 605.76 1141.02 606.165 1141.25 606.477H1140.51C1140.07 605.845 1139.74 605.154 1139.51 604.403C1139.27 603.651 1139.16 602.827 1139.16 601.932ZM1142.6 605V597.727H1143.48V600.966H1147.35V597.727H1148.23V605H1147.35V601.747H1143.48V605H1142.6ZM1149.73 605V604.361L1152.82 600.384V600.327H1149.83V599.545H1153.9V600.213L1150.89 604.162V604.219H1154V605H1149.73ZM1157.08 601.932C1157.08 602.827 1156.97 603.651 1156.73 604.403C1156.5 605.154 1156.17 605.845 1155.73 606.477H1155C1155.17 606.243 1155.33 605.954 1155.47 605.611C1155.62 605.27 1155.75 604.896 1155.86 604.489C1155.97 604.079 1156.06 603.656 1156.12 603.221C1156.19 602.783 1156.22 602.353 1156.22 601.932C1156.22 601.368 1156.16 600.797 1156.05 600.217C1155.95 599.637 1155.8 599.098 1155.61 598.601C1155.43 598.104 1155.22 597.699 1155 597.386H1155.73C1156.17 598.018 1156.5 598.711 1156.73 599.464C1156.97 600.214 1157.08 601.037 1157.08 601.932Z" fill="black"/>
<path d="M44.3271 570V576" stroke="black"/>
<path d="M38.9276 586.1V585.461L41.3282 582.833C41.6099 582.525 41.8419 582.258 42.0242 582.03C42.2065 581.801 42.3415 581.585 42.4291 581.384C42.519 581.181 42.564 580.968 42.564 580.745C42.564 580.489 42.5025 580.268 42.3794 580.081C42.2586 579.894 42.0929 579.749 41.8822 579.648C41.6715 579.546 41.4347 579.495 41.172 579.495C40.8926 579.495 40.6488 579.553 40.4404 579.669C40.2345 579.783 40.0747 579.942 39.961 580.148C39.8498 580.354 39.7941 580.596 39.7941 580.873H38.9561C38.9561 580.447 39.0543 580.073 39.2508 579.751C39.4473 579.429 39.7148 579.178 40.0534 578.998C40.3943 578.818 40.7766 578.728 41.2004 578.728C41.6265 578.728 42.0041 578.818 42.3332 578.998C42.6623 579.178 42.9203 579.42 43.1073 579.726C43.2944 580.031 43.3879 580.371 43.3879 580.745C43.3879 581.013 43.3393 581.274 43.2423 581.53C43.1476 581.783 42.9819 582.066 42.7451 582.379C42.5107 582.689 42.1852 583.067 41.7686 583.515L40.135 585.262V585.319H43.5157V586.1H38.9276ZM47.3545 586.2C46.8195 586.2 46.3637 586.054 45.9873 585.763C45.6109 585.469 45.3232 585.044 45.1244 584.488C44.9255 583.929 44.8261 583.254 44.8261 582.464C44.8261 581.678 44.9255 581.007 45.1244 580.45C45.3256 579.892 45.6144 579.465 45.9909 579.172C46.3696 578.876 46.8242 578.728 47.3545 578.728C47.8848 578.728 48.3382 578.876 48.7146 579.172C49.0934 579.465 49.3822 579.892 49.5811 580.45C49.7823 581.007 49.8829 581.678 49.8829 582.464C49.8829 583.254 49.7835 583.929 49.5846 584.488C49.3857 585.044 49.0981 585.469 48.7217 585.763C48.3453 586.054 47.8895 586.2 47.3545 586.2ZM47.3545 585.418C47.8848 585.418 48.2967 585.163 48.5903 584.651C48.8838 584.14 49.0306 583.411 49.0306 582.464C49.0306 581.834 48.9632 581.298 48.8282 580.855C48.6956 580.412 48.5039 580.075 48.2529 579.843C48.0044 579.611 47.7049 579.495 47.3545 579.495C46.8289 579.495 46.4182 579.754 46.1222 580.273C45.8263 580.789 45.6784 581.519 45.6784 582.464C45.6784 583.093 45.7446 583.629 45.8772 584.069C46.0098 584.509 46.2004 584.844 46.449 585.074C46.6999 585.303 47.0017 585.418 47.3545 585.418Z" fill="black"/>
<path d="M105.617 570V576" stroke="black"/>
<path d="M102.519 586.2C102.05 586.2 101.632 586.119 101.265 585.958C100.9 585.797 100.61 585.573 100.395 585.287C100.182 584.998 100.066 584.663 100.047 584.282H100.942C100.961 584.516 101.041 584.719 101.183 584.889C101.325 585.057 101.511 585.187 101.741 585.28C101.971 585.372 102.225 585.418 102.504 585.418C102.817 585.418 103.094 585.364 103.335 585.255C103.577 585.146 103.766 584.995 103.904 584.8C104.041 584.606 104.109 584.381 104.109 584.126C104.109 583.858 104.043 583.623 103.911 583.419C103.778 583.213 103.584 583.052 103.328 582.936C103.073 582.82 102.76 582.762 102.391 582.762H101.808V581.981H102.391C102.68 581.981 102.933 581.929 103.151 581.825C103.371 581.72 103.542 581.574 103.666 581.384C103.791 581.195 103.854 580.972 103.854 580.717C103.854 580.47 103.799 580.256 103.69 580.074C103.582 579.892 103.428 579.749 103.229 579.648C103.032 579.546 102.8 579.495 102.533 579.495C102.282 579.495 102.045 579.541 101.823 579.633C101.602 579.723 101.422 579.855 101.283 580.028C101.143 580.198 101.067 580.404 101.056 580.646H100.203C100.217 580.264 100.332 579.931 100.548 579.644C100.763 579.355 101.045 579.13 101.393 578.969C101.743 578.808 102.128 578.728 102.547 578.728C102.997 578.728 103.383 578.819 103.705 579.001C104.027 579.181 104.274 579.419 104.447 579.715C104.62 580.011 104.706 580.331 104.706 580.674C104.706 581.084 104.598 581.433 104.383 581.722C104.17 582.01 103.88 582.21 103.513 582.322V582.379C103.972 582.454 104.331 582.65 104.589 582.964C104.847 583.277 104.976 583.664 104.976 584.126C104.976 584.521 104.868 584.876 104.653 585.191C104.44 585.504 104.149 585.75 103.779 585.93C103.41 586.11 102.99 586.2 102.519 586.2ZM108.801 586.2C108.265 586.2 107.81 586.054 107.433 585.763C107.057 585.469 106.769 585.044 106.57 584.488C106.372 583.929 106.272 583.254 106.272 582.464C106.272 581.678 106.372 581.007 106.57 580.45C106.772 579.892 107.06 579.465 107.437 579.172C107.816 578.876 108.27 578.728 108.801 578.728C109.331 578.728 109.784 578.876 110.161 579.172C110.539 579.465 110.828 579.892 111.027 580.45C111.228 581.007 111.329 581.678 111.329 582.464C111.329 583.254 111.23 583.929 111.031 584.488C110.832 585.044 110.544 585.469 110.168 585.763C109.791 586.054 109.336 586.2 108.801 586.2ZM108.801 585.418C109.331 585.418 109.743 585.163 110.036 584.651C110.33 584.14 110.477 583.411 110.477 582.464C110.477 581.834 110.409 581.298 110.274 580.855C110.142 580.412 109.95 580.075 109.699 579.843C109.45 579.611 109.151 579.495 108.801 579.495C108.275 579.495 107.864 579.754 107.568 580.273C107.272 580.789 107.124 581.519 107.124 582.464C107.124 583.093 107.191 583.629 107.323 584.069C107.456 584.509 107.646 584.844 107.895 585.074C108.146 585.303 108.448 585.418 108.801 585.418Z" fill="black"/>
<path d="M149.103 570V576" stroke="black"/>
<path d="M143.352 584.609V583.884L146.548 578.827H147.074V579.95H146.719L144.304 583.771V583.827H148.608V584.609H143.352ZM146.776 586.1V584.388V584.051V578.827H147.614V586.1H146.776ZM152.311 586.2C151.776 586.2 151.32 586.054 150.944 585.763C150.567 585.469 150.28 585.044 150.081 584.488C149.882 583.929 149.783 583.254 149.783 582.464C149.783 581.678 149.882 581.007 150.081 580.45C150.282 579.892 150.571 579.465 150.947 579.172C151.326 578.876 151.781 578.728 152.311 578.728C152.841 578.728 153.295 578.876 153.671 579.172C154.05 579.465 154.339 579.892 154.538 580.45C154.739 581.007 154.839 581.678 154.839 582.464C154.839 583.254 154.74 583.929 154.541 584.488C154.342 585.044 154.055 585.469 153.678 585.763C153.302 586.054 152.846 586.2 152.311 586.2ZM152.311 585.418C152.841 585.418 153.253 585.163 153.547 584.651C153.84 584.14 153.987 583.411 153.987 582.464C153.987 581.834 153.92 581.298 153.785 580.855C153.652 580.412 153.46 580.075 153.209 579.843C152.961 579.611 152.661 579.495 152.311 579.495C151.785 579.495 151.375 579.754 151.079 580.273C150.783 580.789 150.635 581.519 150.635 582.464C150.635 583.093 150.701 583.629 150.834 584.069C150.966 584.509 151.157 584.844 151.405 585.074C151.656 585.303 151.958 585.418 152.311 585.418Z" fill="black"/>
<path d="M182.833 570V576" stroke="black"/>
<path d="M210.393 570V576" stroke="black"/>
<path d="M233.694 570V576" stroke="black"/>
<path d="M253.879 570V576" stroke="black"/>
<path d="M271.683 570V576" stroke="black"/>
<path d="M287.609 570V576" stroke="black"/>
<path d="M282.344 578.827V586.1H281.464V579.751H281.421L279.645 580.93V580.035L281.464 578.827H282.344ZM286.808 586.2C286.273 586.2 285.817 586.054 285.441 585.763C285.064 585.469 284.777 585.044 284.578 584.488C284.379 583.929 284.28 583.254 284.28 582.464C284.28 581.678 284.379 581.007 284.578 580.45C284.779 579.892 285.068 579.465 285.444 579.172C285.823 578.876 286.278 578.728 286.808 578.728C287.338 578.728 287.792 578.876 288.168 579.172C288.547 579.465 288.836 579.892 289.035 580.45C289.236 581.007 289.337 581.678 289.337 582.464C289.337 583.254 289.237 583.929 289.038 584.488C288.839 585.044 288.552 585.469 288.175 585.763C287.799 586.054 287.343 586.2 286.808 586.2ZM286.808 585.418C287.338 585.418 287.75 585.163 288.044 584.651C288.337 584.14 288.484 583.411 288.484 582.464C288.484 581.834 288.417 581.298 288.282 580.855C288.149 580.412 287.957 580.075 287.707 579.843C287.458 579.611 287.158 579.495 286.808 579.495C286.283 579.495 285.872 579.754 285.576 580.273C285.28 580.789 285.132 581.519 285.132 582.464C285.132 583.093 285.198 583.629 285.331 584.069C285.463 584.509 285.654 584.844 285.903 585.074C286.154 585.303 286.455 585.418 286.808 585.418ZM293.058 586.2C292.523 586.2 292.067 586.054 291.691 585.763C291.314 585.469 291.027 585.044 290.828 584.488C290.629 583.929 290.53 583.254 290.53 582.464C290.53 581.678 290.629 581.007 290.828 580.45C291.029 579.892 291.318 579.465 291.694 579.172C292.073 578.876 292.528 578.728 293.058 578.728C293.588 578.728 294.042 578.876 294.418 579.172C294.797 579.465 295.086 579.892 295.285 580.45C295.486 581.007 295.587 581.678 295.587 582.464C295.587 583.254 295.487 583.929 295.288 584.488C295.089 585.044 294.802 585.469 294.425 585.763C294.049 586.054 293.593 586.2 293.058 586.2ZM293.058 585.418C293.588 585.418 294 585.163 294.294 584.651C294.587 584.14 294.734 583.411 294.734 582.464C294.734 581.834 294.667 581.298 294.532 580.855C294.399 580.412 294.207 580.075 293.957 579.843C293.708 579.611 293.408 579.495 293.058 579.495C292.533 579.495 292.122 579.754 291.826 580.273C291.53 580.789 291.382 581.519 291.382 582.464C291.382 583.093 291.448 583.629 291.581 584.069C291.713 584.509 291.904 584.844 292.153 585.074C292.404 585.303 292.705 585.418 293.058 585.418Z" fill="black"/>
<path d="M392.385 570V576" stroke="black"/>
<path d="M383.86 586.1V585.461L386.261 582.833C386.543 582.525 386.775 582.258 386.957 582.03C387.139 581.801 387.274 581.585 387.362 581.384C387.452 581.181 387.497 580.968 387.497 580.745C387.497 580.489 387.435 580.268 387.312 580.081C387.191 579.894 387.026 579.749 386.815 579.648C386.604 579.546 386.367 579.495 386.105 579.495C385.825 579.495 385.581 579.553 385.373 579.669C385.167 579.783 385.007 579.942 384.894 580.148C384.782 580.354 384.727 580.596 384.727 580.873H383.889C383.889 580.447 383.987 580.073 384.183 579.751C384.38 579.429 384.647 579.178 384.986 578.998C385.327 578.818 385.709 578.728 386.133 578.728C386.559 578.728 386.937 578.818 387.266 578.998C387.595 579.178 387.853 579.42 388.04 579.726C388.227 580.031 388.32 580.371 388.32 580.745C388.32 581.013 388.272 581.274 388.175 581.53C388.08 581.783 387.914 582.066 387.678 582.379C387.443 582.689 387.118 583.067 386.701 583.515L385.068 585.262V585.319H388.448V586.1H383.86ZM392.287 586.2C391.752 586.2 391.296 586.054 390.92 585.763C390.544 585.469 390.256 585.044 390.057 584.488C389.858 583.929 389.759 583.254 389.759 582.464C389.759 581.678 389.858 581.007 390.057 580.45C390.258 579.892 390.547 579.465 390.923 579.172C391.302 578.876 391.757 578.728 392.287 578.728C392.817 578.728 393.271 578.876 393.647 579.172C394.026 579.465 394.315 579.892 394.514 580.45C394.715 581.007 394.816 581.678 394.816 582.464C394.816 583.254 394.716 583.929 394.517 584.488C394.318 585.044 394.031 585.469 393.654 585.763C393.278 586.054 392.822 586.2 392.287 586.2ZM392.287 585.418C392.817 585.418 393.229 585.163 393.523 584.651C393.816 584.14 393.963 583.411 393.963 582.464C393.963 581.834 393.896 581.298 393.761 580.855C393.628 580.412 393.436 580.075 393.186 579.843C392.937 579.611 392.637 579.495 392.287 579.495C391.762 579.495 391.351 579.754 391.055 580.273C390.759 580.789 390.611 581.519 390.611 582.464C390.611 583.093 390.677 583.629 390.81 584.069C390.942 584.509 391.133 584.844 391.382 585.074C391.633 585.303 391.934 585.418 392.287 585.418ZM398.537 586.2C398.002 586.2 397.546 586.054 397.17 585.763C396.794 585.469 396.506 585.044 396.307 584.488C396.108 583.929 396.009 583.254 396.009 582.464C396.009 581.678 396.108 581.007 396.307 580.45C396.508 579.892 396.797 579.465 397.173 579.172C397.552 578.876 398.007 578.728 398.537 578.728C399.067 578.728 399.521 578.876 399.897 579.172C400.276 579.465 400.565 579.892 400.764 580.45C400.965 581.007 401.066 581.678 401.066 582.464C401.066 583.254 400.966 583.929 400.767 584.488C400.568 585.044 400.281 585.469 399.904 585.763C399.528 586.054 399.072 586.2 398.537 586.2ZM398.537 585.418C399.067 585.418 399.479 585.163 399.773 584.651C400.066 584.14 400.213 583.411 400.213 582.464C400.213 581.834 400.146 581.298 400.011 580.855C399.878 580.412 399.686 580.075 399.436 579.843C399.187 579.611 398.887 579.495 398.537 579.495C398.012 579.495 397.601 579.754 397.305 580.273C397.009 580.789 396.861 581.519 396.861 582.464C396.861 583.093 396.927 583.629 397.06 584.069C397.192 584.509 397.383 584.844 397.632 585.074C397.883 585.303 398.184 585.418 398.537 585.418Z" fill="black"/>
<path d="M453.675 570V576" stroke="black"/>
<path d="M447.451 586.2C446.983 586.2 446.565 586.119 446.198 585.958C445.833 585.797 445.543 585.573 445.328 585.287C445.115 584.998 444.999 584.663 444.98 584.282H445.875C445.894 584.516 445.974 584.719 446.116 584.889C446.258 585.057 446.444 585.187 446.674 585.28C446.903 585.372 447.158 585.418 447.437 585.418C447.75 585.418 448.027 585.364 448.268 585.255C448.51 585.146 448.699 584.995 448.836 584.8C448.974 584.606 449.042 584.381 449.042 584.126C449.042 583.858 448.976 583.623 448.843 583.419C448.711 583.213 448.517 583.052 448.261 582.936C448.005 582.82 447.693 582.762 447.324 582.762H446.741V581.981H447.324C447.612 581.981 447.866 581.929 448.084 581.825C448.304 581.72 448.475 581.574 448.598 581.384C448.724 581.195 448.787 580.972 448.787 580.717C448.787 580.47 448.732 580.256 448.623 580.074C448.514 579.892 448.361 579.749 448.162 579.648C447.965 579.546 447.733 579.495 447.466 579.495C447.215 579.495 446.978 579.541 446.755 579.633C446.535 579.723 446.355 579.855 446.216 580.028C446.076 580.198 446 580.404 445.988 580.646H445.136C445.15 580.264 445.265 579.931 445.481 579.644C445.696 579.355 445.978 579.13 446.326 578.969C446.676 578.808 447.061 578.728 447.48 578.728C447.93 578.728 448.316 578.819 448.638 579.001C448.959 579.181 449.207 579.419 449.38 579.715C449.553 580.011 449.639 580.331 449.639 580.674C449.639 581.084 449.531 581.433 449.316 581.722C449.103 582.01 448.813 582.21 448.446 582.322V582.379C448.905 582.454 449.264 582.65 449.522 582.964C449.78 583.277 449.909 583.664 449.909 584.126C449.909 584.521 449.801 584.876 449.586 585.191C449.373 585.504 449.081 585.75 448.712 585.93C448.343 586.11 447.923 586.2 447.451 586.2ZM453.733 586.2C453.198 586.2 452.743 586.054 452.366 585.763C451.99 585.469 451.702 585.044 451.503 584.488C451.304 583.929 451.205 583.254 451.205 582.464C451.205 581.678 451.304 581.007 451.503 580.45C451.705 579.892 451.993 579.465 452.37 579.172C452.749 578.876 453.203 578.728 453.733 578.728C454.264 578.728 454.717 578.876 455.093 579.172C455.472 579.465 455.761 579.892 455.96 580.45C456.161 581.007 456.262 581.678 456.262 582.464C456.262 583.254 456.162 583.929 455.964 584.488C455.765 585.044 455.477 585.469 455.101 585.763C454.724 586.054 454.268 586.2 453.733 586.2ZM453.733 585.418C454.264 585.418 454.676 585.163 454.969 584.651C455.263 584.14 455.41 583.411 455.41 582.464C455.41 581.834 455.342 581.298 455.207 580.855C455.075 580.412 454.883 580.075 454.632 579.843C454.383 579.611 454.084 579.495 453.733 579.495C453.208 579.495 452.797 579.754 452.501 580.273C452.205 580.789 452.057 581.519 452.057 582.464C452.057 583.093 452.124 583.629 452.256 584.069C452.389 584.509 452.579 584.844 452.828 585.074C453.079 585.303 453.381 585.418 453.733 585.418ZM459.983 586.2C459.448 586.2 458.993 586.054 458.616 585.763C458.24 585.469 457.952 585.044 457.753 584.488C457.554 583.929 457.455 583.254 457.455 582.464C457.455 581.678 457.554 581.007 457.753 580.45C457.955 579.892 458.243 579.465 458.62 579.172C458.999 578.876 459.453 578.728 459.983 578.728C460.514 578.728 460.967 578.876 461.343 579.172C461.722 579.465 462.011 579.892 462.21 580.45C462.411 581.007 462.512 581.678 462.512 582.464C462.512 583.254 462.412 583.929 462.214 584.488C462.015 585.044 461.727 585.469 461.351 585.763C460.974 586.054 460.518 586.2 459.983 586.2ZM459.983 585.418C460.514 585.418 460.926 585.163 461.219 584.651C461.513 584.14 461.66 583.411 461.66 582.464C461.66 581.834 461.592 581.298 461.457 580.855C461.325 580.412 461.133 580.075 460.882 579.843C460.633 579.611 460.334 579.495 459.983 579.495C459.458 579.495 459.047 579.754 458.751 580.273C458.455 580.789 458.307 581.519 458.307 582.464C458.307 583.093 458.374 583.629 458.506 584.069C458.639 584.509 458.829 584.844 459.078 585.074C459.329 585.303 459.631 585.418 459.983 585.418Z" fill="black"/>
<path d="M497.161 570V576" stroke="black"/>
<path d="M488.285 584.609V583.884L491.481 578.827H492.007V579.95H491.652L489.237 583.771V583.827H493.541V584.609H488.285ZM491.708 586.1V584.388V584.051V578.827H492.546V586.1H491.708ZM497.244 586.2C496.709 586.2 496.253 586.054 495.876 585.763C495.5 585.469 495.212 585.044 495.014 584.488C494.815 583.929 494.715 583.254 494.715 582.464C494.715 581.678 494.815 581.007 495.014 580.45C495.215 579.892 495.504 579.465 495.88 579.172C496.259 578.876 496.713 578.728 497.244 578.728C497.774 578.728 498.227 578.876 498.604 579.172C498.983 579.465 499.271 579.892 499.47 580.45C499.671 581.007 499.772 581.678 499.772 582.464C499.772 583.254 499.673 583.929 499.474 584.488C499.275 585.044 498.987 585.469 498.611 585.763C498.234 586.054 497.779 586.2 497.244 586.2ZM497.244 585.418C497.774 585.418 498.186 585.163 498.479 584.651C498.773 584.14 498.92 583.411 498.92 582.464C498.92 581.834 498.852 581.298 498.717 580.855C498.585 580.412 498.393 580.075 498.142 579.843C497.894 579.611 497.594 579.495 497.244 579.495C496.718 579.495 496.307 579.754 496.011 580.273C495.715 580.789 495.568 581.519 495.568 582.464C495.568 583.093 495.634 583.629 495.766 584.069C495.899 584.509 496.09 584.844 496.338 585.074C496.589 585.303 496.891 585.418 497.244 585.418ZM503.494 586.2C502.959 586.2 502.503 586.054 502.126 585.763C501.75 585.469 501.462 585.044 501.264 584.488C501.065 583.929 500.965 583.254 500.965 582.464C500.965 581.678 501.065 581.007 501.264 580.45C501.465 579.892 501.754 579.465 502.13 579.172C502.509 578.876 502.963 578.728 503.494 578.728C504.024 578.728 504.477 578.876 504.854 579.172C505.233 579.465 505.521 579.892 505.72 580.45C505.921 581.007 506.022 581.678 506.022 582.464C506.022 583.254 505.923 583.929 505.724 584.488C505.525 585.044 505.237 585.469 504.861 585.763C504.484 586.054 504.029 586.2 503.494 586.2ZM503.494 585.418C504.024 585.418 504.436 585.163 504.729 584.651C505.023 584.14 505.17 583.411 505.17 582.464C505.17 581.834 505.102 581.298 504.967 580.855C504.835 580.412 504.643 580.075 504.392 579.843C504.144 579.611 503.844 579.495 503.494 579.495C502.968 579.495 502.557 579.754 502.261 580.273C501.965 580.789 501.818 581.519 501.818 582.464C501.818 583.093 501.884 583.629 502.016 584.069C502.149 584.509 502.34 584.844 502.588 585.074C502.839 585.303 503.141 585.418 503.494 585.418Z" fill="black"/>
<path d="M530.891 570V576" stroke="black"/>
<path d="M558.45 570V576" stroke="black"/>
<path d="M581.752 570V576" stroke="black"/>
<path d="M601.937 570V576" stroke="black"/>
<path d="M619.74 570V576" stroke="black"/>
<path d="M635.667 570V576" stroke="black"/>
<path d="M633.932 578.827V586.1H633.052V579.751H633.009L631.234 580.93V580.035L633.052 578.827H633.932ZM636.82 584.111L636.805 583.075H636.976L639.362 580.646H640.399L637.856 583.217H637.785L636.82 584.111ZM636.038 586.1V578.827H636.876V586.1H636.038ZM639.504 586.1L637.374 583.401L637.97 582.819L640.57 586.1H639.504Z" fill="black"/>
<path d="M740.442 570V576" stroke="black"/>
<path d="M735.448 586.1V585.461L737.849 582.833C738.13 582.525 738.362 582.258 738.545 582.03C738.727 581.801 738.862 581.585 738.95 581.384C739.04 581.181 739.085 580.968 739.085 580.745C739.085 580.489 739.023 580.268 738.9 580.081C738.779 579.894 738.613 579.749 738.403 579.648C738.192 579.546 737.955 579.495 737.692 579.495C737.413 579.495 737.169 579.553 736.961 579.669C736.755 579.783 736.595 579.942 736.482 580.148C736.37 580.354 736.315 580.596 736.315 580.873H735.477C735.477 580.447 735.575 580.073 735.771 579.751C735.968 579.429 736.235 579.178 736.574 578.998C736.915 578.818 737.297 578.728 737.721 578.728C738.147 578.728 738.525 578.818 738.854 578.998C739.183 579.178 739.441 579.42 739.628 579.726C739.815 580.031 739.908 580.371 739.908 580.745C739.908 581.013 739.86 581.274 739.763 581.53C739.668 581.783 739.502 582.066 739.266 582.379C739.031 582.689 738.706 583.067 738.289 583.515L736.656 585.262V585.319H740.036V586.1H735.448ZM742.298 584.111L742.284 583.075H742.455L744.841 580.646H745.878L743.335 583.217H743.264L742.298 584.111ZM741.517 586.1V578.827H742.355V586.1H741.517ZM744.983 586.1L742.852 583.401L743.449 582.819L746.048 586.1H744.983Z" fill="black"/>
<path d="M801.732 570V576" stroke="black"/>
<path d="M799.039 586.2C798.571 586.2 798.153 586.119 797.786 585.958C797.421 585.797 797.131 585.573 796.916 585.287C796.703 584.998 796.587 584.663 796.568 584.282H797.463C797.482 584.516 797.562 584.719 797.704 584.889C797.846 585.057 798.032 585.187 798.262 585.28C798.491 585.372 798.746 585.418 799.025 585.418C799.338 585.418 799.615 585.364 799.856 585.255C800.098 585.146 800.287 584.995 800.424 584.8C800.562 584.606 800.63 584.381 800.63 584.126C800.63 583.858 800.564 583.623 800.431 583.419C800.299 583.213 800.105 583.052 799.849 582.936C799.593 582.82 799.281 582.762 798.911 582.762H798.329V581.981H798.911C799.2 581.981 799.454 581.929 799.671 581.825C799.892 581.72 800.063 581.574 800.186 581.384C800.312 581.195 800.375 580.972 800.375 580.717C800.375 580.47 800.32 580.256 800.211 580.074C800.102 579.892 799.948 579.749 799.75 579.648C799.553 579.546 799.321 579.495 799.054 579.495C798.803 579.495 798.566 579.541 798.343 579.633C798.123 579.723 797.943 579.855 797.804 580.028C797.664 580.198 797.588 580.404 797.576 580.646H796.724C796.738 580.264 796.853 579.931 797.068 579.644C797.284 579.355 797.566 579.13 797.914 578.969C798.264 578.808 798.649 578.728 799.068 578.728C799.518 578.728 799.903 578.819 800.225 579.001C800.547 579.181 800.795 579.419 800.968 579.715C801.14 580.011 801.227 580.331 801.227 580.674C801.227 581.084 801.119 581.433 800.904 581.722C800.691 582.01 800.401 582.21 800.034 582.322V582.379C800.493 582.454 800.852 582.65 801.11 582.964C801.368 583.277 801.497 583.664 801.497 584.126C801.497 584.521 801.389 584.876 801.174 585.191C800.96 585.504 800.669 585.75 800.3 585.93C799.931 586.11 799.51 586.2 799.039 586.2ZM803.745 584.111L803.73 583.075H803.901L806.287 580.646H807.324L804.782 583.217H804.71L803.745 584.111ZM802.963 586.1V578.827H803.801V586.1H802.963ZM806.429 586.1L804.299 583.401L804.895 582.819L807.495 586.1H806.429Z" fill="black"/>
<path d="M845.218 570V576" stroke="black"/>
<path d="M839.873 584.609V583.884L843.069 578.827H843.595V579.95H843.239L840.825 583.771V583.827H845.129V584.609H839.873ZM843.296 586.1V584.388V584.051V578.827H844.134V586.1H843.296ZM847.255 584.111L847.241 583.075H847.411L849.797 580.646H850.834L848.292 583.217H848.221L847.255 584.111ZM846.474 586.1V578.827H847.312V586.1H846.474ZM849.939 586.1L847.809 583.401L848.405 582.819L851.005 586.1H849.939Z" fill="black"/>
<path d="M878.948 570V576" stroke="black"/>
<path d="M906.508 570V576" stroke="black"/>
<path d="M929.81 570V576" stroke="black"/>
<path d="M949.994 570V576" stroke="black"/>
<path d="M967.798 570V576" stroke="black"/>
<path d="M983.724 570V576" stroke="black"/>
<path d="M978.865 578.827V586.1H977.984V579.751H977.942L976.166 580.93V580.035L977.984 578.827H978.865ZM983.329 586.2C982.794 586.2 982.338 586.054 981.961 585.763C981.585 585.469 981.297 585.044 981.098 584.488C980.9 583.929 980.8 583.254 980.8 582.464C980.8 581.678 980.9 581.007 981.098 580.45C981.3 579.892 981.589 579.465 981.965 579.172C982.344 578.876 982.798 578.728 983.329 578.728C983.859 578.728 984.312 578.876 984.689 579.172C985.067 579.465 985.356 579.892 985.555 580.45C985.756 581.007 985.857 581.678 985.857 582.464C985.857 583.254 985.758 583.929 985.559 584.488C985.36 585.044 985.072 585.469 984.696 585.763C984.319 586.054 983.864 586.2 983.329 586.2ZM983.329 585.418C983.859 585.418 984.271 585.163 984.564 584.651C984.858 584.14 985.005 583.411 985.005 582.464C985.005 581.834 984.937 581.298 984.802 580.855C984.67 580.412 984.478 580.075 984.227 579.843C983.978 579.611 983.679 579.495 983.329 579.495C982.803 579.495 982.392 579.754 982.096 580.273C981.8 580.789 981.652 581.519 981.652 582.464C981.652 583.093 981.719 583.629 981.851 584.069C981.984 584.509 982.174 584.844 982.423 585.074C982.674 585.303 982.976 585.418 983.329 585.418ZM988.002 584.111L987.988 583.075H988.158L990.545 580.646H991.581L989.039 583.217H988.968L988.002 584.111ZM987.221 586.1V578.827H988.059V586.1H987.221ZM990.687 586.1L988.556 583.401L989.152 582.819L991.752 586.1H990.687Z" fill="black"/>
<path d="M1088.5 570V576" stroke="black"/>
<path d="M1080.38 586.1V585.461L1082.78 582.833C1083.06 582.525 1083.3 582.258 1083.48 582.03C1083.66 581.801 1083.79 581.585 1083.88 581.384C1083.97 581.181 1084.02 580.968 1084.02 580.745C1084.02 580.489 1083.96 580.268 1083.83 580.081C1083.71 579.894 1083.55 579.749 1083.34 579.648C1083.12 579.546 1082.89 579.495 1082.63 579.495C1082.35 579.495 1082.1 579.553 1081.89 579.669C1081.69 579.783 1081.53 579.942 1081.41 580.148C1081.3 580.354 1081.25 580.596 1081.25 580.873H1080.41C1080.41 580.447 1080.51 580.073 1080.7 579.751C1080.9 579.429 1081.17 579.178 1081.51 578.998C1081.85 578.818 1082.23 578.728 1082.65 578.728C1083.08 578.728 1083.46 578.818 1083.79 578.998C1084.12 579.178 1084.37 579.42 1084.56 579.726C1084.75 580.031 1084.84 580.371 1084.84 580.745C1084.84 581.013 1084.79 581.274 1084.7 581.53C1084.6 581.783 1084.43 582.066 1084.2 582.379C1083.96 582.689 1083.64 583.067 1083.22 583.515L1081.59 585.262V585.319H1084.97V586.1H1080.38ZM1088.81 586.2C1088.27 586.2 1087.82 586.054 1087.44 585.763C1087.06 585.469 1086.78 585.044 1086.58 584.488C1086.38 583.929 1086.28 583.254 1086.28 582.464C1086.28 581.678 1086.38 581.007 1086.58 580.45C1086.78 579.892 1087.07 579.465 1087.44 579.172C1087.82 578.876 1088.28 578.728 1088.81 578.728C1089.34 578.728 1089.79 578.876 1090.17 579.172C1090.55 579.465 1090.84 579.892 1091.03 580.45C1091.24 581.007 1091.34 581.678 1091.34 582.464C1091.34 583.254 1091.24 583.929 1091.04 584.488C1090.84 585.044 1090.55 585.469 1090.17 585.763C1089.8 586.054 1089.34 586.2 1088.81 586.2ZM1088.81 585.418C1089.34 585.418 1089.75 585.163 1090.04 584.651C1090.34 584.14 1090.48 583.411 1090.48 582.464C1090.48 581.834 1090.42 581.298 1090.28 580.855C1090.15 580.412 1089.96 580.075 1089.71 579.843C1089.46 579.611 1089.16 579.495 1088.81 579.495C1088.28 579.495 1087.87 579.754 1087.58 580.273C1087.28 580.789 1087.13 581.519 1087.13 582.464C1087.13 583.093 1087.2 583.629 1087.33 584.069C1087.46 584.509 1087.65 584.844 1087.9 585.074C1088.15 585.303 1088.45 585.418 1088.81 585.418ZM1093.48 584.111L1093.47 583.075H1093.64L1096.02 580.646H1097.06L1094.52 583.217H1094.45L1093.48 584.111ZM1092.7 586.1V578.827H1093.54V586.1H1092.7ZM1096.17 586.1L1094.03 583.401L1094.63 582.819L1097.23 586.1H1096.17Z" fill="black"/>
<rect opacity="0.3" x="40" y="40" width="193" height="530" fill="#D6424B"/>
<rect opacity="0.3" x="233" y="40" width="221" height="530" fill="#FDBE70"/>
<rect opacity="0.3" x="454" y="40" width="182" height="530" fill="#F0F8A9"/>
<rect opacity="0.3" x="636" y="40" width="271" height="530" fill="#77C6A7"/>
<rect opacity="0.3" x="907" y="40" width="77" height="530" fill="#438FB4"/>
<rect opacity="0.3" x="984" y="40" width="105" height="530" fill="#486FB0"/>
<path opacity="0.2" d="M83.9858 491.565C83.9176 490.878 83.625 490.344 83.108 489.963C82.5909 489.582 81.8892 489.392 81.0028 489.392C80.4006 489.392 79.892 489.477 79.4773 489.648C79.0625 489.812 78.7443 490.043 78.5227 490.338C78.3068 490.634 78.1989 490.969 78.1989 491.344C78.1875 491.656 78.2528 491.929 78.3949 492.162C78.5426 492.395 78.7443 492.597 79 492.767C79.2557 492.932 79.5511 493.077 79.8864 493.202C80.2216 493.321 80.5795 493.423 80.9602 493.509L82.5284 493.884C83.2898 494.054 83.9886 494.281 84.625 494.565C85.2614 494.849 85.8125 495.199 86.2784 495.614C86.7443 496.028 87.1051 496.517 87.3608 497.08C87.6222 497.642 87.7557 498.287 87.7614 499.014C87.7557 500.082 87.483 501.009 86.9432 501.793C86.4091 502.571 85.6364 503.176 84.625 503.608C83.6193 504.034 82.4063 504.247 80.9858 504.247C79.5767 504.247 78.3494 504.031 77.304 503.599C76.2642 503.168 75.4517 502.528 74.8665 501.682C74.2869 500.83 73.983 499.776 73.9545 498.52H77.5256C77.5653 499.105 77.733 499.594 78.0284 499.986C78.3295 500.372 78.7301 500.665 79.2301 500.864C79.7358 501.057 80.3068 501.153 80.9432 501.153C81.5682 501.153 82.1108 501.062 82.571 500.881C83.0369 500.699 83.3977 500.446 83.6534 500.122C83.9091 499.798 84.0369 499.426 84.0369 499.006C84.0369 498.614 83.9205 498.284 83.6875 498.017C83.4602 497.75 83.125 497.523 82.6818 497.335C82.2443 497.148 81.7074 496.977 81.071 496.824L79.1705 496.347C77.6989 495.989 76.5369 495.429 75.6847 494.668C74.8324 493.906 74.4091 492.881 74.4148 491.591C74.4091 490.534 74.6903 489.611 75.2585 488.821C75.8324 488.031 76.6193 487.415 77.6193 486.972C78.6193 486.528 79.7557 486.307 81.0284 486.307C82.3239 486.307 83.4545 486.528 84.4205 486.972C85.392 487.415 86.1477 488.031 86.6875 488.821C87.2273 489.611 87.5057 490.526 87.5227 491.565H83.9858ZM101.025 486.545H104.715V497.881C104.715 499.153 104.411 500.267 103.803 501.222C103.201 502.176 102.357 502.92 101.272 503.455C100.187 503.983 98.9226 504.247 97.4794 504.247C96.0305 504.247 94.7635 503.983 93.6783 503.455C92.593 502.92 91.7493 502.176 91.147 501.222C90.5447 500.267 90.2436 499.153 90.2436 497.881V486.545H93.9339V497.565C93.9339 498.23 94.0788 498.821 94.3686 499.338C94.6641 499.855 95.0788 500.261 95.6129 500.557C96.147 500.852 96.7692 501 97.4794 501C98.1953 501 98.8175 500.852 99.3459 500.557C99.88 500.261 100.292 499.855 100.582 499.338C100.877 498.821 101.025 498.23 101.025 497.565V486.545ZM107.751 504V486.545H114.74C116.024 486.545 117.095 486.736 117.953 487.116C118.811 487.497 119.456 488.026 119.888 488.702C120.32 489.372 120.536 490.145 120.536 491.02C120.536 491.702 120.399 492.301 120.126 492.818C119.854 493.33 119.479 493.75 119.001 494.08C118.53 494.403 117.99 494.634 117.382 494.77V494.94C118.047 494.969 118.669 495.156 119.249 495.503C119.834 495.849 120.308 496.335 120.672 496.96C121.036 497.58 121.217 498.318 121.217 499.176C121.217 500.102 120.987 500.929 120.527 501.656C120.072 502.378 119.399 502.949 118.507 503.369C117.615 503.79 116.516 504 115.209 504H107.751ZM111.442 500.983H114.45C115.479 500.983 116.229 500.787 116.7 500.395C117.172 499.997 117.408 499.469 117.408 498.81C117.408 498.327 117.291 497.901 117.058 497.531C116.825 497.162 116.493 496.872 116.061 496.662C115.635 496.452 115.126 496.347 114.536 496.347H111.442V500.983ZM111.442 493.849H114.178C114.683 493.849 115.132 493.761 115.524 493.585C115.922 493.403 116.234 493.148 116.462 492.818C116.695 492.489 116.811 492.094 116.811 491.634C116.811 491.003 116.587 490.494 116.138 490.108C115.695 489.722 115.064 489.528 114.246 489.528H111.442V493.849ZM74.517 533V515.545H81.5057C82.7898 515.545 83.8608 515.736 84.7188 516.116C85.5767 516.497 86.2216 517.026 86.6534 517.702C87.0852 518.372 87.3011 519.145 87.3011 520.02C87.3011 520.702 87.1648 521.301 86.892 521.818C86.6193 522.33 86.2443 522.75 85.767 523.08C85.2955 523.403 84.7557 523.634 84.1477 523.77V523.94C84.8125 523.969 85.4347 524.156 86.0142 524.503C86.5994 524.849 87.0739 525.335 87.4375 525.96C87.8011 526.58 87.983 527.318 87.983 528.176C87.983 529.102 87.7528 529.929 87.2926 530.656C86.8381 531.378 86.1648 531.949 85.2727 532.369C84.3807 532.79 83.2813 533 81.9744 533H74.517ZM78.2074 529.983H81.2159C82.2443 529.983 82.9943 529.787 83.4659 529.395C83.9375 528.997 84.1733 528.469 84.1733 527.81C84.1733 527.327 84.0568 526.901 83.8239 526.531C83.5909 526.162 83.2585 525.872 82.8267 525.662C82.4006 525.452 81.892 525.347 81.3011 525.347H78.2074V529.983ZM78.2074 522.849H80.9432C81.4489 522.849 81.8977 522.761 82.2898 522.585C82.6875 522.403 83 522.148 83.2273 521.818C83.4602 521.489 83.5767 521.094 83.5767 520.634C83.5767 520.003 83.3523 519.494 82.9034 519.108C82.4602 518.722 81.8295 518.528 81.0114 518.528H78.2074V522.849ZM93.3928 533H89.4382L95.4638 515.545H100.219L106.237 533H102.282L97.9098 519.534H97.7734L93.3928 533ZM93.1456 526.139H102.487V529.02H93.1456V526.139ZM117.408 520.565C117.339 519.878 117.047 519.344 116.53 518.963C116.013 518.582 115.311 518.392 114.425 518.392C113.822 518.392 113.314 518.477 112.899 518.648C112.484 518.812 112.166 519.043 111.945 519.338C111.729 519.634 111.621 519.969 111.621 520.344C111.609 520.656 111.675 520.929 111.817 521.162C111.964 521.395 112.166 521.597 112.422 521.767C112.678 521.932 112.973 522.077 113.308 522.202C113.643 522.321 114.001 522.423 114.382 522.509L115.95 522.884C116.712 523.054 117.411 523.281 118.047 523.565C118.683 523.849 119.234 524.199 119.7 524.614C120.166 525.028 120.527 525.517 120.783 526.08C121.044 526.642 121.178 527.287 121.183 528.014C121.178 529.082 120.905 530.009 120.365 530.793C119.831 531.571 119.058 532.176 118.047 532.608C117.041 533.034 115.828 533.247 114.408 533.247C112.999 533.247 111.771 533.031 110.726 532.599C109.686 532.168 108.874 531.528 108.288 530.682C107.709 529.83 107.405 528.776 107.376 527.52H110.947C110.987 528.105 111.155 528.594 111.45 528.986C111.751 529.372 112.152 529.665 112.652 529.864C113.158 530.057 113.729 530.153 114.365 530.153C114.99 530.153 115.533 530.062 115.993 529.881C116.459 529.699 116.82 529.446 117.075 529.122C117.331 528.798 117.459 528.426 117.459 528.006C117.459 527.614 117.342 527.284 117.109 527.017C116.882 526.75 116.547 526.523 116.104 526.335C115.666 526.148 115.129 525.977 114.493 525.824L112.592 525.347C111.121 524.989 109.959 524.429 109.107 523.668C108.254 522.906 107.831 521.881 107.837 520.591C107.831 519.534 108.112 518.611 108.68 517.821C109.254 517.031 110.041 516.415 111.041 515.972C112.041 515.528 113.178 515.307 114.45 515.307C115.746 515.307 116.876 515.528 117.842 515.972C118.814 516.415 119.57 517.031 120.109 517.821C120.649 518.611 120.928 519.526 120.945 520.565H117.408ZM133.134 520.565C133.066 519.878 132.773 519.344 132.256 518.963C131.739 518.582 131.038 518.392 130.151 518.392C129.549 518.392 129.04 518.477 128.626 518.648C128.211 518.812 127.893 519.043 127.671 519.338C127.455 519.634 127.347 519.969 127.347 520.344C127.336 520.656 127.401 520.929 127.543 521.162C127.691 521.395 127.893 521.597 128.148 521.767C128.404 521.932 128.7 522.077 129.035 522.202C129.37 522.321 129.728 522.423 130.109 522.509L131.677 522.884C132.438 523.054 133.137 523.281 133.773 523.565C134.41 523.849 134.961 524.199 135.427 524.614C135.893 525.028 136.254 525.517 136.509 526.08C136.771 526.642 136.904 527.287 136.91 528.014C136.904 529.082 136.631 530.009 136.092 530.793C135.558 531.571 134.785 532.176 133.773 532.608C132.768 533.034 131.555 533.247 130.134 533.247C128.725 533.247 127.498 533.031 126.452 532.599C125.413 532.168 124.6 531.528 124.015 530.682C123.435 529.83 123.131 528.776 123.103 527.52H126.674C126.714 528.105 126.881 528.594 127.177 528.986C127.478 529.372 127.879 529.665 128.379 529.864C128.884 530.057 129.455 530.153 130.092 530.153C130.717 530.153 131.259 530.062 131.719 529.881C132.185 529.699 132.546 529.446 132.802 529.122C133.058 528.798 133.185 528.426 133.185 528.006C133.185 527.614 133.069 527.284 132.836 527.017C132.609 526.75 132.273 526.523 131.83 526.335C131.393 526.148 130.856 525.977 130.219 525.824L128.319 525.347C126.847 524.989 125.685 524.429 124.833 523.668C123.981 522.906 123.558 521.881 123.563 520.591C123.558 519.534 123.839 518.611 124.407 517.821C124.981 517.031 125.768 516.415 126.768 515.972C127.768 515.528 128.904 515.307 130.177 515.307C131.472 515.307 132.603 515.528 133.569 515.972C134.54 516.415 135.296 517.031 135.836 517.821C136.376 518.611 136.654 519.526 136.671 520.565H133.134Z" fill="#262626"/>
<path opacity="0.2" d="M261.517 486.545H266.068L270.875 498.273H271.08L275.886 486.545H280.438V504H276.858V492.639H276.713L272.196 503.915H269.759L265.241 492.597H265.097V504H261.517V486.545ZM287.168 486.545V504H283.478V486.545H287.168ZM296.392 504H290.205V486.545H296.443C298.199 486.545 299.71 486.895 300.977 487.594C302.244 488.287 303.219 489.284 303.901 490.585C304.588 491.886 304.932 493.443 304.932 495.256C304.932 497.074 304.588 498.636 303.901 499.943C303.219 501.25 302.239 502.253 300.96 502.952C299.688 503.651 298.165 504 296.392 504ZM293.895 500.838H296.239C297.33 500.838 298.247 500.645 298.991 500.259C299.741 499.866 300.304 499.261 300.679 498.443C301.06 497.619 301.25 496.557 301.25 495.256C301.25 493.966 301.06 492.912 300.679 492.094C300.304 491.276 299.744 490.673 299 490.287C298.256 489.901 297.338 489.707 296.247 489.707H293.895V500.838ZM261.517 533V515.545H268.506C269.79 515.545 270.861 515.736 271.719 516.116C272.577 516.497 273.222 517.026 273.653 517.702C274.085 518.372 274.301 519.145 274.301 520.02C274.301 520.702 274.165 521.301 273.892 521.818C273.619 522.33 273.244 522.75 272.767 523.08C272.295 523.403 271.756 523.634 271.148 523.77V523.94C271.813 523.969 272.435 524.156 273.014 524.503C273.599 524.849 274.074 525.335 274.438 525.96C274.801 526.58 274.983 527.318 274.983 528.176C274.983 529.102 274.753 529.929 274.293 530.656C273.838 531.378 273.165 531.949 272.273 532.369C271.381 532.79 270.281 533 268.974 533H261.517ZM265.207 529.983H268.216C269.244 529.983 269.994 529.787 270.466 529.395C270.938 528.997 271.173 528.469 271.173 527.81C271.173 527.327 271.057 526.901 270.824 526.531C270.591 526.162 270.259 525.872 269.827 525.662C269.401 525.452 268.892 525.347 268.301 525.347H265.207V529.983ZM265.207 522.849H267.943C268.449 522.849 268.898 522.761 269.29 522.585C269.688 522.403 270 522.148 270.227 521.818C270.46 521.489 270.577 521.094 270.577 520.634C270.577 520.003 270.352 519.494 269.903 519.108C269.46 518.722 268.83 518.528 268.011 518.528H265.207V522.849ZM280.393 533H276.438L282.464 515.545H287.219L293.237 533H289.282L284.91 519.534H284.773L280.393 533ZM280.146 526.139H289.487V529.02H280.146V526.139ZM304.408 520.565C304.339 519.878 304.047 519.344 303.53 518.963C303.013 518.582 302.311 518.392 301.425 518.392C300.822 518.392 300.314 518.477 299.899 518.648C299.484 518.812 299.166 519.043 298.945 519.338C298.729 519.634 298.621 519.969 298.621 520.344C298.609 520.656 298.675 520.929 298.817 521.162C298.964 521.395 299.166 521.597 299.422 521.767C299.678 521.932 299.973 522.077 300.308 522.202C300.643 522.321 301.001 522.423 301.382 522.509L302.95 522.884C303.712 523.054 304.411 523.281 305.047 523.565C305.683 523.849 306.234 524.199 306.7 524.614C307.166 525.028 307.527 525.517 307.783 526.08C308.044 526.642 308.178 527.287 308.183 528.014C308.178 529.082 307.905 530.009 307.365 530.793C306.831 531.571 306.058 532.176 305.047 532.608C304.041 533.034 302.828 533.247 301.408 533.247C299.999 533.247 298.771 533.031 297.726 532.599C296.686 532.168 295.874 531.528 295.288 530.682C294.709 529.83 294.405 528.776 294.376 527.52H297.947C297.987 528.105 298.155 528.594 298.45 528.986C298.751 529.372 299.152 529.665 299.652 529.864C300.158 530.057 300.729 530.153 301.365 530.153C301.99 530.153 302.533 530.062 302.993 529.881C303.459 529.699 303.82 529.446 304.075 529.122C304.331 528.798 304.459 528.426 304.459 528.006C304.459 527.614 304.342 527.284 304.109 527.017C303.882 526.75 303.547 526.523 303.104 526.335C302.666 526.148 302.129 525.977 301.493 525.824L299.592 525.347C298.121 524.989 296.959 524.429 296.107 523.668C295.254 522.906 294.831 521.881 294.837 520.591C294.831 519.534 295.112 518.611 295.68 517.821C296.254 517.031 297.041 516.415 298.041 515.972C299.041 515.528 300.178 515.307 301.45 515.307C302.746 515.307 303.876 515.528 304.842 515.972C305.814 516.415 306.57 517.031 307.109 517.821C307.649 518.611 307.928 519.526 307.945 520.565H304.408ZM320.134 520.565C320.066 519.878 319.773 519.344 319.256 518.963C318.739 518.582 318.038 518.392 317.151 518.392C316.549 518.392 316.04 518.477 315.626 518.648C315.211 518.812 314.893 519.043 314.671 519.338C314.455 519.634 314.347 519.969 314.347 520.344C314.336 520.656 314.401 520.929 314.543 521.162C314.691 521.395 314.893 521.597 315.148 521.767C315.404 521.932 315.7 522.077 316.035 522.202C316.37 522.321 316.728 522.423 317.109 522.509L318.677 522.884C319.438 523.054 320.137 523.281 320.773 523.565C321.41 523.849 321.961 524.199 322.427 524.614C322.893 525.028 323.254 525.517 323.509 526.08C323.771 526.642 323.904 527.287 323.91 528.014C323.904 529.082 323.631 530.009 323.092 530.793C322.558 531.571 321.785 532.176 320.773 532.608C319.768 533.034 318.555 533.247 317.134 533.247C315.725 533.247 314.498 533.031 313.452 532.599C312.413 532.168 311.6 531.528 311.015 530.682C310.435 529.83 310.131 528.776 310.103 527.52H313.674C313.714 528.105 313.881 528.594 314.177 528.986C314.478 529.372 314.879 529.665 315.379 529.864C315.884 530.057 316.455 530.153 317.092 530.153C317.717 530.153 318.259 530.062 318.719 529.881C319.185 529.699 319.546 529.446 319.802 529.122C320.058 528.798 320.185 528.426 320.185 528.006C320.185 527.614 320.069 527.284 319.836 527.017C319.609 526.75 319.273 526.523 318.83 526.335C318.393 526.148 317.856 525.977 317.219 525.824L315.319 525.347C313.847 524.989 312.685 524.429 311.833 523.668C310.981 522.906 310.558 521.881 310.563 520.591C310.558 519.534 310.839 518.611 311.407 517.821C311.981 517.031 312.768 516.415 313.768 515.972C314.768 515.528 315.904 515.307 317.177 515.307C318.472 515.307 319.603 515.528 320.569 515.972C321.54 516.415 322.296 517.031 322.836 517.821C323.376 518.611 323.654 519.526 323.671 520.565H320.134Z" fill="#262626"/>
<path opacity="0.2" d="M482.517 504V486.545H486.207V500.957H493.69V504H482.517ZM511.494 495.273C511.494 497.176 511.134 498.795 510.412 500.131C509.696 501.466 508.719 502.486 507.48 503.19C506.247 503.889 504.861 504.239 503.321 504.239C501.77 504.239 500.378 503.886 499.145 503.182C497.912 502.477 496.938 501.457 496.222 500.122C495.506 498.787 495.148 497.17 495.148 495.273C495.148 493.369 495.506 491.75 496.222 490.415C496.938 489.08 497.912 488.062 499.145 487.364C500.378 486.659 501.77 486.307 503.321 486.307C504.861 486.307 506.247 486.659 507.48 487.364C508.719 488.062 509.696 489.08 510.412 490.415C511.134 491.75 511.494 493.369 511.494 495.273ZM507.753 495.273C507.753 494.04 507.568 493 507.199 492.153C506.835 491.307 506.321 490.665 505.656 490.227C504.991 489.79 504.213 489.571 503.321 489.571C502.429 489.571 501.651 489.79 500.986 490.227C500.321 490.665 499.804 491.307 499.435 492.153C499.071 493 498.889 494.04 498.889 495.273C498.889 496.506 499.071 497.545 499.435 498.392C499.804 499.239 500.321 499.881 500.986 500.318C501.651 500.756 502.429 500.974 503.321 500.974C504.213 500.974 504.991 500.756 505.656 500.318C506.321 499.881 506.835 499.239 507.199 498.392C507.568 497.545 507.753 496.506 507.753 495.273ZM517.501 504L512.506 486.545H516.538L519.427 498.673H519.572L522.759 486.545H526.211L529.39 498.699H529.543L532.433 486.545H536.464L531.469 504H527.873L524.549 492.588H524.413L521.097 504H517.501ZM482.517 515.545H487.068L491.875 527.273H492.08L496.886 515.545H501.438V533H497.858V521.639H497.713L493.196 532.915H490.759L486.241 521.597H486.097V533H482.517V515.545ZM508.168 515.545V533H504.478V515.545H508.168ZM517.392 533H511.205V515.545H517.443C519.199 515.545 520.71 515.895 521.977 516.594C523.244 517.287 524.219 518.284 524.901 519.585C525.588 520.886 525.932 522.443 525.932 524.256C525.932 526.074 525.588 527.636 524.901 528.943C524.219 530.25 523.239 531.253 521.96 531.952C520.688 532.651 519.165 533 517.392 533ZM514.895 529.838H517.239C518.33 529.838 519.247 529.645 519.991 529.259C520.741 528.866 521.304 528.261 521.679 527.443C522.06 526.619 522.25 525.557 522.25 524.256C522.25 522.966 522.06 521.912 521.679 521.094C521.304 520.276 520.744 519.673 520 519.287C519.256 518.901 518.338 518.707 517.247 518.707H514.895V529.838ZM538.134 520.565C538.066 519.878 537.773 519.344 537.256 518.963C536.739 518.582 536.038 518.392 535.151 518.392C534.549 518.392 534.04 518.477 533.626 518.648C533.211 518.812 532.893 519.043 532.671 519.338C532.455 519.634 532.347 519.969 532.347 520.344C532.336 520.656 532.401 520.929 532.543 521.162C532.691 521.395 532.893 521.597 533.148 521.767C533.404 521.932 533.7 522.077 534.035 522.202C534.37 522.321 534.728 522.423 535.109 522.509L536.677 522.884C537.438 523.054 538.137 523.281 538.773 523.565C539.41 523.849 539.961 524.199 540.427 524.614C540.893 525.028 541.254 525.517 541.509 526.08C541.771 526.642 541.904 527.287 541.91 528.014C541.904 529.082 541.631 530.009 541.092 530.793C540.558 531.571 539.785 532.176 538.773 532.608C537.768 533.034 536.555 533.247 535.134 533.247C533.725 533.247 532.498 533.031 531.452 532.599C530.413 532.168 529.6 531.528 529.015 530.682C528.435 529.83 528.131 528.776 528.103 527.52H531.674C531.714 528.105 531.881 528.594 532.177 528.986C532.478 529.372 532.879 529.665 533.379 529.864C533.884 530.057 534.455 530.153 535.092 530.153C535.717 530.153 536.259 530.062 536.719 529.881C537.185 529.699 537.546 529.446 537.802 529.122C538.058 528.798 538.185 528.426 538.185 528.006C538.185 527.614 538.069 527.284 537.836 527.017C537.609 526.75 537.273 526.523 536.83 526.335C536.393 526.148 535.856 525.977 535.219 525.824L533.319 525.347C531.847 524.989 530.685 524.429 529.833 523.668C528.981 522.906 528.558 521.881 528.563 520.591C528.558 519.534 528.839 518.611 529.407 517.821C529.981 517.031 530.768 516.415 531.768 515.972C532.768 515.528 533.904 515.307 535.177 515.307C536.472 515.307 537.603 515.528 538.569 515.972C539.54 516.415 540.296 517.031 540.836 517.821C541.376 518.611 541.654 519.526 541.671 520.565H538.134Z" fill="#262626"/>
<path opacity="0.2" d="M675.298 486.545H678.989V497.881C678.989 499.153 678.685 500.267 678.077 501.222C677.474 502.176 676.631 502.92 675.545 503.455C674.46 503.983 673.196 504.247 671.753 504.247C670.304 504.247 669.037 503.983 667.952 503.455C666.866 502.92 666.023 502.176 665.42 501.222C664.818 500.267 664.517 499.153 664.517 497.881V486.545H668.207V497.565C668.207 498.23 668.352 498.821 668.642 499.338C668.938 499.855 669.352 500.261 669.886 500.557C670.42 500.852 671.043 501 671.753 501C672.469 501 673.091 500.852 673.619 500.557C674.153 500.261 674.565 499.855 674.855 499.338C675.151 498.821 675.298 498.23 675.298 497.565V486.545ZM682.025 504V486.545H688.911C690.235 486.545 691.363 486.798 692.295 487.304C693.227 487.804 693.937 488.5 694.425 489.392C694.92 490.278 695.167 491.301 695.167 492.46C695.167 493.619 694.917 494.642 694.417 495.528C693.917 496.415 693.192 497.105 692.244 497.599C691.3 498.094 690.158 498.341 688.817 498.341H684.428V495.384H688.221C688.931 495.384 689.516 495.261 689.977 495.017C690.442 494.767 690.789 494.423 691.016 493.986C691.249 493.543 691.366 493.034 691.366 492.46C691.366 491.881 691.249 491.375 691.016 490.943C690.789 490.506 690.442 490.168 689.977 489.929C689.511 489.685 688.92 489.562 688.204 489.562H685.715V504H682.025ZM697.564 504V486.545H704.45C705.774 486.545 706.902 486.798 707.834 487.304C708.766 487.804 709.476 488.5 709.964 489.392C710.459 490.278 710.706 491.301 710.706 492.46C710.706 493.619 710.456 494.642 709.956 495.528C709.456 496.415 708.732 497.105 707.783 497.599C706.839 498.094 705.697 498.341 704.357 498.341H699.967V495.384H703.76C704.47 495.384 705.055 495.261 705.516 495.017C705.982 494.767 706.328 494.423 706.555 493.986C706.788 493.543 706.905 493.034 706.905 492.46C706.905 491.881 706.788 491.375 706.555 490.943C706.328 490.506 705.982 490.168 705.516 489.929C705.05 489.685 704.459 489.562 703.743 489.562H701.254V504H697.564ZM713.103 504V486.545H724.864V489.588H716.793V493.747H724.259V496.79H716.793V500.957H724.898V504H713.103ZM727.798 504V486.545H734.685C736.003 486.545 737.128 486.781 738.06 487.253C738.997 487.719 739.71 488.381 740.199 489.239C740.693 490.091 740.94 491.094 740.94 492.247C740.94 493.406 740.69 494.403 740.19 495.239C739.69 496.068 738.966 496.705 738.017 497.148C737.074 497.591 735.932 497.812 734.591 497.812H729.98V494.847H733.994C734.699 494.847 735.284 494.75 735.75 494.557C736.216 494.364 736.563 494.074 736.79 493.688C737.023 493.301 737.139 492.821 737.139 492.247C737.139 491.668 737.023 491.179 736.79 490.781C736.563 490.384 736.213 490.082 735.741 489.878C735.276 489.668 734.688 489.562 733.977 489.562H731.489V504H727.798ZM737.224 496.057L741.562 504H737.489L733.244 496.057H737.224ZM664.517 515.545H669.068L673.875 527.273H674.08L678.886 515.545H683.438V533H679.858V521.639H679.713L675.196 532.915H672.759L668.241 521.597H668.097V533H664.517V515.545ZM690.168 515.545V533H686.478V515.545H690.168ZM699.392 533H693.205V515.545H699.443C701.199 515.545 702.71 515.895 703.977 516.594C705.244 517.287 706.219 518.284 706.901 519.585C707.588 520.886 707.932 522.443 707.932 524.256C707.932 526.074 707.588 527.636 706.901 528.943C706.219 530.25 705.239 531.253 703.96 531.952C702.688 532.651 701.165 533 699.392 533ZM696.895 529.838H699.239C700.33 529.838 701.247 529.645 701.991 529.259C702.741 528.866 703.304 528.261 703.679 527.443C704.06 526.619 704.25 525.557 704.25 524.256C704.25 522.966 704.06 521.912 703.679 521.094C703.304 520.276 702.744 519.673 702 519.287C701.256 518.901 700.338 518.707 699.247 518.707H696.895V529.838ZM720.134 520.565C720.066 519.878 719.773 519.344 719.256 518.963C718.739 518.582 718.038 518.392 717.151 518.392C716.549 518.392 716.04 518.477 715.626 518.648C715.211 518.812 714.893 519.043 714.671 519.338C714.455 519.634 714.347 519.969 714.347 520.344C714.336 520.656 714.401 520.929 714.543 521.162C714.691 521.395 714.893 521.597 715.148 521.767C715.404 521.932 715.7 522.077 716.035 522.202C716.37 522.321 716.728 522.423 717.109 522.509L718.677 522.884C719.438 523.054 720.137 523.281 720.773 523.565C721.41 523.849 721.961 524.199 722.427 524.614C722.893 525.028 723.254 525.517 723.509 526.08C723.771 526.642 723.904 527.287 723.91 528.014C723.904 529.082 723.631 530.009 723.092 530.793C722.558 531.571 721.785 532.176 720.773 532.608C719.768 533.034 718.555 533.247 717.134 533.247C715.725 533.247 714.498 533.031 713.452 532.599C712.413 532.168 711.6 531.528 711.015 530.682C710.435 529.83 710.131 528.776 710.103 527.52H713.674C713.714 528.105 713.881 528.594 714.177 528.986C714.478 529.372 714.879 529.665 715.379 529.864C715.884 530.057 716.455 530.153 717.092 530.153C717.717 530.153 718.259 530.062 718.719 529.881C719.185 529.699 719.546 529.446 719.802 529.122C720.058 528.798 720.185 528.426 720.185 528.006C720.185 527.614 720.069 527.284 719.836 527.017C719.609 526.75 719.273 526.523 718.83 526.335C718.393 526.148 717.856 525.977 717.219 525.824L715.319 525.347C713.847 524.989 712.685 524.429 711.833 523.668C710.981 522.906 710.558 521.881 710.563 520.591C710.558 519.534 710.839 518.611 711.407 517.821C711.981 517.031 712.768 516.415 713.768 515.972C714.768 515.528 715.904 515.307 717.177 515.307C718.472 515.307 719.603 515.528 720.569 515.972C721.54 516.415 722.296 517.031 722.836 517.821C723.376 518.611 723.654 519.526 723.671 520.565H720.134Z" fill="#262626"/>
<path opacity="0.2" d="M1015.53 531H1011.57L1017.6 513.545H1022.35L1028.37 531H1024.41L1020.04 517.534H1019.91L1015.53 531ZM1015.28 524.139H1024.62V527.02H1015.28V524.139ZM1034.16 513.545V531H1030.47V513.545H1034.16ZM1037.2 531V513.545H1044.08C1045.4 513.545 1046.53 513.781 1047.46 514.253C1048.4 514.719 1049.11 515.381 1049.6 516.239C1050.09 517.091 1050.34 518.094 1050.34 519.247C1050.34 520.406 1050.09 521.403 1049.59 522.239C1049.09 523.068 1048.36 523.705 1047.42 524.148C1046.47 524.591 1045.33 524.812 1043.99 524.812H1039.38V521.847H1043.39C1044.1 521.847 1044.68 521.75 1045.15 521.557C1045.61 521.364 1045.96 521.074 1046.19 520.688C1046.42 520.301 1046.54 519.821 1046.54 519.247C1046.54 518.668 1046.42 518.179 1046.19 517.781C1045.96 517.384 1045.61 517.082 1045.14 516.878C1044.67 516.668 1044.09 516.562 1043.38 516.562H1040.89V531H1037.2ZM1046.62 523.057L1050.96 531H1046.89L1042.64 523.057H1046.62Z" fill="#262626"/>
<path opacity="0.2" d="M938.337 406.588V403.545H952.672V406.588H947.328V421H943.68V406.588H938.337ZM939.142 443V425.545H946.028C947.347 425.545 948.472 425.781 949.403 426.253C950.341 426.719 951.054 427.381 951.543 428.239C952.037 429.091 952.284 430.094 952.284 431.247C952.284 432.406 952.034 433.403 951.534 434.239C951.034 435.068 950.31 435.705 949.361 436.148C948.418 436.591 947.276 436.812 945.935 436.812H941.324V433.847H945.338C946.043 433.847 946.628 433.75 947.094 433.557C947.56 433.364 947.906 433.074 948.134 432.688C948.366 432.301 948.483 431.821 948.483 431.247C948.483 430.668 948.366 430.179 948.134 429.781C947.906 429.384 947.557 429.082 947.085 428.878C946.619 428.668 946.031 428.562 945.321 428.562H942.832V443H939.142ZM948.568 435.057L952.906 443H948.832L944.588 435.057H948.568ZM939.669 465V447.545H951.431V450.588H943.36V454.747H950.826V457.79H943.36V461.957H951.465V465H939.669ZM939.083 487V469.545H946.072C947.356 469.545 948.427 469.736 949.285 470.116C950.143 470.497 950.788 471.026 951.22 471.702C951.652 472.372 951.868 473.145 951.868 474.02C951.868 474.702 951.731 475.301 951.458 475.818C951.186 476.33 950.811 476.75 950.333 477.08C949.862 477.403 949.322 477.634 948.714 477.77V477.94C949.379 477.969 950.001 478.156 950.581 478.503C951.166 478.849 951.64 479.335 952.004 479.96C952.368 480.58 952.549 481.318 952.549 482.176C952.549 483.102 952.319 483.929 951.859 484.656C951.404 485.378 950.731 485.949 949.839 486.369C948.947 486.79 947.848 487 946.541 487H939.083ZM942.774 483.983H945.782C946.811 483.983 947.561 483.787 948.032 483.395C948.504 482.997 948.74 482.469 948.74 481.81C948.74 481.327 948.623 480.901 948.39 480.531C948.157 480.162 947.825 479.872 947.393 479.662C946.967 479.452 946.458 479.347 945.868 479.347H942.774V483.983ZM942.774 476.849H945.51C946.015 476.849 946.464 476.761 946.856 476.585C947.254 476.403 947.566 476.148 947.794 475.818C948.027 475.489 948.143 475.094 948.143 474.634C948.143 474.003 947.919 473.494 947.47 473.108C947.027 472.722 946.396 472.528 945.578 472.528H942.774V476.849ZM940.208 509V491.545H943.899V505.957H951.382V509H940.208ZM939.669 531V513.545H951.431V516.588H943.36V520.747H950.826V523.79H943.36V527.957H951.465V531H939.669Z" fill="#262626"/>
</svg>
