<svg width="692" height="593" viewBox="0 0 692 593" fill="none" xmlns="http://www.w3.org/2000/svg">
<path d="M121.724 106.316C118.053 128.758 129.231 176.652 135.279 197.794C144.764 201.555 158.015 192.173 158.015 192.173C158.015 192.173 141.224 140.091 145.563 111.605C146.159 107.689 157.675 61.585 212.318 89.2295C253.554 115.652 292.63 159.976 307.26 226.673C319.287 281.505 324.816 432.081 322.69 502.398L344.394 501.991C347.634 440.269 349.723 300.422 332.165 234.81C310.218 152.796 270.473 98.9555 227.005 72.6673C192.231 51.6368 160.899 59.8344 149.579 66.562C141.824 70.4623 125.395 83.8735 121.724 106.316Z" fill="#2B2B2B" fill-opacity="0.28" stroke="black"/>
<path d="M372.828 397.241C371.495 404.154 369.306 411.975 362.357 413.103L319.921 437.603C308.23 444.353 265.035 437.538 259.437 433.842C253.839 430.145 231.005 441.596 225.273 435.668C196.029 456.016 196.261 452.418 193.029 450.82C189.797 449.222 175.926 412.197 176.756 403.635C177.42 396.785 199.417 395.375 210.333 395.526C210.536 391.47 211.684 387.949 214.196 385.483C247.27 361.769 231.257 345.033 227.069 323.78C223.719 306.777 228.789 301.425 231.743 300.874L183.187 301.773C176.369 302.63 159.858 296.766 148.361 266.453C136.865 236.141 124.557 213.224 124.838 206.711C125.746 185.727 163.419 166.535 173.921 184.724C182.17 199.012 191.438 219.065 198.421 227.159C209.334 239.81 219.987 237.586 236.218 233.626C243.07 231.953 247.053 227.393 258.252 223.791C281.459 216.326 304.376 219.68 324.47 233.482C344.564 247.284 354.885 255.047 366.826 274.845C379.644 296.096 386.922 311.496 383.72 336.106C381.969 349.568 373.759 352.455 372.068 365.925C370.578 377.796 374.707 387.496 372.828 397.241Z" fill="#2B2B2B" fill-opacity="0.28"/>
<path d="M258.252 223.791C255.123 255.37 261.246 281.854 277.92 308.855C289.07 326.911 308.281 344.442 314.812 348.754C321.343 353.066 335.214 390.091 347.812 405.912C351.759 410.869 356.102 414.119 362.357 413.103M258.252 223.791C281.459 216.326 304.376 219.68 324.47 233.482C344.564 247.284 354.885 255.047 366.826 274.845C379.644 296.096 386.922 311.496 383.72 336.106C381.969 349.568 373.759 352.455 372.068 365.925C370.578 377.796 374.707 387.496 372.828 397.241C371.495 404.154 369.306 411.975 362.357 413.103M258.252 223.791C247.053 227.393 243.07 231.953 236.218 233.626C219.987 237.586 209.334 239.81 198.421 227.159C191.438 219.065 182.17 199.012 173.921 184.724C163.419 166.535 125.746 185.727 124.838 206.711C124.557 213.224 136.865 236.141 148.361 266.453C159.858 296.766 176.369 302.63 183.187 301.773L231.743 300.874M362.357 413.103L319.921 437.603M319.921 437.603C314.99 435.062 304.296 427.341 300.975 416.788C296.823 403.596 282.604 371.968 267.725 359.197C255.822 348.98 238.777 316.058 231.743 300.874M319.921 437.603C308.23 444.353 265.035 437.538 259.437 433.842C253.839 430.145 231.005 441.596 225.273 435.668M231.743 300.874C228.789 301.425 223.719 306.777 227.069 323.78C231.257 345.033 247.27 361.769 214.196 385.483C211.684 387.949 210.536 391.47 210.333 395.526M225.273 435.668C220.801 431.043 209.613 409.917 210.333 395.526M225.273 435.668C196.029 456.016 196.261 452.418 193.029 450.82C189.797 449.222 175.926 412.197 176.756 403.635C177.42 396.785 199.417 395.375 210.333 395.526" stroke="black"/>
<path d="M327.661 268.01L327.411 267.577C327.661 268.01 327.661 268.01 327.662 268.01L327.662 268.01L327.663 268.009L327.664 268.009L327.665 268.008L327.667 268.007L327.669 268.006L327.671 268.004L327.674 268.003L327.677 268.001L327.68 267.999L327.683 267.997L327.687 267.995L327.691 267.993L327.696 267.99L327.7 267.988L327.705 267.985L327.71 267.982L327.716 267.979L327.722 267.975L327.728 267.972L327.734 267.968L327.741 267.964L327.748 267.96L327.755 267.956L327.763 267.952L327.771 267.947L327.779 267.942L327.787 267.938L327.796 267.933L327.805 267.927L327.814 267.922L327.823 267.917L327.833 267.911L327.843 267.905L327.853 267.899L327.864 267.893L327.875 267.887L327.886 267.88L327.897 267.874L327.909 267.867L327.921 267.86L327.933 267.853L327.945 267.846L327.958 267.839L327.971 267.831L327.984 267.824L327.998 267.816L328.012 267.808L328.026 267.8L328.04 267.792L328.054 267.783L328.069 267.775L328.084 267.766L328.099 267.757L328.115 267.748L328.131 267.739L328.147 267.73L328.163 267.721L328.179 267.711L328.196 267.701L328.213 267.692L328.23 267.682L328.248 267.672L328.266 267.661L328.283 267.651L328.302 267.64L328.32 267.63L328.339 267.619L328.358 267.608L328.377 267.597L328.396 267.586L328.416 267.575L328.436 267.563L328.456 267.552L328.476 267.54L328.496 267.528L328.517 267.516L328.538 267.504L328.559 267.492L328.581 267.479L328.602 267.467L328.624 267.454L328.646 267.442L328.669 267.429L328.691 267.416L328.714 267.403L328.737 267.389L328.76 267.376L328.783 267.362L328.807 267.349L328.831 267.335L328.855 267.321L328.879 267.307L328.903 267.293L328.928 267.279L328.953 267.265L328.978 267.25L329.003 267.236L329.029 267.221L329.054 267.206L329.08 267.191L329.106 267.176L329.132 267.161L329.159 267.146L329.185 267.13L329.212 267.115L329.239 267.099L329.266 267.083L329.294 267.068L329.321 267.052L329.349 267.036L329.377 267.019L329.405 267.003L329.434 266.987L329.462 266.97L329.491 266.954L329.52 266.937L329.549 266.92L329.578 266.903L329.608 266.886L329.637 266.869L329.667 266.852L329.697 266.835L329.727 266.817L329.758 266.8L329.788 266.782L329.819 266.764L329.85 266.747L329.881 266.729L329.912 266.711L329.943 266.693L329.975 266.674L330.007 266.656L330.039 266.638L330.071 266.619L330.103 266.601L330.135 266.582L330.168 266.563L330.2 266.544L330.233 266.525L330.266 266.506L330.299 266.487L330.333 266.468L330.366 266.449L330.4 266.429L330.433 266.41L330.467 266.39L330.501 266.371L330.536 266.351L330.57 266.331L330.604 266.311L330.639 266.291L330.674 266.271L330.709 266.251L330.744 266.23L330.779 266.21L330.814 266.19L330.85 266.169L330.886 266.149L330.921 266.128L330.957 266.107L330.993 266.086L331.03 266.066L331.066 266.045L331.102 266.024L331.139 266.002L331.176 265.981L331.212 265.96L331.249 265.939L331.286 265.917L331.324 265.896L331.361 265.874L331.398 265.853L331.436 265.831L331.474 265.809L331.512 265.787L331.549 265.765L331.588 265.743L331.626 265.721L331.664 265.699L331.702 265.677L331.741 265.655L331.78 265.633L331.818 265.61L331.857 265.588L331.896 265.565L331.935 265.543L331.974 265.52L332.014 265.497L332.053 265.475L332.093 265.452L332.132 265.429L332.172 265.406L332.212 265.383L332.251 265.36L332.291 265.337L332.332 265.314L332.372 265.291L332.412 265.267L332.452 265.244L332.493 265.221L332.533 265.197L332.574 265.174L332.615 265.15L332.656 265.127L332.697 265.103L332.738 265.079L332.779 265.056L332.82 265.032L332.861 265.008L332.902 264.984L332.944 264.96L332.985 264.936L333.027 264.912L333.069 264.888L333.11 264.864L333.152 264.84L333.194 264.816L333.236 264.792L333.278 264.767L333.32 264.743L333.362 264.719L333.404 264.694L333.447 264.67L333.489 264.645L333.532 264.621L333.574 264.596L333.617 264.572L333.659 264.547L333.702 264.523L333.745 264.498L333.788 264.473L333.83 264.448L333.873 264.424L333.916 264.399L333.959 264.374L334.002 264.349L334.046 264.324L334.089 264.299L334.132 264.274L334.175 264.249L334.219 264.224L334.262 264.199L334.306 264.174L334.349 264.149L334.393 264.124L334.436 264.099L334.48 264.074L334.523 264.048L334.567 264.023L334.611 263.998L334.655 263.973L334.698 263.947L334.742 263.922L334.786 263.897L334.83 263.871L334.874 263.846L334.918 263.821L334.962 263.795L335.006 263.77L335.05 263.744L335.094 263.719L335.138 263.693L335.183 263.668L335.227 263.642L335.271 263.617L335.315 263.591L335.359 263.566L335.404 263.54L335.448 263.515L335.492 263.489L335.536 263.463L335.581 263.438L335.625 263.412L335.669 263.387L335.714 263.361L335.758 263.335L335.803 263.31L335.847 263.284L335.891 263.259L335.936 263.233L335.98 263.207L336.025 263.182L336.069 263.156L336.113 263.13L336.158 263.105L336.202 263.079L336.247 263.053L336.291 263.028L336.336 263.002L336.38 262.976L336.424 262.951L336.469 262.925L336.513 262.9L336.558 262.874L336.602 262.848L336.646 262.823L336.691 262.797L336.735 262.771L336.779 262.746L336.824 262.72L336.868 262.695L336.912 262.669L336.957 262.644L337.001 262.618L337.045 262.592L337.089 262.567L337.133 262.541L337.178 262.516L337.222 262.49L337.266 262.465L337.31 262.44L337.354 262.414L337.398 262.389L337.442 262.363L337.486 262.338L337.53 262.313L337.574 262.287L337.618 262.262L337.661 262.237L337.705 262.211L337.749 262.186L337.793 262.161L337.836 262.136L337.88 262.11L337.924 262.085L337.967 262.06L338.011 262.035L338.054 262.01L338.098 261.985L338.141 261.96L338.184 261.935L338.228 261.91L338.271 261.885L338.314 261.86L338.357 261.835L338.4 261.81L338.443 261.785L338.486 261.76L338.529 261.736L338.572 261.711L338.615 261.686L338.657 261.662L338.7 261.637L338.743 261.612L338.785 261.588L338.828 261.563L338.87 261.539L338.912 261.514L338.955 261.49L338.997 261.466L339.039 261.441L339.081 261.417L339.123 261.393L339.165 261.369L339.207 261.344L339.249 261.32L339.29 261.296L339.332 261.272L339.373 261.248L339.415 261.224L339.456 261.2L339.498 261.177L339.539 261.153L339.58 261.129L339.621 261.105L339.662 261.082L339.703 261.058L339.744 261.035L339.784 261.011L339.825 260.988L339.865 260.964L339.906 260.941L339.946 260.918L339.986 260.894L340.026 260.871L340.066 260.848L340.106 260.825L340.146 260.802L340.186 260.779L340.226 260.756L340.265 260.733L340.305 260.711L340.344 260.688L340.383 260.665L340.422 260.643L340.461 260.62L340.5 260.598L340.539 260.575L340.578 260.553L340.616 260.531L340.655 260.508L340.693 260.486L340.731 260.464L340.769 260.442L340.807 260.42L340.845 260.398L340.883 260.377L340.921 260.355L340.958 260.333L340.996 260.312L341.033 260.29L341.07 260.269L341.107 260.247L341.144 260.226L341.181 260.205L341.217 260.184L341.254 260.163L341.29 260.142L341.326 260.121L341.363 260.1L341.399 260.079L341.434 260.058L341.47 260.038L341.506 260.017L341.541 259.997L341.576 259.976L341.612 259.956L341.647 259.936L341.681 259.916L341.716 259.896L341.751 259.876L341.785 259.856L341.819 259.836L341.854 259.816L341.888 259.797L341.921 259.777L341.955 259.758L341.989 259.738L342.022 259.719L342.055 259.7L342.088 259.681L342.121 259.662L342.154 259.643L342.186 259.624L342.219 259.605L342.251 259.587L342.283 259.568L342.315 259.55L342.347 259.531L342.379 259.513L342.41 259.495L342.441 259.477L342.472 259.459L342.503 259.441L342.534 259.423L342.565 259.406L342.595 259.388L342.625 259.371L342.656 259.353L342.685 259.336L342.715 259.319L342.745 259.302L342.774 259.285L342.803 259.268L342.832 259.251L342.861 259.235L342.89 259.218L342.918 259.202L342.946 259.185L342.974 259.169L343.002 259.153L343.03 259.137L343.058 259.121L343.085 259.105L343.112 259.09L343.139 259.074L343.166 259.059L343.192 259.043L343.219 259.028L343.245 259.013L343.271 258.998L343.296 258.983L343.322 258.969L343.347 258.954L343.372 258.939L343.397 258.925L343.422 258.911L343.447 258.897L343.471 258.883L343.495 258.869L343.519 258.855L343.543 258.841L343.566 258.828L343.589 258.814L343.612 258.801L343.635 258.788L343.658 258.775L343.68 258.762L343.702 258.749L343.724 258.736L343.746 258.724L343.768 258.711L343.789 258.699L343.81 258.687L343.831 258.675L343.851 258.663L343.872 258.651L343.892 258.639L343.912 258.628L343.932 258.616L343.951 258.605L343.97 258.594L343.989 258.583L344.008 258.572L344.027 258.562L344.045 258.551L344.063 258.541L344.081 258.53L344.098 258.52L344.116 258.51C349.314 255.509 355.824 255.808 362.19 258.818C368.554 261.827 374.726 267.528 379.168 275.223C383.611 282.918 385.463 291.113 384.886 298.129C384.31 305.147 381.314 310.934 376.116 313.936C375.357 314.374 374.156 315.211 372.756 316.194C372.642 316.273 372.527 316.354 372.411 316.436C371.082 317.369 369.579 318.424 368.062 319.429C366.411 320.522 364.758 321.545 363.308 322.279C362.583 322.645 361.919 322.935 361.339 323.124C361.306 323.135 361.273 323.145 361.241 323.155C361.182 323.102 361.116 323.064 361.049 323.039C360.955 323.003 360.864 322.995 360.791 322.996C360.718 322.997 360.647 323.008 360.583 323.022C360.456 323.051 360.318 323.102 360.172 323.168C360.024 323.235 359.855 323.324 359.661 323.436C354.463 326.437 347.953 326.138 341.587 323.128C335.223 320.119 329.052 314.418 324.609 306.723C320.166 299.028 318.315 290.833 318.891 283.817C319.467 276.799 322.463 271.012 327.661 268.01Z" fill="#6F47C2" stroke="black"/>
<path d="M159.815 401.292C171.385 370.132 205.835 355.669 221.615 352.332C247.061 384.406 265.204 447.832 261.995 465.273C213.578 483.412 179.39 466.198 176.891 461.869C167.64 445.846 153.055 415.584 159.815 401.292Z" fill="#2B2B2B" fill-opacity="0.28" stroke="black"/>
<path d="M379.308 348.465C375.962 343.469 372.057 330.905 370.523 325.248C365.646 316.801 372.552 282.314 368.704 265.098C361.048 230.836 369.632 231.364 372.453 215.592L369.801 204.998C372.005 203.149 378.121 198.809 384.957 196.248C393.501 193.047 389.122 198.462 403.197 197.842C409.001 193.802 415.437 189.042 420.999 184.676C426.562 180.31 446.998 173.707 472.591 197.036C498.185 220.365 488.271 264.194 489.106 270.64C489.941 277.086 486.263 286.715 482.75 291.63C479.236 296.545 482.844 326.794 479.197 329.477C475.55 332.16 419.173 359.513 412.294 360.598C405.415 361.683 383.491 354.711 379.308 348.465Z" fill="#2B2B2B" fill-opacity="0.28"/>
<path d="M489.106 270.64C489.941 277.086 486.263 286.715 482.75 291.63C479.236 296.545 482.844 326.794 479.197 329.477C475.55 332.16 419.173 359.513 412.294 360.598C405.415 361.683 383.491 354.711 379.308 348.465C375.962 343.469 372.057 330.905 370.523 325.248C365.646 316.801 372.552 282.314 368.704 265.098C361.048 230.836 369.632 231.364 372.453 215.592L369.801 204.998C372.005 203.149 378.121 198.809 384.957 196.248C393.501 193.047 389.122 198.462 403.197 197.842C409.001 193.802 415.437 189.042 420.999 184.676M489.106 270.64C488.271 264.194 498.185 220.365 472.591 197.036C446.998 173.707 426.562 180.31 420.999 184.676M489.106 270.64C474.522 296.381 456.679 286.475 429.952 259.182C408.57 237.348 415.074 200.414 420.999 184.676" stroke="black"/>
<path d="M495.333 262.426C487.502 266.947 477.743 266.519 468.251 262.075C458.762 257.632 449.587 249.191 443.004 237.79C436.422 226.389 433.699 214.223 434.596 203.783C435.494 193.341 440.002 184.675 447.833 180.154L447.583 179.721C447.833 180.154 447.833 180.154 447.833 180.154L447.834 180.153L447.836 180.152L447.838 180.151L447.841 180.149L447.845 180.147L447.849 180.144L447.854 180.142L447.86 180.138L447.866 180.135L447.873 180.131L447.88 180.127L447.888 180.122L447.897 180.117L447.906 180.112L447.916 180.106L447.927 180.1L447.938 180.093L447.95 180.086L447.962 180.079L447.975 180.072L447.989 180.064L448.003 180.056L448.018 180.047L448.033 180.038L448.049 180.029L448.066 180.019L448.083 180.009L448.101 179.999L448.12 179.988L448.139 179.977L448.158 179.966L448.179 179.954L448.199 179.942L448.221 179.93L448.243 179.917L448.265 179.904L448.289 179.891L448.312 179.877L448.337 179.863L448.361 179.849L448.387 179.834L448.413 179.819L448.439 179.804L448.466 179.788L448.494 179.772L448.522 179.756L448.551 179.739L448.58 179.722L448.61 179.705L448.641 179.688L448.672 179.67L448.703 179.651L448.735 179.633L448.768 179.614L448.801 179.595L448.834 179.576L448.869 179.556L448.903 179.536L448.938 179.516L448.974 179.495L449.01 179.474L449.047 179.453L449.085 179.431L449.122 179.409L449.161 179.387L449.199 179.365L449.239 179.342L449.279 179.319L449.319 179.296L449.36 179.272L449.401 179.248L449.443 179.224L449.485 179.2L449.528 179.175L449.571 179.15L449.615 179.125L449.66 179.099L449.704 179.073L449.75 179.047L449.795 179.021L449.841 178.994L449.888 178.967L449.935 178.94L449.983 178.913L450.031 178.885L450.08 178.857L450.129 178.828L450.178 178.8L450.228 178.771L450.278 178.742L450.329 178.713L450.38 178.683L450.432 178.653L450.484 178.623L450.537 178.593L450.59 178.562L450.643 178.531L450.697 178.5L450.752 178.469L450.806 178.437L450.862 178.405L450.917 178.373L450.973 178.341L451.03 178.308L451.087 178.275L451.144 178.242L451.202 178.209L451.26 178.175L451.319 178.141L451.378 178.107L451.437 178.073L451.497 178.039L451.557 178.004L451.618 177.969L451.679 177.934L451.74 177.898L451.802 177.862L451.864 177.827L451.926 177.79L451.989 177.754L452.053 177.718L452.116 177.681L452.181 177.644L452.245 177.607L452.31 177.569L452.375 177.531L452.441 177.494L452.507 177.455L452.573 177.417L452.64 177.379L452.707 177.34L452.774 177.301L452.842 177.262L452.91 177.223L452.978 177.183L453.047 177.143L453.116 177.103L453.186 177.063L453.256 177.023L453.326 176.982L453.397 176.942L453.467 176.901L453.539 176.86L453.61 176.818L453.682 176.777L453.754 176.735L453.827 176.693L453.9 176.651L453.973 176.609L454.046 176.567L454.12 176.524L454.194 176.481L454.269 176.438L454.343 176.395L454.418 176.352L454.494 176.308L454.569 176.265L454.645 176.221L454.721 176.177L454.798 176.133L454.875 176.088L454.952 176.044L455.029 175.999L455.107 175.954L455.185 175.909L455.263 175.864L455.342 175.819L455.421 175.773L455.5 175.727L455.579 175.682L455.659 175.636L455.739 175.59L455.819 175.543L455.899 175.497L455.98 175.45L456.061 175.403L456.142 175.357L456.223 175.31L456.305 175.262L456.387 175.215L456.469 175.168L456.552 175.12L456.634 175.072L456.717 175.024L456.801 174.976L456.884 174.928L456.968 174.88L457.051 174.832L457.136 174.783L457.22 174.734L457.304 174.685L457.389 174.637L457.474 174.587L457.559 174.538L457.645 174.489L457.731 174.439L457.816 174.39L457.902 174.34L457.989 174.29L458.075 174.24L458.162 174.19L458.249 174.14L458.336 174.09L458.423 174.04L458.511 173.989L458.598 173.939L458.686 173.888L458.774 173.837L458.862 173.786L458.951 173.735L459.039 173.684L459.128 173.633L459.217 173.581L459.306 173.53L459.395 173.478L459.485 173.427L459.574 173.375L459.664 173.323L459.754 173.271L459.844 173.219L459.934 173.167L460.025 173.115L460.115 173.063L460.206 173.01L460.297 172.958L460.388 172.905L460.479 172.853L460.57 172.8L460.661 172.747L460.753 172.694L460.845 172.642L460.936 172.589L461.028 172.535L461.12 172.482L461.213 172.429L461.305 172.376L461.397 172.322L461.49 172.269L461.583 172.216L461.675 172.162L461.768 172.108L461.861 172.055L461.954 172.001L462.047 171.947L462.141 171.893L462.234 171.839L462.328 171.785L462.421 171.731L462.515 171.677L462.609 171.623L462.703 171.569L462.796 171.515L462.891 171.46L462.985 171.406L463.079 171.352L463.173 171.297L463.267 171.243L463.362 171.188L463.456 171.134L463.551 171.079L463.645 171.024L463.74 170.97L463.835 170.915L463.93 170.86L464.025 170.806L464.119 170.751L464.214 170.696L464.309 170.641L464.404 170.586L464.5 170.531L464.595 170.476L464.69 170.421L464.785 170.366L464.88 170.311L464.976 170.256L465.071 170.201L465.166 170.146L465.262 170.091L465.357 170.036L465.453 169.981L465.548 169.926L465.643 169.871L465.739 169.816L465.834 169.761L465.93 169.706L466.025 169.65L466.121 169.595L466.216 169.54L466.312 169.485L466.407 169.43L466.503 169.375L466.598 169.32L466.694 169.264L466.789 169.209L466.885 169.154L466.98 169.099L467.076 169.044L467.171 168.989L467.267 168.934L467.362 168.879L467.457 168.824L467.553 168.769L467.648 168.714L467.743 168.659L467.838 168.604L467.934 168.549L468.029 168.494L468.124 168.439L468.219 168.384L468.314 168.329L468.409 168.274L468.504 168.219L468.599 168.165L468.694 168.11L468.788 168.055L468.883 168.001L468.978 167.946L469.072 167.891L469.167 167.837L469.261 167.782L469.355 167.728L469.45 167.673L469.544 167.619L469.638 167.565L469.732 167.51L469.826 167.456L469.92 167.402L470.014 167.348L470.107 167.294L470.201 167.24L470.295 167.186L470.388 167.132L470.481 167.078L470.575 167.024L470.668 166.97L470.761 166.917L470.854 166.863L470.946 166.809L471.039 166.756L471.132 166.702L471.224 166.649L471.316 166.596L471.409 166.542L471.501 166.489L471.593 166.436L471.684 166.383L471.776 166.33L471.868 166.277L471.959 166.225L472.05 166.172L472.142 166.119L472.233 166.067L472.323 166.014L472.414 165.962L472.505 165.91L472.595 165.857L472.685 165.805L472.775 165.753L472.865 165.701L472.955 165.649L473.045 165.598L473.134 165.546L473.224 165.495L473.313 165.443L473.402 165.392L473.49 165.34L473.579 165.289L473.667 165.238L473.756 165.187L473.844 165.136L473.932 165.086L474.019 165.035L474.107 164.985L474.194 164.934L474.281 164.884L474.368 164.834L474.455 164.784L474.541 164.734L474.628 164.684L474.714 164.634L474.8 164.585L474.885 164.535L474.971 164.486L475.056 164.437L475.141 164.387L475.226 164.338L475.311 164.29L475.395 164.241L475.479 164.192L475.563 164.144L475.647 164.096L475.73 164.047L475.813 163.999L475.896 163.951L475.979 163.904L476.062 163.856L476.144 163.809L476.226 163.761L476.308 163.714L476.389 163.667L476.47 163.62L476.551 163.573L476.632 163.527L476.713 163.48L476.793 163.434L476.873 163.388L476.952 163.342L477.032 163.296L477.111 163.25L477.19 163.205L477.268 163.159L477.347 163.114L477.425 163.069L477.503 163.024L477.58 162.979L477.657 162.935L477.734 162.89L477.811 162.846L477.887 162.802L477.963 162.758L478.039 162.715L478.114 162.671L478.189 162.628L478.264 162.584L478.338 162.541L478.413 162.499L478.486 162.456L478.56 162.414L478.633 162.371L478.706 162.329L478.779 162.287L478.851 162.246L478.923 162.204L478.995 162.163L479.066 162.122L479.137 162.081L479.207 162.04L479.278 161.999L479.348 161.959L479.417 161.919L479.486 161.879L479.555 161.839L479.624 161.799L479.692 161.76L479.76 161.721L479.827 161.682L479.894 161.643L479.961 161.605L480.028 161.566L480.094 161.528L480.159 161.49L480.225 161.453L480.289 161.415L480.354 161.378L480.418 161.341L480.482 161.304L480.545 161.267L480.608 161.231L480.671 161.195L480.733 161.159L480.795 161.123L480.857 161.088L480.918 161.052L480.978 161.017L481.039 160.982L481.099 160.948L481.158 160.914L481.217 160.879L481.276 160.846L481.334 160.812L481.392 160.779L481.449 160.745L481.506 160.713L481.563 160.68L481.619 160.647L481.675 160.615L481.73 160.583L481.785 160.552L481.839 160.52L481.893 160.489L481.947 160.458L482 160.427L482.053 160.397L482.105 160.367L482.157 160.337L482.208 160.307L482.259 160.278L482.31 160.249L482.36 160.22L482.409 160.191L482.458 160.163L482.507 160.135L482.555 160.107L482.603 160.08L482.65 160.052L482.697 160.025L482.743 159.999L482.789 159.972L482.834 159.946L482.879 159.92L482.923 159.894L482.967 159.869L483.011 159.844L483.054 159.819L483.096 159.795L483.138 159.77L483.179 159.747L483.22 159.723L483.261 159.7L483.301 159.676L483.34 159.654C491.171 155.133 500.93 155.561 510.422 160.005C519.912 164.448 529.086 172.889 535.669 184.29C542.252 195.691 544.974 207.857 544.077 218.297C543.18 228.739 538.671 237.405 530.84 241.926L530.801 241.949L530.761 241.972L530.72 241.995L530.679 242.019L530.638 242.043L530.596 242.067L530.554 242.092L530.511 242.116L530.467 242.141L530.423 242.167L530.379 242.192L530.334 242.218L530.289 242.244L530.243 242.271L530.197 242.298L530.15 242.325L530.103 242.352L530.055 242.379L530.007 242.407L529.958 242.435L529.909 242.464L529.86 242.492L529.81 242.521L529.759 242.55L529.708 242.58L529.657 242.609L529.605 242.639L529.553 242.669L529.5 242.7L529.447 242.731L529.393 242.761L529.339 242.793L529.285 242.824L529.23 242.856L529.175 242.888L529.119 242.92L529.063 242.952L529.006 242.985L528.949 243.018L528.892 243.051L528.834 243.084L528.776 243.118L528.717 243.152L528.658 243.186L528.599 243.22L528.539 243.255L528.478 243.29L528.418 243.325L528.357 243.36L528.295 243.395L528.233 243.431L528.171 243.467L528.108 243.503L528.045 243.54L527.982 243.576L527.918 243.613L527.854 243.65L527.789 243.687L527.725 243.725L527.659 243.763L527.594 243.801L527.528 243.839L527.461 243.877L527.394 243.916L527.327 243.954L527.26 243.993L527.192 244.032L527.124 244.072L527.055 244.111L526.986 244.151L526.917 244.191L526.848 244.231L526.778 244.272L526.707 244.312L526.637 244.353L526.566 244.394L526.495 244.435L526.423 244.476L526.351 244.518L526.279 244.56L526.206 244.602L526.133 244.644L526.06 244.686L525.986 244.728L525.913 244.771L525.838 244.814L525.764 244.857L525.689 244.9L525.614 244.943L525.539 244.987L525.463 245.031L525.387 245.075L525.311 245.119L525.234 245.163L525.157 245.207L525.08 245.252L525.003 245.296L524.925 245.341L524.847 245.386L524.768 245.432L524.69 245.477L524.611 245.523L524.532 245.568L524.452 245.614L524.373 245.66L524.293 245.706L524.213 245.753L524.132 245.799L524.051 245.846L523.97 245.892L523.889 245.939L523.808 245.986L523.726 246.034L523.644 246.081L523.562 246.128L523.479 246.176L523.396 246.224L523.313 246.272L523.23 246.32L523.147 246.368L523.063 246.416L522.979 246.465L522.895 246.513L522.811 246.562L522.726 246.611L522.641 246.66L522.556 246.709L522.471 246.758L522.385 246.807L522.3 246.857L522.214 246.907L522.128 246.956L522.041 247.006L521.955 247.056L521.868 247.106L521.781 247.156L521.694 247.207L521.607 247.257L521.519 247.308L521.432 247.358L521.344 247.409L521.256 247.46L521.167 247.511L521.079 247.562L520.99 247.613L520.902 247.664L520.813 247.715L520.724 247.767L520.634 247.818L520.545 247.87L520.455 247.922L520.365 247.974L520.275 248.026L520.185 248.078L520.095 248.13L520.005 248.182L519.914 248.234L519.823 248.287L519.733 248.339L519.642 248.392L519.55 248.444L519.459 248.497L519.368 248.55L519.276 248.603L519.184 248.656L519.093 248.709L519.001 248.762L518.909 248.815L518.816 248.868L518.724 248.921L518.632 248.975L518.539 249.028L518.446 249.082L518.354 249.135L518.261 249.189L518.168 249.243L518.075 249.296L517.981 249.35L517.888 249.404L517.795 249.458L517.701 249.512L517.607 249.566L517.514 249.62L517.42 249.674L517.326 249.729L517.232 249.783L517.138 249.837L517.044 249.891L516.95 249.946L516.855 250L516.761 250.055L516.667 250.109L516.572 250.164L516.478 250.218L516.383 250.273L516.288 250.328L516.194 250.382L516.099 250.437L516.004 250.492L515.909 250.547L515.814 250.602L515.719 250.656L515.624 250.711L515.529 250.766L515.434 250.821L515.338 250.876L515.243 250.931L515.148 250.986L515.053 251.041L514.957 251.096L514.862 251.151L514.767 251.206L514.671 251.261L514.576 251.316L514.48 251.371L514.385 251.427L514.289 251.482L514.194 251.537L514.098 251.592L514.003 251.647L513.907 251.702L513.812 251.757L513.716 251.813L513.621 251.868L513.525 251.923L513.43 251.978L513.334 252.033L513.239 252.088L513.143 252.143L513.048 252.198L512.953 252.254L512.857 252.309L512.762 252.364L512.666 252.419L512.571 252.474L512.476 252.529L512.38 252.584L512.285 252.639L512.19 252.694L512.095 252.749L512 252.804L511.904 252.859L511.809 252.914L511.714 252.968L511.619 253.023L511.525 253.078L511.43 253.133L511.335 253.188L511.24 253.242L511.145 253.297L511.051 253.351L510.956 253.406L510.862 253.461L510.767 253.515L510.673 253.57L510.579 253.624L510.485 253.678L510.391 253.733L510.296 253.787L510.203 253.841L510.109 253.895L510.015 253.95L509.921 254.004L509.828 254.058L509.734 254.112L509.641 254.166L509.547 254.219L509.454 254.273L509.361 254.327L509.268 254.381L509.175 254.434L509.083 254.488L508.99 254.541L508.897 254.595L508.805 254.648L508.713 254.701L508.62 254.755L508.528 254.808L508.436 254.861L508.345 254.914L508.253 254.967L508.161 255.02L508.07 255.072L507.979 255.125L507.888 255.178L507.797 255.23L507.706 255.283L507.615 255.335L507.525 255.387L507.434 255.44L507.344 255.492L507.254 255.544L507.164 255.596L507.074 255.647L506.985 255.699L506.895 255.751L506.806 255.802L506.717 255.854L506.628 255.905L506.539 255.956L506.451 256.007L506.362 256.058L506.274 256.109L506.186 256.16L506.098 256.211L506.011 256.262L505.923 256.312L505.836 256.362L505.749 256.413L505.662 256.463L505.575 256.513L505.489 256.563L505.402 256.613L505.316 256.662L505.231 256.712L505.145 256.761L505.059 256.811L504.974 256.86L504.889 256.909L504.804 256.958L504.72 257.007L504.636 257.055L504.551 257.104L504.468 257.152L504.384 257.201L504.301 257.249L504.217 257.297L504.134 257.345L504.052 257.392L503.969 257.44L503.887 257.487L503.805 257.535L503.723 257.582L503.642 257.629L503.561 257.676L503.48 257.723L503.399 257.769L503.319 257.816L503.239 257.862L503.159 257.908L503.079 257.954L503 258L502.921 258.046L502.842 258.091L502.763 258.136L502.685 258.182L502.607 258.227L502.529 258.271L502.452 258.316L502.375 258.361L502.298 258.405L502.221 258.449L502.145 258.493L502.069 258.537L501.994 258.581L501.918 258.624L501.843 258.668L501.769 258.711L501.694 258.754L501.62 258.796L501.546 258.839L501.473 258.881L501.4 258.924L501.327 258.966L501.254 259.008L501.182 259.049L501.11 259.091L501.039 259.132L500.967 259.173L500.897 259.214L500.826 259.255L500.756 259.295L500.686 259.336L500.616 259.376L500.547 259.416L500.478 259.455L500.41 259.495L500.342 259.534L500.274 259.573L500.207 259.612L500.14 259.651L500.073 259.69L500.007 259.728L499.941 259.766L499.875 259.804L499.81 259.841L499.745 259.879L499.681 259.916L499.616 259.953L499.553 259.99L499.489 260.027L499.426 260.063L499.364 260.099L499.302 260.135L499.24 260.171L499.179 260.206L499.118 260.241L499.057 260.276L498.997 260.311L498.937 260.345L498.878 260.38L498.819 260.414L498.76 260.448L498.702 260.481L498.644 260.515L498.587 260.548L498.53 260.58L498.473 260.613L498.417 260.645L498.362 260.678L498.306 260.709L498.252 260.741L498.197 260.773L498.143 260.804L498.09 260.835L498.037 260.865L497.984 260.896L497.932 260.926L497.88 260.956L497.829 260.985L497.778 261.014L497.728 261.044L497.678 261.072L497.629 261.101L497.58 261.129L497.531 261.157L497.483 261.185L497.435 261.212L497.388 261.24L497.341 261.267L497.295 261.293L497.25 261.32L497.204 261.346L497.16 261.372L497.115 261.397L497.071 261.422L497.028 261.447L496.985 261.472L496.943 261.497L496.901 261.521L496.86 261.545L496.819 261.568L496.779 261.592L496.739 261.615L496.699 261.637L496.661 261.66L496.622 261.682L496.585 261.704L496.547 261.725L496.51 261.746L496.474 261.767L496.438 261.788L496.403 261.808L496.369 261.828L496.334 261.848L496.301 261.867L496.268 261.887L496.235 261.905L496.203 261.924L496.172 261.942L496.141 261.96L496.11 261.977L496.08 261.995L496.051 262.012L496.022 262.028L495.994 262.045L495.966 262.061L495.939 262.076L495.913 262.091L495.887 262.106L495.861 262.121L495.837 262.135L495.812 262.15L495.789 262.163L495.765 262.177L495.743 262.19L495.721 262.202L495.699 262.215L495.679 262.227L495.658 262.238L495.639 262.25L495.62 262.261L495.601 262.271L495.583 262.282L495.566 262.292L495.549 262.301L495.533 262.311L495.518 262.319L495.503 262.328L495.489 262.336L495.475 262.344L495.462 262.352L495.45 262.359L495.438 262.366L495.427 262.372L495.416 262.378L495.406 262.384L495.397 262.389L495.388 262.394L495.38 262.399L495.373 262.403L495.366 262.407L495.36 262.411L495.354 262.414L495.349 262.417L495.345 262.419L495.341 262.421L495.338 262.423L495.336 262.424L495.334 262.425L495.333 262.426C495.333 262.426 495.333 262.426 495.583 262.859L495.333 262.426Z" fill="#6F47C2" stroke="black"/>
<path d="M488.112 174.539C478.79 162.176 468.013 118.305 467.711 97.5904C467.661 94.1623 468.819 89.4846 487.307 81.4074C510.417 71.3108 545.658 96.4105 567.785 110.146C589.912 123.881 624.171 176.599 610.37 198.092C596.57 219.585 601.809 239.021 602.326 265.494C602.448 271.706 598.599 279.226 598.599 279.226C598.599 279.226 596.52 284.413 592.39 288.333C580.75 299.381 564.098 289.769 556.512 277.879C543.044 256.77 534.018 231.353 522.716 214.614C511.414 197.876 499.765 189.994 488.112 174.539Z" fill="#2B2B2B" fill-opacity="0.28"/>
<path d="M487.307 81.4074C510.417 71.3108 545.658 96.4105 567.785 110.146C589.912 123.881 624.171 176.599 610.37 198.092C596.57 219.585 601.809 239.021 602.326 265.494C602.448 271.706 598.599 279.226 598.599 279.226M487.307 81.4074C468.819 89.4846 467.661 94.1623 467.711 97.5904C468.013 118.305 478.79 162.176 488.112 174.539C499.765 189.994 511.414 197.876 522.716 214.614C534.018 231.353 543.044 256.77 556.512 277.879C564.098 289.769 580.75 299.381 592.39 288.333C596.52 284.413 598.599 279.226 598.599 279.226M487.307 81.4074C489.99 102.762 497.51 149.204 506.131 164.136C514.752 179.068 525.714 189.101 537.868 205.866C557.114 232.412 560.069 262.615 578.219 280.811C588.09 290.706 598.599 279.226 598.599 279.226" stroke="black"/>
</svg>
